{"glyphs":{"0":{"ha":987,"x_min":24,"x_max":963,"o":"m 872 869 q 935 750 919 822 q 900 444 963 620 q 856 340 878 381 q 831 293 835 298 q 798 239 828 287 q 709 135 769 191 q 557 31 639 69 q 383 -7 474 -7 q 366 -6 374 -7 q 348 -6 357 -6 q 65 146 141 11 q 24 317 24 219 q 46 487 24 394 q 89 617 67 565 q 113 674 111 669 q 124 697 115 678 q 151 747 133 717 q 194 816 169 778 q 254 896 220 854 q 430 1069 333 998 q 680 1183 546 1156 q 709 1190 683 1185 q 769 1193 735 1194 q 836 1177 802 1191 q 893 1128 870 1163 q 906 1100 896 1124 q 920 1035 917 1076 l 920 1017 l 920 996 q 913 963 919 978 q 902 938 909 950 q 881 922 894 926 q 834 937 850 909 q 852 1011 819 965 q 867 1041 861 1026 q 872 1069 870 1054 q 867 1098 874 1083 q 865 1102 865 1100 q 863 1106 865 1104 l 861 1107 q 815 1144 844 1135 q 757 1156 785 1154 q 689 1148 724 1156 l 687 1148 q 663 1142 674 1144 q 639 1135 652 1139 q 595 1118 628 1131 q 531 1080 563 1104 q 474 1031 507 1061 q 402 956 441 1002 q 319 848 363 911 q 228 702 274 785 q 113 419 146 548 q 94 306 98 363 q 104 200 91 250 q 150 111 117 150 q 244 52 183 72 q 335 33 281 39 q 378 31 348 31 q 439 41 407 31 q 515 76 474 52 q 600 144 556 100 q 693 254 644 187 q 791 415 741 320 q 865 588 844 515 q 887 710 885 661 q 880 786 889 759 q 865 822 870 813 q 715 887 819 883 q 673 886 713 887 q 578 859 633 885 q 365 583 431 791 q 348 513 354 548 q 344 447 344 481 q 356 381 344 413 q 373 355 361 365 q 398 339 385 344 q 428 330 413 331 q 494 290 485 320 q 472 246 504 259 q 445 244 459 241 q 420 254 431 248 q 393 270 406 261 q 378 283 385 276 q 364 298 370 289 q 350 317 357 307 q 331 346 335 333 q 308 424 311 381 q 310 504 306 467 q 322 567 315 541 q 330 596 330 593 q 376 706 350 656 q 437 796 402 757 q 565 893 491 859 q 668 923 624 920 q 717 924 711 926 q 872 869 817 920 z "},"1":{"ha":724,"x_min":28,"x_max":674,"o":"m 635 1191 q 653 1180 643 1187 q 669 1160 663 1172 q 671 1129 674 1148 q 652 1083 669 1109 q 374 661 498 863 q 269 484 320 574 q 179 309 219 394 q 113 149 139 224 q 85 19 87 74 q 76 3 85 4 q 63 4 67 2 q 30 41 39 13 q 28 51 28 46 q 28 57 28 56 q 65 195 33 102 q 153 414 96 289 q 290 687 209 539 q 476 989 370 835 q 417 939 446 963 q 356 894 387 915 q 346 887 352 891 q 337 881 341 883 q 326 872 330 874 q 320 869 322 870 q 289 856 304 861 q 262 850 276 852 q 237 856 248 848 q 223 903 211 874 q 293 933 235 931 q 324 937 307 933 q 354 944 339 941 q 380 957 369 948 q 467 1030 424 991 q 543 1103 509 1069 q 596 1160 576 1137 q 617 1183 617 1183 q 622 1187 620 1187 q 635 1191 628 1193 z "},"2":{"ha":965,"x_min":28,"x_max":920,"o":"m 913 1087 q 908 1006 920 1048 q 872 924 896 963 q 819 853 848 885 q 767 804 791 820 l 765 802 l 763 802 q 576 625 676 722 q 381 428 476 528 q 211 233 287 328 q 98 65 135 139 q 209 71 139 70 q 378 56 280 72 q 467 43 420 48 q 556 35 513 37 l 554 35 q 592 39 574 33 q 622 52 609 44 q 648 70 637 59 q 689 94 670 89 q 720 93 707 98 q 739 75 733 87 q 741 48 744 63 q 731 32 737 39 q 715 20 724 26 l 713 20 q 683 7 698 11 q 669 4 676 6 l 657 4 q 585 -2 624 -2 q 370 20 504 -2 q 237 34 294 33 q 139 31 180 35 q 77 23 98 28 q 56 19 56 19 q 33 30 39 15 q 28 48 30 41 q 31 65 28 61 q 83 157 43 96 q 188 299 124 219 q 334 475 252 380 q 515 670 417 570 q 625 771 569 724 q 754 878 681 819 q 823 942 800 917 q 857 981 846 967 q 863 992 861 987 q 869 1000 865 996 l 869 1004 q 876 1080 883 1046 q 772 1159 865 1139 q 746 1161 759 1161 q 720 1161 735 1161 q 689 1157 706 1161 q 567 1048 600 1135 l 567 1046 l 563 1035 q 559 1024 561 1030 q 557 1009 557 1019 q 561 973 554 989 q 578 946 569 957 q 604 924 589 933 q 633 888 626 906 q 639 857 641 870 q 627 836 637 844 q 600 830 617 828 q 576 842 585 831 q 557 863 567 852 q 541 893 548 876 q 537 900 539 894 q 534 908 535 904 q 531 917 533 913 q 519 968 520 943 q 519 1012 517 993 q 527 1044 522 1031 q 533 1061 531 1057 q 601 1156 557 1128 q 681 1193 644 1183 q 748 1199 720 1202 q 780 1194 776 1196 q 878 1148 850 1180 q 913 1087 906 1117 z "},"3":{"ha":1011,"x_min":31,"x_max":981,"o":"m 750 765 q 919 631 863 713 q 969 415 981 539 q 920 262 961 339 q 815 124 880 185 q 654 20 746 61 q 553 -10 606 0 q 444 -22 500 -20 l 437 -22 q 252 9 335 -22 q 124 91 178 37 q 55 203 78 139 q 35 337 31 267 q 49 426 37 381 q 74 502 61 470 l 74 504 q 77 511 74 506 q 81 520 80 517 q 84 527 83 524 q 87 533 85 530 q 91 539 89 537 q 111 565 100 554 q 131 581 120 574 q 157 589 143 589 q 183 578 174 587 q 193 555 193 569 q 181 524 193 541 q 144 494 169 507 q 120 474 131 485 q 101 452 111 465 q 87 424 91 439 q 72 335 72 370 q 89 216 69 272 q 152 117 109 159 q 391 17 235 31 q 517 34 448 15 q 651 95 585 54 q 773 205 717 137 q 865 367 830 272 q 892 507 894 448 q 870 607 889 567 q 826 672 852 648 q 785 706 800 696 l 774 711 l 772 711 q 741 728 757 720 q 706 743 724 735 l 704 743 l 704 744 l 702 744 q 700 746 700 744 q 698 748 698 746 l 696 750 l 696 752 l 694 752 l 694 754 l 694 756 l 694 757 l 694 759 l 694 761 l 694 763 l 694 765 l 694 767 q 696 769 696 767 l 696 770 l 698 770 l 698 772 l 700 772 l 700 774 q 803 894 765 817 q 837 1054 841 972 q 822 1109 835 1089 q 794 1141 809 1130 q 762 1156 778 1152 q 739 1161 746 1161 q 710 1162 726 1163 q 678 1157 694 1161 q 556 1048 589 1135 l 556 1046 l 552 1035 q 548 1024 550 1030 q 546 1009 546 1019 q 550 973 543 989 q 567 946 557 957 q 593 924 578 933 q 622 888 615 906 q 628 857 630 870 q 616 836 626 844 q 589 830 606 828 q 565 842 574 831 q 546 863 556 852 q 530 893 537 876 q 526 900 528 894 q 523 908 524 904 q 520 917 522 913 q 507 968 509 943 q 508 1012 506 993 q 516 1044 511 1031 q 522 1061 520 1057 q 590 1156 546 1128 q 670 1193 633 1183 q 737 1199 709 1202 q 769 1194 765 1196 q 866 1144 839 1180 q 898 1078 893 1109 q 898 1022 902 1050 q 886 969 894 994 q 868 922 878 944 q 848 885 857 900 q 802 817 828 848 q 750 765 776 785 z "},"4":{"ha":980,"x_min":28,"x_max":928,"o":"m 676 537 q 704 522 691 530 q 723 502 715 513 q 733 476 731 491 q 725 449 733 459 q 703 437 717 439 q 672 445 689 435 q 639 478 656 456 q 620 498 631 489 q 569 522 598 517 q 559 524 565 524 q 546 526 554 524 q 469 382 506 454 q 404 245 431 311 q 358 121 376 180 q 339 19 341 63 q 330 3 339 4 q 317 4 320 2 q 283 41 293 13 q 281 51 281 46 q 281 57 281 56 q 333 238 289 113 q 461 530 378 363 q 405 530 435 530 q 339 528 374 530 q 231 522 283 526 q 138 515 178 519 q 73 508 98 511 q 48 506 48 506 q 33 511 41 506 q 28 526 28 517 q 33 547 28 533 q 54 581 39 561 q 95 631 69 602 q 169 698 122 659 q 294 797 222 743 q 457 915 367 852 q 610 1018 535 969 q 744 1105 685 1067 q 838 1165 802 1143 q 874 1187 874 1187 q 877 1189 876 1189 q 880 1191 878 1189 l 889 1191 q 906 1180 896 1187 q 922 1160 917 1172 q 925 1129 928 1148 q 906 1083 922 1109 q 794 924 852 1009 q 686 757 746 852 q 567 561 626 663 q 676 537 637 552 m 480 567 q 625 826 543 691 q 809 1100 707 961 q 725 1037 781 1080 q 598 942 669 994 q 450 831 528 889 q 300 718 372 772 q 168 618 228 663 q 74 546 107 572 q 182 556 111 550 q 337 565 254 561 q 413 568 378 567 q 480 567 448 569 z "},"5":{"ha":1102,"x_min":33,"x_max":1074,"o":"m 1054 1111 q 1063 1035 1074 1080 q 1060 1019 1063 1030 q 1052 995 1057 1007 q 1039 972 1046 983 q 1020 957 1031 961 q 973 972 989 944 q 991 1046 957 1000 q 1002 1069 996 1057 q 1009 1089 1006 1078 q 1009 1109 1013 1100 q 894 1155 976 1141 q 691 1165 813 1169 q 664 1158 681 1163 q 624 1140 646 1154 q 578 1103 602 1126 q 530 1043 554 1080 q 477 955 498 993 q 451 890 456 917 q 461 847 446 863 q 519 826 476 831 q 726 774 641 809 q 904 656 841 730 q 970 415 987 552 q 922 262 963 339 q 817 124 881 185 q 656 20 748 61 q 555 -10 607 0 q 446 -22 502 -20 l 439 -22 q 256 9 335 -22 q 126 91 181 35 q 56 203 80 139 q 37 337 33 267 q 51 426 39 381 q 76 502 63 470 l 76 504 q 79 511 76 506 q 83 520 81 517 q 86 527 85 524 q 89 533 87 530 q 93 539 91 537 q 113 565 102 554 q 133 581 122 574 q 159 589 144 589 q 185 578 176 587 q 194 555 194 569 q 182 524 194 541 q 146 494 170 507 q 122 474 133 485 q 103 452 113 465 q 89 424 93 439 q 74 335 74 370 q 91 216 70 272 q 154 117 111 159 q 393 17 237 31 q 519 34 450 15 q 653 95 587 54 q 775 205 719 137 q 867 367 831 272 q 894 500 894 443 q 876 598 893 557 q 835 664 859 639 q 794 700 811 689 q 443 796 667 780 q 411 806 439 796 q 367 846 383 815 q 385 987 339 898 q 423 1052 402 1019 q 470 1126 444 1085 q 479 1137 470 1126 q 505 1160 487 1148 q 551 1183 522 1172 q 619 1198 580 1194 q 747 1202 687 1202 q 857 1196 807 1202 q 1052 1115 1011 1180 l 1054 1115 l 1054 1111 l 1054 1111 z "},"6":{"ha":961,"x_min":31,"x_max":930,"o":"m 928 1035 q 929 1027 928 1033 q 928 1017 930 1020 l 928 1002 l 928 996 q 920 963 926 978 q 909 938 917 950 q 889 922 902 926 q 843 937 857 909 q 861 1011 828 965 q 874 1041 869 1026 q 880 1069 878 1054 q 874 1098 881 1083 q 872 1106 872 1100 q 870 1107 872 1107 l 869 1107 q 823 1145 852 1135 q 767 1156 794 1156 q 718 1152 739 1156 q 696 1148 696 1148 q 671 1142 683 1144 q 646 1135 659 1139 q 604 1118 637 1131 q 539 1080 570 1104 q 482 1031 515 1061 q 411 956 450 1002 q 328 848 372 911 q 237 702 283 785 q 228 685 233 694 q 218 665 224 676 q 204 639 211 654 q 214 648 209 643 q 224 657 219 654 q 406 750 300 726 q 486 765 448 761 q 554 769 524 769 q 603 766 583 769 q 626 763 622 763 q 655 758 631 763 q 709 741 678 754 q 773 704 741 728 q 830 639 806 680 q 807 289 906 509 q 799 273 806 287 q 780 237 793 259 q 747 188 767 215 q 702 133 728 161 q 561 30 637 67 q 393 -7 478 -7 q 374 -6 383 -7 q 356 -6 365 -6 q 72 146 148 11 q 31 317 35 215 q 56 487 31 398 q 96 617 74 565 q 122 674 119 669 q 133 697 124 678 q 159 747 143 717 q 202 816 176 778 q 261 896 228 854 q 437 1069 343 998 q 687 1183 557 1156 q 717 1190 691 1185 q 776 1193 743 1194 q 844 1177 809 1191 q 900 1128 878 1163 q 915 1100 904 1124 q 928 1035 926 1076 m 413 715 q 131 450 204 657 q 106 331 115 391 q 109 216 98 270 q 154 118 120 161 q 252 52 187 74 q 303 39 276 43 q 359 31 330 35 q 430 31 394 30 q 541 82 489 39 q 631 176 593 126 q 713 306 676 235 q 780 479 767 407 q 784 594 793 550 q 756 661 776 639 q 724 691 735 683 q 686 708 704 702 q 654 719 669 715 q 622 726 637 724 l 620 726 q 603 728 620 726 q 556 731 585 730 q 491 729 528 731 q 413 715 454 726 z "},"7":{"ha":987,"x_min":31,"x_max":943,"o":"m 917 1185 q 931 1170 924 1180 q 941 1148 939 1161 q 936 1119 943 1135 q 911 1080 930 1102 q 519 656 694 857 q 369 479 443 569 q 237 304 296 389 q 136 144 178 219 q 83 17 94 70 q 70 3 80 2 q 57 6 61 4 q 42 23 48 13 q 31 48 35 33 q 33 65 31 63 q 75 158 43 96 q 160 303 107 220 q 283 484 213 385 q 437 689 354 583 q 615 902 520 794 q 811 1109 709 1009 q 704 1073 763 1089 q 581 1057 644 1057 l 576 1057 q 467 1079 513 1057 q 381 1122 420 1100 q 367 1131 372 1124 q 335 1140 350 1139 q 307 1141 320 1141 q 281 1137 293 1139 q 235 1130 254 1128 q 206 1140 217 1131 q 194 1162 194 1148 q 202 1189 193 1176 q 214 1199 207 1196 q 230 1206 220 1202 l 233 1206 q 252 1207 243 1207 q 269 1207 261 1207 q 285 1206 276 1207 q 291 1204 287 1204 q 298 1203 294 1204 q 306 1202 302 1202 q 309 1200 307 1200 q 313 1198 311 1200 q 331 1192 315 1198 q 374 1169 348 1185 q 387 1161 381 1165 q 400 1154 393 1157 q 479 1114 437 1133 q 578 1094 520 1094 q 690 1108 633 1094 q 792 1141 746 1122 q 866 1174 837 1159 q 894 1189 894 1189 q 917 1185 907 1198 z "},"8":{"ha":1006,"x_min":37,"x_max":965,"o":"m 933 765 q 952 741 944 754 q 961 717 957 730 q 959 689 965 704 q 916 663 946 657 q 874 722 885 669 q 863 752 870 739 q 847 774 857 763 q 822 793 837 785 l 824 793 q 808 799 815 796 q 796 804 802 802 q 785 807 789 806 l 783 807 q 765 813 774 811 q 746 819 756 815 q 717 827 731 822 q 687 837 702 831 q 664 828 676 833 q 639 819 652 822 q 496 762 570 796 q 353 681 422 728 q 227 575 283 633 q 137 446 170 517 q 127 419 131 431 q 119 393 122 406 q 117 389 119 393 l 117 391 q 98 255 93 313 q 127 155 104 196 q 184 87 150 113 q 254 50 219 61 q 294 42 272 44 q 337 35 315 39 q 434 38 387 31 q 528 59 481 44 q 586 92 557 72 q 644 144 615 111 q 704 222 674 176 q 763 333 733 269 q 806 451 793 400 q 819 541 819 502 q 808 606 819 580 q 783 652 798 633 q 681 706 748 694 q 630 708 674 707 q 524 693 585 709 q 276 502 369 648 q 267 473 269 487 q 265 446 265 459 l 265 419 q 268 372 272 391 q 253 344 263 354 q 230 332 243 333 q 206 341 217 331 q 191 364 194 350 q 189 393 187 378 q 196 424 191 407 q 202 437 198 430 q 208 450 206 443 q 215 467 211 457 q 217 470 215 469 q 361 650 276 585 q 515 728 430 706 q 631 745 583 748 q 689 741 680 743 q 717 737 694 741 q 769 722 739 733 q 829 689 798 711 q 880 630 859 667 q 835 278 952 504 q 827 264 835 278 q 804 229 819 250 q 766 181 789 207 q 713 128 743 156 q 637 72 676 96 q 556 31 598 48 q 469 6 513 15 q 376 -4 424 -4 q 356 -3 367 -4 q 335 -2 344 -2 q 87 119 159 13 q 44 241 50 170 q 61 393 37 311 q 67 414 61 394 q 85 463 72 433 q 119 530 98 493 q 169 607 139 567 q 339 765 239 702 q 390 794 365 780 q 443 817 415 807 q 531 852 489 837 q 606 878 574 867 q 535 994 537 922 q 594 1144 530 1089 q 679 1191 631 1180 q 759 1196 726 1202 q 852 1135 826 1185 q 867 1078 863 1115 q 846 983 870 1041 q 813 930 831 952 q 772 889 794 907 q 733 861 756 874 q 744 857 739 859 q 757 854 750 856 q 776 848 767 850 q 794 843 785 846 q 820 833 798 841 q 869 811 843 826 q 892 797 880 806 q 913 781 904 789 q 933 765 924 774 m 648 894 q 745 952 702 917 q 804 1046 789 987 q 806 1110 813 1087 q 783 1144 798 1133 q 743 1161 767 1157 l 733 1161 q 676 1151 707 1161 q 619 1117 644 1141 q 572 996 567 1070 q 595 934 574 959 q 648 894 617 909 z "},"9":{"ha":943,"x_min":24,"x_max":911,"o":"m 856 1054 q 907 881 902 981 q 907 796 911 841 q 894 704 904 752 q 860 569 880 624 q 837 507 841 515 q 826 480 835 504 q 799 419 817 456 q 756 337 781 383 q 698 244 731 291 q 524 67 615 128 q 309 -2 419 -2 q 293 -1 300 -2 q 276 0 285 0 q 250 3 272 0 q 197 15 228 6 q 135 44 167 24 q 80 96 104 63 q 48 285 26 172 q 56 322 52 309 l 56 328 q 57 330 56 330 q 69 361 61 346 q 82 385 74 374 q 104 400 91 396 q 131 397 120 404 q 147 377 143 391 q 146 344 152 363 q 122 306 141 326 q 100 274 109 291 q 84 244 91 259 q 80 211 78 228 q 109 119 80 159 q 158 74 130 91 q 213 49 187 57 q 258 39 239 41 q 278 37 278 37 q 411 52 344 31 q 478 87 437 61 q 567 169 519 113 q 664 319 615 226 q 756 556 713 413 q 717 517 739 533 q 636 461 680 483 q 543 424 593 439 q 398 406 459 402 q 328 413 337 411 q 295 419 322 413 q 233 440 269 424 q 161 483 198 456 q 98 556 124 511 q 117 898 24 685 q 144 948 120 902 q 220 1048 167 994 q 359 1150 280 1113 q 567 1191 457 1196 q 856 1054 774 1185 m 785 665 q 812 874 813 791 q 794 1009 811 957 q 762 1069 781 1044 q 720 1110 743 1094 q 677 1134 698 1126 q 641 1146 656 1143 q 612 1151 626 1150 q 583 1154 598 1152 q 502 1147 539 1156 q 435 1126 465 1139 q 383 1097 406 1113 q 346 1069 361 1081 q 291 1005 315 1037 q 248 944 267 972 q 211 881 228 911 q 154 745 170 804 q 136 644 137 687 q 145 571 135 600 q 169 526 156 543 q 223 487 194 502 q 276 464 252 472 q 317 453 300 456 q 333 450 333 450 l 335 450 q 396 444 363 444 q 459 446 424 443 q 535 461 494 450 q 785 665 704 506 z "},"\u0000":{"ha":0,"x_min":0,"x_max":0,"o":""},"\r":{"ha":363,"x_min":0,"x_max":0,"o":""}," ":{"ha":363,"x_min":0,"x_max":0,"o":""},"A":{"ha":1780,"x_min":37,"x_max":2120,"o":"m 569 -81 q 354 -45 452 -81 q 185 59 256 -9 q 76 226 115 128 q 37 448 37 324 q 106 739 37 615 q 276 945 174 863 q 494 1069 378 1028 q 707 1111 611 1111 q 880 1089 789 1111 q 1047 1017 970 1067 q 1174 885 1124 967 q 1224 685 1224 804 q 1219 621 1224 665 q 1204 533 1215 578 q 1173 456 1193 489 q 1124 422 1154 422 q 1101 433 1109 422 q 1093 459 1093 444 q 1122 517 1093 489 q 1144 537 1135 526 q 1162 558 1154 546 q 1176 585 1170 570 q 1187 685 1187 635 q 1161 827 1187 767 q 1094 931 1135 887 q 1000 1002 1052 974 q 894 1045 948 1030 q 791 1068 841 1061 q 706 1074 741 1074 q 499 1031 609 1074 q 295 909 389 989 q 140 715 202 830 q 78 456 78 600 q 106 262 78 343 q 180 126 135 181 q 280 37 224 70 q 390 -14 335 4 q 492 -37 444 -31 q 569 -43 539 -43 q 764 -5 665 -43 q 960 97 863 33 q 1152 245 1057 161 q 1335 420 1246 330 q 1287 421 1293 420 q 1280 437 1281 422 q 1280 448 1280 444 q 1288 454 1280 452 q 1316 456 1296 456 q 1372 459 1335 457 q 1448 539 1411 500 q 1519 615 1485 578 q 1723 823 1630 737 q 1887 962 1817 909 q 2003 1039 1957 1015 q 2065 1063 2048 1063 q 2098 1046 2078 1063 q 2120 987 2119 1030 q 2082 931 2120 981 q 1984 800 2044 881 q 1850 610 1924 719 q 1702 380 1776 502 q 1647 289 1676 337 q 1595 195 1619 241 q 1556 114 1572 150 q 1541 61 1541 78 q 1565 35 1541 35 q 1622 55 1585 35 q 1694 98 1659 74 q 1780 163 1735 126 q 1791 170 1783 167 q 1801 177 1794 174 q 1811 180 1807 180 q 1817 172 1817 180 q 1812 156 1817 169 q 1783 124 1807 144 q 1748 95 1774 117 q 1688 52 1722 74 q 1618 12 1654 30 q 1554 -6 1581 -6 q 1494 25 1511 -6 q 1476 93 1476 56 q 1487 155 1476 117 q 1518 236 1498 193 q 1563 327 1537 280 q 1617 417 1589 374 q 1495 421 1556 420 q 1389 422 1435 422 q 1196 235 1296 326 q 992 74 1096 144 q 781 -39 887 4 q 569 -81 674 -81 m 1546 591 q 1486 527 1517 559 q 1424 459 1456 494 q 1527 458 1470 459 q 1637 454 1583 457 q 1723 592 1678 522 q 1813 725 1769 661 q 1897 846 1857 789 q 1970 948 1937 904 q 1814 843 1911 913 q 1613 663 1717 772 q 1595 644 1604 654 q 1580 628 1587 635 l 1581 628 q 1564 609 1572 619 q 1546 591 1556 600 z "},"B":{"ha":1724,"x_min":48,"x_max":1750,"o":"m 743 43 q 742 46 743 44 q 741 50 741 48 q 742 56 741 54 q 743 61 743 59 q 788 201 756 111 q 886 409 820 291 q 1056 671 952 528 q 1320 974 1161 815 q 1331 980 1326 980 q 1356 966 1341 980 q 1370 930 1370 952 q 1343 870 1370 904 q 1087 552 1202 707 q 989 413 1037 485 q 901 270 941 341 q 832 134 861 200 q 796 15 804 69 q 781 0 791 0 q 760 11 772 0 q 743 43 748 22 m 937 -144 q 673 -118 811 -146 q 413 -24 535 -89 q 198 144 291 41 q 72 394 106 246 q 64 605 48 502 q 125 793 80 707 q 243 937 170 878 q 406 1017 315 996 q 456 1023 420 1020 q 532 1017 493 1026 q 607 981 572 1007 q 654 902 643 956 q 655 844 659 876 q 637 783 650 813 q 604 732 624 754 q 559 706 583 711 q 530 710 541 702 q 515 730 519 719 q 523 764 511 744 q 567 798 535 783 q 580 805 569 798 q 601 823 591 811 q 618 853 611 835 q 619 893 624 870 q 581 956 609 935 q 519 982 552 976 q 455 986 485 989 q 411 981 424 983 q 262 905 328 961 q 155 769 196 848 q 100 594 113 689 q 109 402 87 498 q 217 174 139 269 q 403 19 294 80 q 639 -69 511 -41 q 898 -100 767 -98 q 1109 -77 1006 -98 q 1303 -13 1213 -56 q 1462 94 1393 30 q 1570 243 1531 157 q 1598 311 1585 276 q 1619 381 1609 343 q 1628 461 1628 420 q 1613 544 1628 504 q 1561 611 1598 583 q 1523 595 1541 602 q 1486 584 1506 589 q 1443 577 1467 580 q 1385 574 1419 574 q 1324 588 1346 574 q 1302 628 1302 602 q 1337 676 1302 661 q 1420 691 1372 691 q 1541 665 1483 691 q 1591 718 1570 689 q 1626 772 1611 746 q 1654 830 1643 802 q 1667 896 1667 863 q 1653 955 1667 931 q 1620 993 1639 978 q 1583 1015 1602 1007 q 1554 1024 1565 1022 q 1465 1035 1509 1035 q 1347 1012 1411 1035 q 1228 956 1283 989 q 1135 883 1172 922 q 1098 813 1098 844 q 1100 806 1098 807 q 1074 761 1091 776 q 1041 746 1057 746 q 1020 755 1030 746 q 1011 781 1011 763 q 1016 805 1011 793 q 1028 826 1020 817 q 1044 846 1035 837 q 1131 933 1081 893 q 1238 1005 1181 974 q 1354 1054 1294 1035 q 1470 1072 1413 1072 q 1540 1066 1493 1072 q 1633 1037 1587 1059 q 1715 974 1680 1015 q 1750 867 1750 933 q 1711 736 1750 794 q 1598 630 1672 678 q 1702 391 1702 548 q 1639 170 1702 269 q 1470 3 1576 72 q 1226 -105 1365 -67 q 937 -144 1087 -143 m 1420 611 q 1465 622 1444 615 q 1504 639 1485 630 q 1465 648 1485 643 q 1419 654 1444 654 q 1358 644 1380 654 q 1337 628 1337 633 q 1354 614 1337 619 q 1393 609 1370 609 q 1406 610 1400 609 q 1420 611 1413 611 z "},"C":{"ha":1263,"x_min":59,"x_max":1526,"o":"m 69 709 q 63 761 59 731 q 73 808 67 781 q 83 837 80 835 q 89 847 83 837 q 104 869 94 857 q 126 889 113 880 q 154 898 139 898 q 183 865 187 898 q 141 804 180 835 l 128 791 q 115 776 122 785 q 100 756 107 767 q 121 703 96 724 q 192 669 146 681 q 298 650 237 656 q 430 644 359 644 q 591 651 507 644 q 759 672 674 657 q 908 822 826 750 q 1080 949 991 894 q 1258 1037 1169 1004 q 1428 1070 1348 1070 q 1497 1055 1469 1070 q 1522 998 1526 1039 q 1483 935 1517 965 q 1215 769 1378 839 q 861 656 1052 698 q 776 548 824 611 q 684 415 728 485 q 607 272 641 344 q 569 137 574 200 q 569 53 563 94 q 597 -21 574 11 q 664 -74 620 -54 q 778 -94 707 -94 q 885 -81 831 -94 q 989 -48 939 -69 q 1104 14 1052 -24 q 1193 89 1156 52 q 1252 153 1230 126 q 1280 180 1274 180 q 1285 169 1287 180 q 1280 145 1285 159 q 1265 120 1274 131 q 1164 18 1220 63 q 1044 -61 1107 -28 q 910 -112 980 -94 q 772 -131 841 -130 q 636 -108 693 -131 q 544 -44 580 -85 q 495 52 509 -4 q 489 172 481 107 q 521 292 494 230 q 578 406 548 354 q 632 496 607 459 q 661 539 657 533 q 682 568 665 543 q 731 631 700 593 q 577 613 654 619 q 428 607 500 607 q 187 630 283 607 q 69 709 91 652 m 1319 1017 q 1196 957 1263 998 q 1064 861 1139 922 q 902 702 989 800 q 1202 802 1065 743 q 1439 944 1339 861 q 1476 981 1469 969 q 1483 996 1483 993 q 1469 1026 1487 1019 q 1426 1033 1452 1033 q 1370 1029 1400 1033 q 1320 1017 1341 1024 l 1319 1017 z "},"D":{"ha":1644,"x_min":35,"x_max":1731,"o":"m 537 43 q 537 61 533 56 q 581 201 548 111 q 679 409 613 291 q 849 671 744 528 q 1113 974 954 815 q 1133 978 1122 983 q 1149 966 1141 974 q 1162 944 1157 957 q 1161 913 1167 931 q 1135 870 1156 894 q 880 552 994 707 q 781 413 830 485 q 694 270 733 341 q 625 134 654 200 q 589 15 596 69 q 577 0 585 0 q 565 4 569 0 l 563 4 q 548 18 556 7 q 537 43 541 28 m 746 -143 q 401 -75 548 -141 q 161 113 254 -9 q 55 374 74 228 q 85 689 35 520 q 103 736 85 691 q 159 843 120 781 q 207 908 181 878 q 263 965 233 939 q 340 1019 300 996 q 424 1054 380 1041 q 452 1061 428 1056 q 510 1068 476 1067 q 583 1058 544 1069 q 654 1019 622 1048 q 701 955 681 991 q 711 876 720 919 q 682 822 706 848 q 643 778 659 796 l 641 776 q 618 757 631 767 q 589 750 604 748 q 556 785 557 754 q 606 843 556 817 q 631 863 620 852 q 650 884 641 872 q 659 911 659 896 q 655 952 661 931 q 628 991 648 972 q 569 1024 602 1017 q 506 1031 535 1031 q 456 1024 476 1030 q 435 1019 435 1019 q 284 933 344 991 q 191 822 224 876 q 158 768 170 793 q 137 722 146 743 q 120 678 128 700 q 91 381 72 519 q 191 135 109 243 q 374 -22 267 35 q 603 -98 481 -80 q 853 -96 724 -117 q 1099 -20 981 -76 q 1317 122 1217 35 q 1481 328 1417 209 q 1557 505 1531 424 q 1591 649 1583 585 q 1591 763 1598 713 q 1569 850 1583 813 q 1454 981 1533 937 l 1452 985 q 1423 1000 1437 994 q 1400 1009 1409 1006 q 1380 1017 1389 1015 q 1000 944 1189 1076 q 962 917 980 930 q 930 889 944 904 q 911 862 919 876 q 900 835 904 848 q 893 806 894 820 q 875 768 887 781 q 849 748 863 754 q 823 748 835 743 q 806 769 811 754 q 806 795 802 781 q 817 820 809 809 q 837 846 824 833 q 843 854 839 850 l 856 867 q 907 919 876 891 q 980 974 939 946 q 1159 1059 1063 1035 q 1391 1052 1278 1087 q 1421 1041 1394 1050 q 1485 1007 1448 1031 q 1565 946 1522 987 q 1639 841 1607 906 q 1606 357 1731 648 q 1459 130 1548 224 q 1259 -26 1370 35 q 1018 -115 1148 -87 q 746 -143 887 -143 z "},"E":{"ha":1193,"x_min":52,"x_max":1463,"o":"m 181 639 q 57 800 52 691 q 200 967 63 907 q 265 990 233 981 q 315 1002 296 998 q 330 1006 326 1006 l 337 1006 q 370 1006 354 1007 q 396 999 383 1004 q 417 983 409 994 q 409 935 433 956 q 333 937 385 915 q 304 944 320 941 q 272 947 289 948 q 235 941 256 946 q 143 889 187 922 q 94 798 98 856 q 125 718 93 748 q 198 672 157 687 q 273 653 239 657 q 307 648 307 648 l 309 648 q 557 639 437 631 q 791 667 678 646 q 824 785 785 722 q 945 914 872 863 q 1083 994 1019 965 q 1195 1039 1148 1026 q 1246 1052 1243 1052 q 1276 1059 1252 1054 q 1330 1066 1300 1065 q 1390 1062 1359 1067 q 1441 1041 1420 1057 q 1456 1019 1450 1033 q 1459 983 1463 1006 q 1430 928 1456 957 q 1374 878 1404 898 q 1184 762 1296 817 q 948 670 1072 707 q 909 657 928 663 q 870 648 891 652 q 874 631 874 637 q 946 650 907 641 q 1056 660 1006 663 q 1139 643 1107 657 q 1167 619 1161 633 q 1174 596 1172 606 q 1154 546 1174 570 q 1119 528 1139 533 q 1081 519 1100 522 q 1047 517 1061 517 q 1030 517 1033 517 q 1006 519 1024 517 q 961 529 987 522 q 906 546 935 535 q 852 576 876 557 q 742 493 809 548 q 600 341 674 437 q 511 178 535 252 q 497 112 500 144 q 504 50 494 80 q 538 -3 513 20 q 611 -39 563 -26 q 724 -56 665 -54 q 1087 56 922 -67 q 1157 118 1130 87 q 1198 167 1185 148 q 1206 176 1200 172 q 1224 178 1215 181 q 1228 153 1233 170 q 1209 120 1222 135 l 1209 122 q 1168 78 1193 102 q 1109 28 1143 54 q 1032 -23 1072 -2 q 950 -59 993 -44 q 720 -93 837 -98 q 712 -92 717 -93 q 702 -91 707 -91 q 450 13 519 -76 q 415 178 400 80 q 477 324 433 257 q 559 433 520 391 q 640 507 607 481 q 674 535 672 533 q 815 609 741 578 q 808 619 811 615 q 804 630 806 624 q 804 631 802 630 q 549 601 676 606 q 304 611 422 596 q 261 619 298 613 q 181 639 224 624 m 900 602 q 893 598 893 598 q 909 587 900 593 q 931 578 919 581 q 933 576 933 578 q 935 574 933 574 q 945 572 941 572 q 954 570 950 572 q 998 559 976 563 q 1035 554 1020 556 q 1081 556 1050 554 q 1128 576 1111 559 q 1137 594 1133 580 q 1120 611 1137 604 q 1036 623 1094 624 q 900 602 978 622 m 939 791 q 915 759 926 776 q 894 727 906 744 q 878 689 883 709 q 1157 790 1035 730 q 1352 906 1280 850 q 1406 957 1389 937 q 1422 987 1422 978 q 1422 1005 1426 998 q 1415 1015 1419 1011 q 1369 1028 1398 1028 q 1309 1027 1341 1031 q 1254 1017 1278 1022 q 1243 1013 1250 1015 q 1230 1010 1237 1011 q 1213 1006 1222 1009 q 1177 990 1204 1002 q 1111 953 1150 978 q 1028 888 1072 928 q 939 791 983 848 z "},"F":{"ha":1133,"x_min":65,"x_max":1989,"o":"m 220 159 q 85 294 119 204 q 67 394 65 344 q 79 486 69 444 q 101 555 89 528 q 115 583 113 581 l 115 585 q 354 794 193 720 q 691 880 487 857 q 869 892 780 889 q 1046 891 957 894 q 1270 1017 1156 969 q 1524 1085 1393 1069 q 1654 1093 1594 1094 q 1757 1084 1713 1091 q 1832 1069 1802 1078 q 1876 1056 1863 1061 q 1899 1045 1880 1054 q 1939 1022 1919 1037 q 1974 985 1959 1007 q 1983 935 1989 963 q 1974 908 1983 930 q 1928 865 1965 887 q 1607 813 1831 804 q 1513 819 1565 815 q 1402 828 1461 824 q 1370 831 1387 830 q 1337 833 1354 831 q 1284 768 1317 807 q 1211 678 1252 728 q 1125 569 1170 628 q 1033 446 1080 509 q 1044 447 1039 446 q 1054 448 1050 448 q 1090 460 1074 452 q 1117 478 1106 469 q 1139 500 1130 487 q 1173 531 1156 522 q 1205 540 1191 541 q 1227 528 1219 539 q 1233 500 1235 517 q 1223 474 1231 485 q 1204 456 1215 463 q 1174 441 1191 446 q 1169 439 1172 441 q 1154 433 1165 437 q 1106 420 1135 428 q 1039 409 1076 413 q 1022 407 1030 407 q 1006 407 1015 407 q 907 264 956 337 q 821 123 859 191 q 757 -6 783 56 q 724 -115 731 -67 q 712 -130 720 -130 q 700 -126 704 -130 q 683 -111 691 -120 q 672 -87 676 -102 q 672 -69 669 -74 q 745 120 687 -11 q 911 424 804 252 q 835 489 861 444 q 815 604 804 541 q 880 735 826 667 q 954 815 917 783 q 994 850 991 846 l 1000 856 q 846 855 922 857 q 694 843 770 852 q 146 567 281 798 q 134 539 144 563 q 115 477 124 515 q 104 394 106 439 q 119 307 102 350 q 167 239 135 267 q 194 221 180 226 q 224 215 209 217 q 256 217 241 213 q 303 217 283 222 q 331 200 322 211 q 338 176 339 189 q 324 152 337 163 q 299 142 313 143 q 270 143 285 141 q 239 150 254 144 l 220 159 m 1165 922 q 1149 910 1161 919 q 1119 887 1137 902 q 1187 883 1154 885 q 1254 878 1220 881 q 1299 927 1276 904 q 1346 974 1322 950 q 1365 978 1354 981 q 1381 966 1372 974 q 1394 944 1391 957 q 1394 913 1398 931 q 1369 870 1389 894 l 1367 869 q 1386 868 1376 869 q 1406 865 1396 867 q 1516 856 1465 861 q 1609 850 1567 852 q 1794 857 1726 844 q 1895 888 1861 870 q 1938 922 1930 906 q 1946 941 1946 939 q 1948 943 1946 941 q 1941 970 1950 957 q 1918 993 1931 983 q 1889 1009 1904 1002 q 1865 1020 1874 1017 q 1743 1050 1817 1039 q 1577 1054 1669 1061 q 1381 1016 1485 1046 q 1165 922 1276 985 m 1076 852 q 989 765 1033 815 q 919 657 944 715 q 889 572 896 611 q 888 506 881 539 q 931 457 894 472 q 1063 647 991 550 q 1224 843 1135 744 q 1150 848 1187 846 q 1076 852 1113 850 z "},"G":{"ha":1452,"x_min":33,"x_max":1461,"o":"m 1339 -606 q 1350 -637 1346 -622 q 1353 -666 1354 -652 q 1344 -691 1352 -680 q 1296 -701 1324 -717 q 1272 -628 1269 -685 q 1272 -604 1274 -617 q 1268 -580 1270 -593 q 1257 -552 1265 -567 q 1139 -396 1198 -467 q 1022 -267 1080 -326 q 928 -356 978 -317 q 578 -507 767 -487 q 506 -513 570 -509 q 354 -500 441 -517 q 178 -426 248 -478 q 48 -244 83 -357 q 39 -156 33 -202 q 67 -65 44 -109 q 215 76 113 28 q 480 111 331 133 q 531 337 480 209 q 594 477 563 420 q 630 539 626 533 q 673 608 633 546 q 787 754 713 670 q 877 846 830 804 q 972 926 924 889 q 1220 1052 1091 1011 q 1252 1058 1222 1052 q 1319 1065 1281 1065 q 1393 1052 1356 1065 q 1448 1002 1430 1039 q 1457 956 1454 991 q 1431 867 1461 920 q 1280 706 1391 789 q 1266 694 1274 700 q 1250 683 1257 687 q 1231 672 1241 676 q 1202 659 1217 665 q 1174 655 1189 656 q 1148 663 1159 654 q 1132 686 1135 672 q 1137 711 1130 700 q 1163 731 1144 722 q 1209 737 1181 739 q 1241 741 1224 737 q 1271 751 1256 744 q 1302 770 1287 757 q 1372 844 1346 809 q 1409 906 1398 878 q 1420 954 1420 933 q 1415 987 1420 974 q 1380 1019 1404 1009 q 1328 1029 1356 1028 q 1274 1025 1300 1030 q 1231 1015 1248 1020 q 1168 987 1219 1011 q 1044 906 1117 963 q 883 749 970 848 q 709 494 796 650 q 637 357 669 428 q 588 227 611 298 q 565 91 565 156 q 621 70 593 81 q 681 44 650 59 q 779 -12 730 19 q 878 -83 828 -43 q 1115 4 1006 -65 q 1183 121 1152 65 q 1239 225 1215 178 q 1279 305 1263 272 q 1300 350 1294 337 q 1307 370 1302 361 q 1376 457 1337 444 q 1422 452 1396 469 q 1422 335 1457 428 q 1402 282 1413 306 q 1389 256 1391 259 q 1379 234 1387 252 q 1353 191 1370 217 q 1309 131 1335 165 q 1248 63 1283 98 q 1236 52 1243 57 q 1224 39 1230 46 q 1157 -83 1193 -20 q 1105 -165 1131 -126 q 1048 -237 1078 -204 q 1185 -394 1117 -309 q 1322 -580 1254 -480 q 1333 -598 1326 -587 q 1339 -606 1337 -604 m 1319 287 q 1302 232 1315 272 q 1265 135 1289 193 q 1306 186 1289 161 q 1333 230 1322 211 q 1356 270 1346 250 l 1356 272 q 1365 293 1359 281 q 1374 315 1369 302 q 1385 343 1380 328 q 1397 380 1394 365 q 1402 404 1400 394 q 1402 420 1404 413 q 1393 424 1398 424 l 1389 424 q 1366 404 1378 420 q 1344 365 1354 387 q 1335 342 1341 359 q 1319 287 1330 324 m 824 -89 q 567 52 691 11 q 603 -36 572 0 q 698 -85 633 -72 q 767 -91 728 -91 q 795 -91 781 -91 q 824 -89 809 -91 m 517 -476 q 766 -393 657 -469 q 965 -207 874 -317 q 915 -163 939 -183 q 867 -122 891 -143 q 767 -128 819 -128 q 507 -13 572 -128 q 481 72 487 28 q 439 78 459 76 q 398 80 419 80 q 230 44 306 80 q 154 -9 187 22 q 101 -79 120 -41 q 77 -156 81 -117 q 83 -233 72 -196 q 361 -463 143 -419 q 446 -475 406 -472 q 517 -476 487 -478 m 1002 -157 q 1038 -110 1020 -133 q 1072 -61 1056 -87 q 1064 -65 1069 -63 q 1056 -69 1059 -67 q 915 -113 989 -100 q 951 -144 933 -128 q 987 -178 969 -161 q 1002 -157 996 -169 z "},"H":{"ha":2007,"x_min":37,"x_max":2350,"o":"m 296 -11 q 119 148 183 46 q 37 448 37 272 q 89 717 37 600 q 145 817 111 770 q 222 904 180 863 q 356 994 280 956 q 519 1052 433 1031 q 694 1073 604 1072 q 867 1053 783 1074 q 1021 984 950 1031 q 1143 861 1093 937 q 1177 792 1161 831 q 1199 701 1193 752 q 1198 588 1206 650 q 1163 452 1191 526 q 1156 433 1163 448 l 1156 430 q 1154 426 1154 430 q 1136 402 1146 413 q 1111 387 1126 391 q 1086 392 1096 383 q 1073 414 1076 400 q 1077 445 1070 428 q 1100 480 1083 463 q 1122 500 1113 489 q 1140 522 1131 509 q 1154 550 1148 535 q 1162 706 1172 633 q 1111 841 1152 780 q 935 990 1046 943 q 699 1037 824 1037 q 453 995 574 1037 q 246 876 331 954 q 74 448 70 715 q 191 115 76 246 q 519 -41 306 -17 q 755 -19 643 -56 q 964 80 867 17 q 1144 223 1061 143 q 1298 381 1228 304 q 1405 505 1352 443 q 1504 626 1457 567 q 1500 822 1472 706 q 1626 1048 1543 998 q 1674 1065 1654 1065 q 1698 1065 1694 1065 q 1756 1019 1741 1056 q 1670 739 1787 941 q 1619 654 1644 693 q 1574 589 1593 615 q 1684 543 1619 550 q 1807 539 1750 535 q 1924 544 1876 544 q 2036 715 1980 631 q 2142 867 2093 798 q 2228 985 2191 935 q 2280 1056 2265 1035 q 2288 1063 2283 1059 q 2302 1063 2293 1067 q 2331 1042 2315 1059 q 2350 987 2346 1024 q 2343 967 2350 980 q 2299 910 2330 950 q 2226 813 2269 870 q 2132 684 2183 756 q 2030 535 2081 613 q 2054 524 2048 528 q 2094 489 2081 511 q 2107 469 2102 480 q 2111 446 2113 457 q 2099 421 2109 430 q 2075 414 2089 413 q 2046 428 2061 415 q 2019 467 2031 441 l 2015 474 q 2002 491 2013 476 q 1966 435 1983 463 q 1931 380 1948 407 q 1895 319 1915 352 q 1857 254 1876 287 q 1822 189 1839 220 q 1794 133 1806 157 l 1789 122 q 1770 65 1774 89 q 1787 37 1767 41 q 1842 50 1806 31 q 1915 94 1878 69 q 2007 163 1957 124 q 2028 176 2019 170 q 2042 179 2035 180 q 2044 169 2048 178 q 2037 154 2043 161 q 2011 124 2028 139 q 1975 94 2002 117 q 1913 49 1948 72 q 1842 9 1878 26 q 1778 -6 1806 -7 q 1736 11 1752 -4 q 1713 47 1720 26 q 1706 94 1706 69 q 1713 143 1707 119 q 1760 262 1724 193 q 1833 396 1796 331 q 1900 507 1863 452 q 1858 506 1880 506 q 1811 502 1837 506 q 1745 501 1780 500 q 1677 507 1711 502 q 1611 525 1643 513 q 1554 559 1580 537 q 1552 556 1552 557 q 1310 259 1430 381 q 1065 57 1191 137 q 813 -57 941 -20 q 609 -83 709 -83 q 580 -83 594 -83 q 550 -81 565 -83 q 523 -80 546 -81 q 465 -70 500 -78 q 386 -49 430 -63 q 296 -11 343 -35 m 1537 813 q 1531 661 1515 722 q 1648 826 1602 750 q 1704 950 1694 902 q 1706 986 1707 969 q 1695 1015 1704 1004 q 1672 1027 1687 1026 q 1637 1011 1657 1028 q 1587 951 1615 994 q 1537 813 1559 907 z "},"I":{"ha":870,"x_min":54,"x_max":1039,"o":"m 1017 943 q 1030 825 1039 885 q 1007 728 1020 765 q 1002 719 1006 724 q 996 707 998 715 q 991 693 994 700 q 989 687 989 689 q 987 681 989 685 q 888 503 946 606 q 762 295 830 400 q 623 98 694 191 q 485 -46 552 6 q 400 -81 446 -76 q 365 -80 380 -83 q 339 -70 350 -76 q 326 -65 333 -69 l 322 -63 q 317 -59 320 -63 l 315 -57 q 304 -48 311 -56 q 276 0 283 -28 q 274 57 269 28 q 303 134 281 106 q 326 165 324 163 l 328 165 q 356 186 339 174 q 394 193 374 198 q 419 178 411 189 q 424 153 426 167 q 409 125 422 139 q 370 104 396 111 q 343 91 356 98 q 322 72 331 83 q 311 46 313 61 q 330 -22 302 2 q 343 -33 333 -26 q 415 -6 372 -41 q 506 87 457 28 q 608 224 556 146 q 710 381 661 302 q 801 531 759 459 q 870 654 843 604 q 915 737 898 704 q 941 791 931 770 q 956 828 950 813 q 958 922 972 883 q 919 985 944 961 q 881 1009 902 1000 q 843 1026 861 1019 q 741 1015 796 1028 q 544 917 654 991 q 377 781 459 859 q 226 615 294 702 q 172 542 196 578 q 133 474 148 506 q 130 446 130 459 q 131 422 130 433 q 135 398 133 409 q 132 356 139 374 q 115 330 126 339 q 91 321 104 320 q 67 337 78 322 q 56 363 57 348 q 57 393 54 378 q 67 426 59 409 l 74 437 q 196 639 106 522 q 349 808 265 728 q 522 948 433 889 q 612 1003 563 976 q 714 1046 661 1030 q 819 1064 767 1063 q 919 1043 870 1065 q 1017 943 993 1007 z "},"J":{"ha":1520,"x_min":-56,"x_max":1813,"o":"m 1806 1019 q 1811 1000 1809 1009 q 1813 980 1813 991 q 1720 739 1813 898 q 1663 648 1700 704 q 1590 540 1626 593 q 1526 448 1554 487 q 1496 407 1498 409 q 1251 109 1367 231 q 1022 -89 1135 -13 q 794 -198 909 -165 q 554 -231 680 -231 q 343 -201 450 -231 q 146 -106 235 -170 q 1 53 57 -43 q -56 280 -56 148 q -1 556 -56 435 q 146 759 54 676 q 361 885 239 843 q 620 928 483 928 q 797 906 704 928 q 969 835 891 885 q 1097 703 1046 785 q 1148 500 1148 620 q 1144 436 1148 480 q 1130 348 1141 393 q 1099 270 1119 304 q 1048 237 1080 237 q 1025 248 1033 237 q 1017 274 1017 259 q 1046 331 1017 304 q 1069 354 1059 343 q 1086 376 1078 363 q 1100 404 1094 389 q 1111 502 1111 454 q 1084 646 1111 585 q 1014 750 1057 707 q 916 820 970 793 q 806 864 861 848 q 702 885 752 880 q 617 891 652 891 q 415 862 524 891 q 210 764 306 833 q 50 578 115 694 q -19 287 -15 461 q 19 93 -19 172 q 115 -41 57 13 q 240 -125 172 -94 q 367 -170 307 -156 q 468 -189 426 -185 q 515 -193 509 -193 q 734 -154 631 -193 q 929 -53 837 -115 q 1098 85 1020 9 q 1243 233 1176 161 q 1419 444 1328 330 q 1586 667 1511 559 q 1709 860 1661 774 q 1757 985 1757 946 q 1744 1022 1757 1017 q 1726 1028 1730 1028 q 1710 1023 1726 1028 q 1676 1003 1694 1019 q 1642 957 1657 987 q 1626 880 1626 928 q 1626 847 1626 856 q 1627 837 1626 839 q 1628 835 1628 835 q 1628 828 1628 835 q 1615 780 1628 796 q 1587 763 1602 763 q 1561 777 1572 763 q 1550 809 1550 791 q 1554 839 1550 824 q 1561 861 1557 854 q 1637 1013 1591 961 q 1737 1065 1683 1065 q 1806 1019 1787 1065 z "},"K":{"ha":1663,"x_min":37,"x_max":2035,"o":"m 89 -6 q 58 19 78 2 q 37 56 39 35 q 45 81 37 72 q 68 92 54 91 q 99 83 81 93 q 131 50 117 74 q 156 17 143 31 q 181 -10 167 2 q 211 -30 196 -22 q 326 -68 270 -56 q 415 -83 381 -80 q 653 -53 543 -94 q 857 58 763 -11 q 1031 214 952 128 q 1172 378 1109 300 q 1188 396 1181 387 q 1204 415 1194 406 q 1165 410 1183 411 q 1126 406 1146 409 q 1106 406 1122 406 q 1068 408 1089 406 q 1025 419 1046 411 q 991 441 1004 426 q 974 489 970 461 q 986 513 976 500 q 1026 533 996 526 q 1119 537 1063 543 q 1235 511 1176 531 q 1251 505 1243 507 q 1269 498 1259 502 q 1366 631 1320 567 q 1446 755 1411 696 q 1503 862 1481 813 q 1528 944 1524 911 q 1522 1006 1533 993 q 1502 1022 1511 1020 l 1493 1022 l 1491 1022 l 1493 1022 q 1419 1020 1469 1022 q 1306 1013 1370 1019 q 1164 996 1241 1007 q 1009 967 1087 985 q 522 644 613 869 l 530 654 q 522 618 522 637 q 524 581 522 598 q 531 541 526 561 q 532 494 537 513 q 518 465 528 474 q 494 456 507 456 q 470 469 481 457 q 457 501 459 481 q 459 535 456 520 q 641 846 474 724 q 797 936 707 896 q 1000 1002 887 976 q 1188 1038 1096 1026 q 1351 1055 1280 1050 q 1467 1059 1422 1059 q 1511 1059 1511 1059 l 1515 1059 q 1576 1011 1559 1052 q 1511 731 1611 930 q 1477 665 1494 696 q 1445 609 1459 633 q 1421 569 1431 585 q 1411 552 1411 554 q 1393 523 1402 537 q 1374 494 1383 509 q 1542 565 1463 524 q 1686 651 1620 606 q 1806 743 1752 696 q 1900 830 1859 789 q 1918 857 1909 843 q 1931 887 1926 872 q 1941 920 1939 904 q 1961 962 1948 948 q 1988 980 1974 976 q 2013 977 2002 983 q 2030 956 2024 970 q 2023 915 2035 935 q 2002 883 2011 894 l 2000 881 q 1997 878 1998 880 q 1993 872 1996 876 q 1978 856 1989 867 q 1856 735 1930 802 q 1685 604 1783 669 q 1526 515 1607 552 q 1361 452 1444 478 q 1404 419 1383 437 q 1441 376 1424 400 q 1504 234 1489 307 q 1528 94 1519 161 q 1544 -9 1535 35 q 1585 -80 1554 -54 q 1606 -89 1593 -85 q 1639 -87 1619 -93 q 1654 -82 1646 -85 q 1665 -78 1661 -80 q 1674 -74 1670 -76 q 1719 -65 1700 -63 q 1750 -76 1739 -67 q 1762 -98 1761 -85 q 1754 -124 1763 -111 q 1720 -143 1743 -139 q 1683 -144 1698 -146 l 1681 -144 q 1531 -76 1576 -144 q 1504 -1 1511 -43 q 1491 91 1496 41 q 1468 223 1481 156 q 1409 356 1454 291 q 1375 394 1394 376 q 1330 428 1356 413 q 963 33 1152 172 q 717 -93 843 -54 q 506 -126 613 -126 q 479 -126 491 -126 q 454 -124 467 -126 q 417 -121 448 -124 q 337 -108 385 -119 q 231 -78 289 -98 q 117 -22 174 -57 q 102 -14 109 -19 q 89 -6 94 -9 m 1124 443 q 1237 459 1185 448 q 1244 469 1243 465 q 1235 472 1241 470 q 1224 476 1230 474 q 1078 502 1143 502 q 1033 496 1052 502 q 1011 483 1011 491 q 1017 465 1011 472 q 1066 445 1031 450 q 1124 443 1100 441 z "},"L":{"ha":1239,"x_min":31,"x_max":2681,"o":"m 31 65 q 39 92 31 76 q 67 120 46 107 q 165 147 102 141 q 309 143 228 154 q 617 57 463 122 q 644 44 620 54 q 878 206 772 109 q 1070 396 983 302 q 1214 563 1144 480 q 1339 722 1283 646 q 1431 860 1394 798 q 1476 965 1467 922 q 1479 1010 1481 994 q 1470 1033 1476 1026 q 1457 1042 1465 1041 q 1446 1043 1450 1043 q 1409 1026 1431 1041 q 1375 989 1394 1013 q 1337 920 1356 965 q 1331 885 1331 904 q 1331 850 1330 867 q 1337 811 1333 830 q 1337 764 1343 783 q 1321 735 1331 744 q 1298 728 1311 726 q 1274 741 1285 730 q 1261 775 1261 754 q 1265 811 1261 796 q 1269 828 1267 817 q 1274 846 1272 839 q 1398 1063 1315 1011 q 1446 1080 1426 1080 q 1470 1078 1467 1080 q 1528 1033 1515 1069 q 1443 752 1557 954 q 1401 684 1422 717 q 1363 627 1380 652 q 1335 587 1346 602 q 1324 570 1324 572 q 1082 274 1202 396 q 837 72 963 152 q 785 42 811 56 q 733 13 759 28 q 1009 -69 837 -22 q 1400 -150 1181 -115 q 1833 -199 1622 -187 q 2263 -187 2044 -211 q 2504 -131 2394 -169 q 2535 -113 2520 -124 q 2561 -91 2550 -102 q 2585 -65 2574 -78 q 2622 -35 2604 -43 q 2655 -31 2641 -28 q 2675 -44 2669 -33 q 2680 -72 2681 -56 q 2656 -106 2676 -93 q 2622 -126 2635 -120 q 2591 -139 2611 -130 q 2372 -206 2491 -180 q 2113 -241 2254 -231 q 2021 -246 2069 -244 q 1926 -248 1974 -248 q 1740 -243 1835 -248 q 1543 -224 1644 -237 q 1270 -183 1400 -207 q 1030 -131 1141 -159 q 828 -71 919 -102 q 674 -13 737 -41 q 630 -29 652 -22 q 583 -43 607 -35 q 454 -66 519 -59 q 320 -67 389 -72 q 276 -62 319 -67 q 181 -44 233 -57 q 31 65 31 -7 m 87 89 q 70 74 72 80 q 69 65 69 69 q 100 25 69 44 q 191 -9 131 6 q 255 -22 224 -19 q 304 -28 285 -26 q 456 -19 383 -33 q 598 24 530 -6 q 391 93 491 72 q 213 113 291 113 q 87 89 126 113 z "},"M":{"ha":2139,"x_min":33,"x_max":2472,"o":"m 33 481 q 77 719 37 606 q 192 920 117 831 q 378 1067 267 1009 q 637 1133 489 1124 q 814 1122 720 1139 q 988 1061 907 1106 q 1124 938 1069 1017 q 1187 741 1180 859 q 1186 675 1189 719 q 1175 587 1183 631 q 1149 508 1167 543 q 1104 472 1131 474 q 1081 481 1089 470 q 1070 507 1072 493 q 1096 565 1067 535 q 1103 571 1096 565 q 1118 588 1109 578 q 1133 611 1126 598 q 1144 639 1141 624 q 1151 688 1150 663 q 1150 737 1152 713 q 1115 878 1144 819 q 1041 978 1085 937 q 942 1043 996 1019 q 832 1080 887 1067 q 728 1095 778 1093 q 643 1096 678 1098 q 456 1059 554 1091 q 277 956 359 1028 q 137 769 194 885 q 69 480 80 654 q 85 303 63 381 q 149 164 107 224 q 246 62 191 104 q 362 -5 302 20 q 481 -39 422 -30 q 589 -44 541 -48 q 807 -6 704 -44 q 1002 95 911 33 q 1170 233 1093 157 q 1315 381 1248 309 q 1444 529 1381 456 q 1557 672 1506 602 q 1622 972 1578 880 q 1713 1065 1667 1065 q 1762 1038 1744 1065 q 1780 981 1780 1011 q 1763 906 1780 954 q 1719 805 1746 859 q 1657 694 1691 750 q 1591 587 1624 637 q 1593 446 1591 522 q 1604 281 1594 370 q 1706 409 1643 331 q 1845 575 1770 487 q 2001 752 1920 663 q 2155 912 2081 841 q 2289 1029 2228 983 q 2387 1074 2350 1074 l 2400 1074 q 2413 1073 2402 1074 q 2437 1064 2424 1072 q 2461 1038 2450 1056 q 2472 987 2472 1020 q 2434 933 2472 983 q 2337 801 2396 883 q 2204 610 2278 719 q 2056 380 2130 502 q 2001 289 2030 337 q 1949 196 1972 241 q 1910 116 1926 152 q 1894 61 1894 80 q 1917 35 1894 35 q 1974 55 1937 35 q 2046 98 2011 74 q 2131 163 2087 126 q 2143 170 2135 167 q 2153 177 2146 174 q 2163 180 2159 180 q 2169 172 2169 180 q 2164 156 2169 169 q 2135 124 2159 144 q 2100 95 2126 117 q 2040 52 2074 74 q 1969 12 2006 30 q 1906 -6 1933 -6 q 1846 26 1863 -6 q 1830 96 1830 57 q 1865 227 1830 146 q 1954 401 1900 307 q 2073 594 2007 494 q 2202 782 2139 694 q 2315 938 2265 870 q 2389 1037 2365 1006 q 2365 1030 2380 1037 q 2326 1005 2350 1022 q 2269 955 2302 987 q 2193 872 2237 922 q 2081 738 2141 813 q 1962 583 2022 663 q 1844 428 1902 504 q 1739 292 1787 352 q 1656 195 1691 231 q 1606 159 1620 159 q 1547 186 1559 159 q 1535 244 1535 213 q 1538 393 1535 322 q 1544 522 1541 463 q 607 -83 1102 -87 q 356 -42 463 -83 q 177 74 248 0 q 69 252 106 148 q 33 481 33 356 m 1606 761 q 1604 754 1604 759 q 1603 744 1604 750 q 1602 731 1602 739 q 1724 985 1724 904 q 1719 1014 1724 1006 q 1706 1026 1713 1022 q 1685 1012 1698 1022 q 1658 973 1672 1002 q 1630 894 1644 944 q 1606 761 1615 843 z "},"N":{"ha":1461,"x_min":26,"x_max":1804,"o":"m 76 715 q 57 907 26 798 q 256 1080 100 1054 q 306 1084 281 1083 q 350 1085 330 1085 q 364 1083 356 1083 q 381 1081 372 1083 q 412 1074 396 1080 q 437 1054 428 1069 q 441 1027 444 1039 q 424 1008 437 1015 q 392 1003 411 1002 q 352 1015 372 1004 q 324 1031 339 1024 q 294 1042 311 1037 q 263 1044 278 1046 l 261 1044 q 94 898 128 1022 q 107 733 67 806 q 147 684 124 704 q 193 652 170 665 q 246 630 219 637 q 528 683 376 594 q 663 781 596 724 q 789 891 730 837 q 875 968 833 931 q 955 1031 917 1004 q 1029 1070 993 1057 q 1098 1078 1065 1083 q 1183 1015 1163 1067 q 1130 791 1213 937 q 1074 700 1100 737 q 1046 661 1048 663 q 1044 659 1046 659 q 944 523 996 596 q 848 380 891 450 q 812 319 831 352 q 773 254 793 287 q 737 189 754 220 q 709 133 720 157 l 704 122 q 688 75 693 96 q 691 44 683 54 q 714 69 700 52 q 750 117 728 85 q 811 208 778 156 q 883 322 844 261 q 1039 568 954 437 q 1217 813 1124 698 q 1598 1106 1433 1081 q 1757 1065 1683 1119 q 1765 1061 1761 1065 l 1776 1050 l 1778 1050 l 1781 1046 q 1804 987 1802 1024 q 1796 967 1804 980 q 1738 890 1781 946 q 1637 754 1694 833 q 1513 578 1580 674 q 1385 380 1446 481 q 1349 319 1369 352 q 1311 254 1330 287 q 1276 189 1293 220 q 1248 133 1259 157 l 1243 122 q 1224 65 1228 89 q 1241 37 1220 41 q 1295 50 1259 31 q 1369 94 1331 69 q 1461 163 1411 124 q 1481 176 1472 170 q 1495 179 1489 180 q 1498 169 1502 178 q 1491 154 1496 161 q 1465 124 1481 139 q 1429 94 1456 117 q 1367 49 1402 72 q 1295 9 1331 26 q 1231 -6 1259 -7 q 1190 11 1206 -4 q 1167 47 1174 26 q 1160 94 1159 69 q 1167 143 1161 119 q 1214 262 1178 193 q 1287 396 1250 331 q 1410 596 1344 494 q 1538 787 1476 698 q 1650 944 1600 876 q 1724 1044 1700 1011 q 1604 1069 1667 1080 q 1428 980 1522 1057 q 1246 789 1346 915 q 1070 546 1156 676 q 915 304 985 417 q 840 184 874 239 q 776 89 806 130 q 758 64 767 74 q 741 44 750 54 q 746 46 744 44 l 735 35 q 678 -2 700 -2 l 674 -2 q 670 0 672 0 l 667 0 q 664 2 665 2 q 661 4 663 2 q 625 62 631 20 q 628 143 619 104 q 675 262 639 193 q 748 396 711 331 q 860 570 798 483 q 985 739 922 657 q 1065 850 1031 796 q 1109 943 1093 896 q 1106 1017 1126 989 q 1087 1031 1098 1026 q 1062 1037 1078 1035 q 1026 1030 1046 1039 q 926 963 980 1009 q 813 863 872 917 q 685 752 754 809 q 546 652 617 694 q 324 581 426 581 q 237 594 276 581 q 216 601 233 594 q 173 621 198 607 q 121 658 148 635 q 76 715 94 681 z "},"O":{"ha":1504,"x_min":78,"x_max":1570,"o":"m 1474 372 q 1409 267 1439 307 q 1376 222 1380 226 q 1283 114 1343 172 q 1152 6 1224 56 q 998 -77 1080 -43 q 839 -113 917 -111 l 824 -113 q 717 -103 763 -115 q 637 -70 670 -91 q 581 -23 604 -50 q 544 30 557 4 q 511 224 502 115 q 560 444 520 333 q 661 651 600 554 q 783 811 722 748 q 769 811 776 811 q 754 813 761 811 q 719 812 750 813 q 643 806 689 811 q 538 790 596 800 q 419 763 480 780 q 301 719 357 746 q 200 656 244 693 q 178 613 185 637 q 172 591 174 602 q 158 544 169 563 q 135 516 148 524 q 109 510 122 507 q 89 526 96 513 q 89 567 78 546 q 91 574 89 572 l 91 576 q 96 588 94 581 q 102 598 98 594 q 107 609 106 604 q 111 615 109 611 q 115 620 113 619 q 120 626 117 622 q 128 635 126 631 q 131 641 130 639 l 131 639 q 135 643 135 643 q 252 733 180 691 q 353 779 296 759 q 474 815 409 798 q 580 833 530 826 q 669 844 630 841 q 731 849 707 848 q 757 850 756 850 l 759 850 q 790 848 774 848 q 824 848 806 848 q 1011 985 915 930 q 1285 1091 1146 1065 q 1308 1094 1289 1091 q 1352 1096 1328 1096 q 1400 1091 1376 1096 q 1441 1070 1424 1085 q 1455 1044 1450 1059 q 1454 1009 1459 1030 q 1387 924 1448 969 q 1319 891 1356 906 q 1235 861 1283 876 q 889 813 1085 819 q 802 710 844 772 q 722 576 759 648 q 656 426 685 504 q 612 276 628 348 q 595 142 596 204 q 615 39 594 80 q 685 -46 633 -17 q 841 -72 737 -76 q 994 -33 917 -70 q 1142 59 1070 4 q 1274 182 1213 115 q 1380 317 1335 250 q 1481 499 1450 422 q 1522 626 1513 576 q 1522 726 1531 685 q 1378 817 1498 813 l 1376 817 l 1365 817 q 1335 812 1357 817 q 1278 790 1313 807 q 1198 735 1243 772 q 1104 635 1154 698 q 1059 572 1081 607 q 1015 497 1039 541 q 969 398 991 454 q 946 318 948 348 q 953 270 944 287 q 974 247 961 254 q 996 239 987 241 q 1079 254 1041 233 q 1143 298 1117 274 q 1204 369 1176 330 q 1248 452 1231 409 q 1250 481 1252 467 q 1244 506 1248 494 q 1233 530 1239 519 q 1217 569 1219 550 q 1222 600 1215 587 q 1242 619 1230 613 q 1269 622 1254 626 q 1288 608 1281 619 q 1298 585 1294 598 q 1304 554 1302 570 l 1304 543 q 1304 532 1304 539 q 1302 520 1304 526 q 1296 489 1302 507 q 1285 444 1293 469 q 1234 352 1265 396 q 1167 272 1204 307 q 978 204 1076 187 q 889 269 911 215 q 879 347 874 304 q 895 430 883 391 q 919 495 907 469 q 933 526 931 522 q 1001 636 965 585 q 1080 726 1037 687 q 1226 822 1144 789 q 1334 852 1291 850 q 1385 854 1378 854 q 1528 796 1483 850 q 1569 680 1565 756 q 1547 538 1570 615 q 1474 372 1524 461 m 1115 993 q 930 850 1046 956 q 1089 867 1013 856 q 1230 898 1165 878 q 1363 951 1313 920 q 1417 1011 1413 981 q 1409 1043 1424 1031 q 1385 1056 1400 1052 q 1354 1059 1370 1059 q 1317 1058 1335 1061 q 1287 1054 1298 1056 q 1253 1046 1269 1050 q 1220 1039 1237 1043 q 1174 1021 1202 1031 q 1115 993 1146 1011 z "},"P":{"ha":1100,"x_min":35,"x_max":1250,"o":"m 483 811 q 496 826 489 819 q 526 850 509 839 q 578 897 550 872 q 639 948 606 922 q 839 1048 739 1020 q 1078 1039 961 1081 q 1093 1032 1080 1039 q 1124 1012 1106 1026 q 1162 977 1143 998 q 1196 922 1181 956 q 1176 617 1250 798 q 1148 556 1167 591 q 1100 481 1130 520 q 1028 399 1070 441 q 930 322 985 357 q 707 235 828 259 q 632 224 670 228 q 554 220 594 220 q 419 231 487 220 l 417 231 q 370 243 409 231 q 309 118 333 178 q 276 6 285 57 q 263 -10 272 -11 q 250 -7 254 -9 l 250 -6 q 222 33 230 4 l 222 52 q 249 141 231 87 q 298 265 267 194 q 219 298 261 280 q 137 343 176 317 q 119 351 128 346 q 104 359 111 356 q 87 370 96 365 q 61 389 72 380 q 44 409 52 398 q 35 435 35 420 q 45 460 35 452 q 69 468 56 469 q 100 456 83 467 q 128 424 117 446 q 144 396 135 409 q 166 373 154 385 q 193 354 178 361 l 191 354 q 254 322 222 335 q 315 298 285 309 q 491 599 376 430 q 800 965 606 769 q 819 969 809 974 q 835 956 826 965 q 849 935 844 948 q 848 904 854 922 q 822 861 843 885 q 667 672 744 770 q 524 485 600 589 q 389 276 448 381 q 424 269 417 269 q 628 261 531 252 q 824 331 741 274 q 963 452 907 387 q 1072 617 1028 526 q 1127 794 1119 722 q 1124 909 1135 865 q 1091 977 1113 954 q 1050 1009 1069 1000 q 661 919 869 1067 q 614 880 635 898 q 572 843 593 861 q 554 818 561 831 q 543 793 546 804 q 535 767 537 780 q 488 712 520 720 q 446 735 456 704 q 447 762 443 748 q 461 787 452 776 q 483 811 469 800 z "},"Q":{"ha":1350,"x_min":52,"x_max":1411,"o":"m 856 780 q 777 689 819 739 q 691 578 735 639 q 587 413 633 496 q 516 258 548 343 q 485 98 483 174 q 504 26 489 57 q 685 -93 548 -70 q 657 72 657 -20 q 665 161 657 115 q 685 257 672 207 q 732 396 707 341 q 757 456 757 452 q 911 674 826 589 q 1061 781 980 743 q 1175 816 1131 813 q 1222 819 1219 819 q 1363 750 1315 809 q 1394 694 1383 726 q 1407 626 1404 663 q 1390 484 1411 561 q 1320 319 1369 407 q 1259 214 1287 256 q 1228 169 1231 172 q 1184 112 1222 161 q 1078 7 1146 63 q 909 -98 998 -61 q 750 -133 833 -130 l 752 -135 q 755 -139 754 -137 q 759 -143 756 -141 q 874 -123 815 -130 q 986 -119 933 -117 q 1081 -131 1039 -120 q 1143 -163 1122 -141 q 1154 -228 1165 -189 q 1131 -264 1146 -250 q 1095 -284 1115 -278 q 1056 -294 1076 -291 q 1019 -296 1035 -296 q 994 -295 1004 -296 q 981 -294 983 -294 q 743 -185 824 -272 q 593 -210 670 -202 q 444 -216 515 -219 q 316 -196 374 -213 q 224 -146 257 -180 q 196 -28 180 -98 q 204 -8 198 -24 q 224 28 209 7 q 260 60 237 44 q 322 80 283 76 q 356 81 337 83 q 383 67 374 80 q 394 41 393 56 q 386 15 394 26 q 360 -2 378 4 q 317 0 343 -7 q 287 6 302 4 q 262 4 274 7 q 243 -9 250 0 q 238 -19 239 -15 q 235 -26 237 -22 q 233 -33 233 -30 l 231 -33 q 252 -119 219 -85 q 330 -159 278 -144 q 452 -178 381 -174 q 580 -175 513 -181 q 717 -154 646 -169 q 710 -143 713 -148 q 704 -131 707 -137 l 694 -131 q 469 7 524 -111 q 447 85 454 43 q 446 180 441 128 q 460 264 450 220 q 485 356 470 307 q 542 494 513 439 q 570 552 570 548 l 572 552 q 585 572 574 554 q 619 620 596 591 q 672 689 641 650 q 744 770 704 728 q 728 769 735 770 q 711 769 720 769 q 681 766 709 769 q 606 756 652 763 q 501 737 559 750 q 382 704 443 724 q 266 655 322 683 q 167 587 209 626 l 178 591 q 156 568 163 581 q 144 539 148 554 q 139 506 139 522 q 128 459 137 478 q 106 432 119 441 q 80 425 93 424 q 59 439 67 426 q 54 463 52 448 q 59 493 56 478 q 74 524 65 509 q 76 528 74 526 q 83 539 76 528 q 137 606 104 576 q 213 665 170 637 q 430 756 300 719 q 535 781 485 770 q 624 796 585 791 q 686 804 663 802 q 711 806 709 806 q 783 811 750 807 q 954 946 870 893 q 1086 1019 1019 989 q 1220 1063 1154 1048 q 1244 1069 1226 1065 q 1287 1073 1263 1072 q 1335 1069 1311 1074 q 1376 1050 1359 1065 q 1396 989 1402 1028 q 1333 904 1391 943 q 1191 843 1280 869 q 1038 806 1122 822 q 856 780 954 789 m 1056 959 q 987 906 1028 939 q 894 820 946 874 q 1235 894 1117 846 q 1359 989 1354 943 q 1350 1020 1361 1009 q 1325 1032 1341 1030 q 1293 1035 1309 1035 q 1254 1032 1272 1035 q 1226 1026 1235 1030 q 1161 1009 1196 1020 q 1116 992 1144 1004 q 1056 959 1087 980 m 976 -156 q 883 -159 931 -154 q 787 -174 835 -165 q 989 -257 863 -241 q 1007 -259 989 -257 q 1049 -259 1026 -261 q 1094 -249 1072 -257 q 1120 -220 1115 -241 q 1113 -191 1124 -200 q 976 -156 1083 -159 m 846 426 q 774 230 798 315 q 742 81 750 144 q 735 -25 733 19 q 743 -96 737 -69 q 759 -96 752 -96 q 776 -94 767 -96 l 769 -94 q 837 -81 791 -93 q 944 -31 883 -69 q 1078 76 1006 6 q 1226 263 1150 146 q 1322 446 1294 369 q 1359 576 1350 524 q 1357 676 1367 637 l 1357 674 q 1315 743 1346 711 q 1215 781 1283 774 l 1196 781 q 1174 778 1187 780 q 1146 772 1161 776 q 1093 749 1126 767 q 1019 694 1059 731 q 933 591 978 656 q 846 426 889 526 z "},"R":{"ha":869,"x_min":35,"x_max":1124,"o":"m 1011 -70 q 1006 -93 1011 -83 q 993 -111 1000 -102 q 933 -144 967 -133 q 885 -159 900 -156 q 756 -170 820 -170 l 741 -170 q 437 -44 554 -167 q 382 28 406 -11 q 344 106 359 67 q 318 182 328 144 q 302 252 307 220 q 300 261 300 256 l 293 261 q 259 269 287 261 q 189 129 217 196 q 152 6 161 61 q 139 -10 148 -11 q 126 -7 130 -9 l 126 -6 q 98 33 106 4 q 97 44 96 39 q 98 52 98 48 q 129 152 107 91 q 189 296 150 213 q 146 322 169 307 q 107 341 126 328 q 87 356 98 348 q 61 376 72 365 q 44 396 52 385 q 37 422 35 407 q 48 446 37 439 q 73 453 59 454 q 103 441 87 452 q 130 409 119 430 q 141 389 133 398 q 154 369 146 380 q 172 348 161 357 q 189 338 181 343 q 204 330 196 333 q 381 619 269 457 q 676 965 493 780 q 694 969 685 974 q 711 956 702 965 q 724 935 720 948 q 723 904 728 922 q 698 861 719 885 q 585 726 644 798 q 475 586 535 665 q 356 420 415 507 l 354 365 l 354 344 q 355 321 354 335 q 357 291 356 307 q 446 289 404 287 q 528 294 489 291 q 713 367 635 311 q 844 481 791 422 q 948 633 906 552 q 1006 839 1006 763 q 983 954 1007 915 q 900 1013 956 1000 l 904 1015 q 563 922 733 1057 q 506 870 531 896 q 459 820 480 844 q 437 774 443 796 q 431 750 433 763 q 413 712 426 726 q 386 693 400 698 q 360 693 372 687 q 344 713 348 698 q 344 740 341 726 q 356 765 348 754 q 376 791 363 778 l 393 807 q 407 822 400 815 q 424 835 415 830 q 474 891 444 861 q 541 952 504 920 q 722 1048 630 1024 q 954 1039 841 1080 q 969 1032 956 1039 q 1000 1013 981 1026 q 1038 978 1019 1000 q 1072 924 1057 956 q 1052 631 1124 807 q 1022 573 1041 607 q 974 501 1004 539 q 903 423 944 463 q 806 350 861 383 q 583 267 707 289 q 508 255 546 257 q 430 252 470 252 q 396 252 413 252 q 363 254 380 252 q 393 142 372 204 q 450 23 413 80 q 546 -76 487 -33 q 693 -130 606 -119 q 718 -132 706 -131 q 743 -133 730 -133 q 848 -128 794 -133 q 877 -117 865 -124 q 898 -100 889 -109 q 917 -80 907 -91 q 948 -45 931 -56 q 979 -35 965 -35 q 1002 -44 993 -35 q 1011 -70 1011 -54 m 280 302 q 287 300 283 300 q 294 298 291 300 q 293 311 293 306 q 291 322 293 317 q 285 312 287 317 q 280 302 283 307 z "},"S":{"ha":1433,"x_min":93,"x_max":1593,"o":"m 656 1080 q 411 1035 519 1080 q 211 883 304 991 l 213 883 q 191 852 198 869 q 180 820 183 835 q 174 789 174 804 q 160 727 174 748 q 126 706 146 706 q 103 717 113 706 q 93 744 93 728 q 100 794 93 772 q 119 834 107 817 q 140 864 130 852 q 156 883 150 876 q 375 1058 252 1000 q 641 1117 498 1117 q 789 1103 715 1117 q 935 1067 863 1089 q 1074 1017 1007 1044 q 1202 963 1141 989 l 1207 969 l 1209 970 q 1324 1048 1259 1019 q 1448 1078 1389 1078 q 1481 1075 1457 1078 q 1529 1062 1504 1072 q 1573 1032 1554 1052 q 1593 980 1593 1013 q 1587 945 1593 969 q 1566 899 1581 922 q 1522 857 1550 876 q 1450 839 1494 839 q 1350 860 1407 839 q 1224 911 1293 881 q 1174 767 1174 839 q 1190 684 1174 724 q 1229 606 1206 644 q 1278 527 1252 567 q 1324 444 1304 487 l 1322 444 q 1355 367 1343 406 q 1367 285 1367 328 q 1332 134 1367 211 q 1231 -4 1298 57 q 1068 -103 1165 -65 q 846 -137 970 -141 q 541 -44 646 -130 q 400 193 435 43 q 394 358 381 274 q 446 515 406 443 q 556 640 487 587 q 724 711 626 693 q 732 713 728 713 q 739 713 737 713 q 755 714 743 713 q 780 713 767 715 q 805 704 793 711 q 820 683 817 696 q 810 654 824 667 q 776 637 796 641 q 731 643 756 631 q 707 652 720 648 q 682 657 696 656 q 654 656 669 659 q 544 594 593 641 q 468 482 496 546 q 430 344 439 419 q 437 204 420 270 q 485 88 452 143 q 569 -6 519 33 q 688 -69 620 -46 q 839 -93 756 -93 q 1075 -44 987 -87 q 1208 56 1163 -2 q 1267 170 1254 113 q 1280 261 1280 228 q 1250 382 1278 333 q 1189 480 1222 431 q 1129 585 1156 528 q 1102 731 1102 643 q 1128 847 1102 794 q 1176 931 1154 900 q 1056 981 1119 956 q 929 1028 994 1007 q 794 1063 863 1048 q 656 1080 724 1078 m 1406 1037 q 1335 1011 1380 1031 q 1248 943 1291 991 q 1367 895 1313 915 q 1457 876 1420 876 q 1500 886 1481 876 q 1531 910 1519 896 q 1549 940 1543 924 q 1556 967 1556 956 q 1543 1006 1556 991 q 1514 1029 1530 1020 q 1483 1040 1498 1037 q 1465 1043 1469 1043 q 1435 1041 1450 1043 q 1406 1037 1420 1039 z "},"T":{"ha":767,"x_min":33,"x_max":2117,"o":"m 2044 1183 q 2039 1231 2035 1211 q 2053 1260 2043 1250 q 2077 1270 2063 1270 q 2102 1259 2091 1270 q 2114 1235 2111 1250 q 2117 1207 2117 1220 q 2113 1176 2117 1191 l 2113 1174 q 2112 1170 2113 1172 q 2111 1167 2111 1169 q 2031 1050 2089 1094 q 1867 977 1967 996 q 1644 959 1767 957 q 1383 978 1522 961 q 1106 1011 1244 994 q 1106 1001 1106 1006 q 1107 991 1107 996 q 1106 982 1107 987 q 1100 970 1106 978 q 1042 894 1085 950 q 941 757 998 837 q 817 581 883 678 q 689 381 750 483 q 653 321 672 354 q 615 256 633 289 q 580 193 596 224 q 552 137 563 161 l 546 126 q 529 69 531 93 q 544 39 526 44 q 600 53 563 33 q 674 98 637 72 q 767 167 719 128 q 787 180 780 174 q 800 182 794 183 q 802 172 806 181 q 796 157 800 165 q 786 143 793 150 q 770 128 780 135 q 733 98 761 120 q 671 53 706 76 q 600 13 637 30 q 535 -2 563 -4 q 494 15 509 0 q 470 51 478 30 q 464 97 463 72 q 470 144 465 122 q 518 266 481 196 q 591 400 554 335 q 704 583 643 491 q 822 759 765 676 q 929 911 880 843 q 1009 1020 978 980 q 722 1022 865 1031 q 463 998 580 1013 l 407 987 q 256 951 320 969 q 150 919 191 933 q 133 896 139 904 q 128 885 130 891 q 101 852 117 863 q 71 840 85 841 q 46 846 57 839 q 35 870 35 854 q 42 896 33 883 q 59 919 50 909 q 85 939 70 930 q 100 946 93 943 q 115 953 107 950 q 131 956 122 956 l 139 956 q 247 987 181 969 q 400 1024 313 1006 q 568 1053 485 1041 q 733 1072 650 1065 q 1128 1067 941 1087 q 1196 1058 1163 1063 q 1263 1050 1230 1054 q 1563 1019 1420 1031 q 1817 1017 1706 1007 q 2033 1102 1970 1030 q 2045 1127 2043 1113 q 2048 1154 2048 1141 q 2044 1183 2048 1169 z "},"U":{"ha":1537,"x_min":57,"x_max":1876,"o":"m 1876 987 q 1875 979 1876 983 q 1869 967 1874 974 q 1810 890 1854 946 q 1709 754 1767 833 q 1585 578 1652 674 q 1457 380 1519 481 q 1421 319 1441 352 q 1383 254 1402 287 q 1348 189 1365 220 q 1320 133 1331 157 l 1315 122 q 1297 65 1300 89 q 1313 37 1294 41 q 1369 50 1331 31 q 1443 94 1406 69 q 1535 163 1487 124 q 1556 176 1548 170 q 1569 179 1563 180 q 1572 169 1574 178 q 1565 154 1570 161 q 1539 124 1556 139 q 1502 94 1530 117 q 1440 49 1474 72 q 1369 9 1406 26 q 1304 -6 1331 -7 q 1262 11 1278 -4 q 1239 47 1246 26 q 1232 94 1231 69 q 1239 143 1233 119 q 1284 258 1250 191 q 1356 391 1319 326 q 1339 370 1344 376 q 1194 219 1263 285 q 1059 109 1124 154 q 817 11 922 11 q 797 12 807 11 q 778 15 787 13 q 691 81 711 26 q 719 250 672 143 q 738 291 728 270 q 763 333 748 311 q 826 436 783 369 q 917 582 869 504 q 1012 740 965 661 q 1089 878 1059 819 q 1120 959 1115 930 q 1122 1005 1126 989 q 1108 1025 1119 1020 q 1091 1030 1098 1030 q 969 978 1039 1028 q 822 865 900 928 q 689 759 759 813 q 544 667 619 706 q 335 609 435 609 q 233 626 283 609 q 196 643 230 628 q 128 694 163 657 q 95 735 111 711 q 69 791 80 759 q 58 861 59 822 q 70 948 57 900 q 169 1081 96 1039 q 283 1113 222 1111 q 383 1109 344 1115 q 393 1107 387 1107 q 402 1106 398 1107 q 433 1095 417 1102 q 457 1074 450 1089 q 442 1030 472 1044 q 370 1041 411 1015 q 343 1059 357 1052 q 313 1071 330 1067 q 281 1074 296 1076 l 285 1076 q 234 1069 259 1074 q 187 1048 209 1063 q 106 939 128 1017 q 154 720 72 802 q 184 693 169 704 q 215 674 200 681 q 244 661 230 667 q 528 700 369 619 q 668 790 598 737 q 798 893 737 843 q 889 966 844 931 q 973 1024 933 1000 q 1049 1059 1013 1048 q 1119 1063 1085 1070 q 1200 996 1181 1048 q 1165 826 1220 931 q 1101 706 1154 802 q 931 443 1048 611 q 819 269 863 344 q 762 141 776 193 q 768 65 748 89 q 844 50 787 41 q 1311 394 1028 76 q 1454 568 1389 483 q 1559 709 1519 652 q 1585 748 1572 730 q 1611 785 1598 767 l 1611 787 q 1732 957 1680 885 q 1806 1056 1785 1030 q 1815 1063 1809 1059 q 1828 1063 1820 1067 q 1857 1042 1841 1059 q 1876 987 1874 1024 z "},"V":{"ha":1100,"x_min":24,"x_max":2098,"o":"m 752 278 q 815 381 772 313 q 906 527 857 448 q 1003 684 956 606 q 1080 822 1050 763 q 1110 904 1104 874 q 1112 949 1117 933 q 1097 969 1107 965 q 1080 974 1087 974 q 958 922 1028 972 q 811 809 889 872 q 678 704 748 757 q 533 611 607 650 q 326 554 424 554 q 222 570 272 554 q 201 578 219 570 q 159 601 183 585 q 110 641 135 617 q 67 700 85 665 q 61 894 24 785 q 137 1006 85 965 q 267 1056 189 1046 q 317 1058 293 1059 q 361 1054 341 1057 q 391 1050 372 1054 q 422 1040 406 1046 q 446 1019 439 1033 q 431 974 461 989 q 359 985 400 959 q 331 1004 346 996 q 303 1016 319 1011 q 272 1019 287 1020 l 270 1019 q 94 881 135 1002 q 100 717 63 787 q 138 666 115 685 q 181 631 161 646 q 233 606 206 615 q 517 644 359 561 q 656 734 587 681 q 789 837 726 787 q 879 910 835 876 q 962 969 922 944 q 1038 1004 1002 993 q 1107 1007 1074 1015 q 1189 941 1170 994 q 1154 770 1211 878 q 1090 651 1143 746 q 920 387 1037 556 q 767 131 811 231 q 765 2 722 30 q 819 85 781 26 q 913 223 857 144 q 1037 396 969 302 q 1181 587 1106 491 q 1381 821 1287 719 q 1559 1000 1474 924 q 1744 1137 1659 1089 q 1915 1189 1843 1191 q 1932 1189 1919 1189 q 1966 1184 1946 1189 q 2007 1170 1985 1180 q 2048 1143 2030 1161 q 2083 1089 2072 1120 q 2087 1076 2087 1081 q 2096 1043 2093 1059 l 2094 1043 q 2098 1009 2098 1028 q 2087 978 2098 991 q 2062 964 2076 965 q 2037 973 2048 963 q 2020 1002 2026 983 q 2020 1046 2015 1020 q 2024 1081 2024 1063 q 2017 1111 2022 1096 q 1996 1135 2011 1126 q 1948 1150 1970 1148 q 1919 1152 1926 1152 q 1761 1085 1854 1150 q 1565 920 1669 1020 q 1353 696 1461 820 q 1146 450 1244 572 q 968 221 1048 328 q 839 48 887 115 q 801 -10 815 11 q 787 -33 787 -31 q 772 -41 781 -41 l 769 -41 q 680 26 700 -30 q 709 194 659 87 q 729 235 719 215 q 752 278 739 256 z "},"W":{"ha":1572,"x_min":26,"x_max":2522,"o":"m 2509 941 q 2486 927 2500 928 q 2461 936 2472 926 q 2444 965 2450 946 q 2444 1009 2439 983 q 2448 1044 2450 1026 q 2440 1074 2446 1059 q 2419 1098 2433 1089 q 2372 1113 2394 1111 q 2341 1115 2350 1115 q 2183 1048 2276 1113 q 1987 883 2091 983 q 1775 659 1883 783 q 1569 413 1667 535 q 1390 184 1470 291 q 1261 11 1309 78 q 1223 -47 1237 -26 q 1209 -70 1209 -69 q 1194 -78 1204 -78 l 1191 -78 q 1104 -11 1120 -67 q 1131 157 1081 50 q 1151 198 1141 178 q 1174 241 1161 219 q 1237 344 1194 276 q 1329 490 1280 411 q 1425 647 1378 569 q 1502 785 1472 726 q 1526 843 1517 815 q 1323 623 1426 743 q 1129 389 1220 504 q 962 174 1037 274 q 841 11 887 74 q 803 -47 817 -26 q 789 -70 789 -69 q 774 -78 783 -78 l 770 -78 q 683 -11 700 -67 q 711 157 661 50 q 731 198 720 178 q 754 241 741 219 q 817 344 774 276 q 908 490 859 411 q 1005 647 957 569 q 1081 785 1052 726 q 1113 867 1107 837 q 1114 912 1119 896 q 1099 932 1109 928 q 1081 937 1089 937 q 960 885 1030 935 q 813 772 891 835 q 680 667 750 720 q 535 574 609 613 q 328 517 426 517 q 224 533 274 517 q 203 541 220 533 q 161 564 185 548 q 112 604 137 580 q 69 663 87 628 q 63 857 26 748 q 139 969 87 928 q 269 1019 191 1009 q 319 1021 294 1022 q 363 1017 343 1020 q 394 1013 376 1017 q 425 1003 409 1009 q 450 981 441 996 q 452 955 457 967 q 433 937 446 943 q 401 933 420 931 q 361 948 381 935 q 333 967 348 959 q 306 979 320 974 q 276 981 291 983 l 272 981 q 98 844 137 965 q 102 680 65 750 q 140 629 117 648 q 183 594 163 609 q 235 569 207 578 l 237 569 q 519 607 361 524 q 658 697 589 644 q 791 800 728 750 q 881 873 837 839 q 964 931 924 907 q 1040 967 1004 956 q 1109 970 1076 978 q 1193 904 1174 957 q 1156 733 1211 841 q 1092 614 1144 709 q 922 350 1039 519 q 769 93 813 193 q 769 -35 726 -7 q 852 94 789 0 q 1006 313 915 189 q 1108 453 1052 378 q 1228 606 1165 528 q 1358 758 1291 683 q 1493 900 1426 833 q 1530 922 1504 909 q 1587 919 1556 935 q 1602 906 1594 913 q 1617 863 1615 891 q 1576 733 1617 811 q 1512 614 1565 709 q 1343 350 1459 519 q 1191 93 1235 193 q 1189 -35 1146 -7 q 1242 48 1204 -11 q 1335 186 1280 107 q 1459 359 1391 265 q 1604 550 1528 454 q 1804 784 1709 681 q 1981 963 1898 887 q 2167 1100 2081 1052 q 2337 1152 2259 1152 l 2339 1152 q 2355 1152 2341 1152 q 2388 1147 2369 1152 q 2430 1133 2407 1143 q 2470 1106 2452 1124 q 2506 1052 2494 1083 q 2509 1039 2509 1044 q 2519 1006 2515 1022 q 2521 972 2522 991 q 2509 941 2520 954 z "},"X":{"ha":1306,"x_min":31,"x_max":1709,"o":"m 1204 446 q 1202 276 1200 363 q 1214 111 1204 189 q 1244 -27 1224 33 q 1302 -115 1265 -87 q 1326 -132 1311 -124 q 1361 -144 1341 -141 l 1359 -144 q 1391 -142 1376 -148 q 1417 -124 1406 -135 q 1441 -94 1430 -113 q 1473 -60 1456 -70 q 1506 -51 1491 -50 q 1530 -61 1520 -52 q 1537 -87 1539 -70 q 1521 -117 1533 -102 q 1494 -141 1509 -131 q 1486 -146 1491 -144 q 1478 -152 1481 -148 q 1385 -185 1435 -185 q 1339 -178 1359 -185 q 1303 -160 1319 -170 q 1277 -142 1287 -150 q 1265 -131 1267 -133 q 1157 169 1180 -56 q 1152 288 1154 224 q 1154 424 1150 352 q 1156 462 1156 444 q 1157 498 1156 480 q 1132 467 1144 483 q 1107 435 1120 450 q 1022 309 1063 374 q 950 176 981 244 q 947 169 948 172 q 944 163 946 167 q 931 125 937 146 q 930 85 924 104 q 933 57 933 76 q 920 35 933 39 q 896 41 906 31 q 878 61 887 50 q 862 115 863 85 q 867 174 861 144 q 925 319 883 248 q 1009 454 967 389 q 1165 646 1081 557 q 1168 734 1167 689 q 1170 833 1169 780 q 1156 917 1170 880 q 1120 977 1143 954 q 1069 1009 1098 1000 q 1011 1011 1041 1019 q 937 974 974 996 q 857 924 900 952 q 754 856 809 891 q 631 794 698 822 q 481 750 563 767 q 296 737 398 733 q 266 739 293 737 q 203 748 239 741 q 130 771 167 756 q 69 815 93 787 q 41 915 31 856 q 194 1065 57 1028 q 248 1077 222 1074 q 293 1080 274 1080 q 329 1080 302 1081 q 369 1059 356 1078 q 372 1034 376 1046 q 356 1014 369 1022 q 324 1004 343 1006 q 283 1011 306 1002 q 259 1022 272 1017 q 206 1031 235 1031 q 204 1030 206 1030 q 78 909 93 998 q 96 839 72 867 q 151 802 117 815 q 217 782 185 789 q 272 775 248 776 q 296 774 296 774 l 298 774 q 475 787 396 770 q 619 830 554 804 q 737 889 683 856 q 837 954 791 922 q 978 1038 911 1004 q 1124 1061 1044 1072 q 1204 1011 1176 1056 q 1237 887 1235 963 q 1230 743 1239 811 q 1228 728 1228 735 q 1226 711 1228 720 q 1436 895 1326 811 q 1669 1050 1546 980 q 1680 1053 1672 1052 q 1694 1050 1687 1054 q 1709 1006 1709 1031 q 1700 959 1709 981 q 1683 943 1694 950 q 1211 563 1417 791 q 1206 497 1207 528 q 1204 446 1206 467 z "},"Y":{"ha":1598,"x_min":48,"x_max":1939,"o":"m 1228 826 q 1164 706 1217 802 q 994 443 1111 611 q 907 310 944 370 q 848 202 870 250 q 1017 87 933 154 q 1374 394 1170 165 q 1517 568 1452 483 q 1622 709 1581 652 q 1648 748 1635 730 q 1674 785 1661 767 l 1674 787 q 1795 957 1743 885 q 1869 1056 1848 1030 q 1878 1063 1872 1059 q 1891 1063 1883 1067 q 1920 1042 1904 1059 q 1939 987 1937 1024 q 1938 979 1939 983 q 1931 967 1937 974 q 1873 890 1917 946 q 1772 754 1830 833 q 1649 578 1715 674 q 1522 380 1583 481 q 1486 319 1506 352 q 1447 254 1467 287 q 1411 189 1428 220 q 1383 133 1394 157 l 1378 122 q 1360 65 1363 89 q 1376 37 1357 41 q 1431 50 1394 31 q 1506 94 1469 69 q 1598 163 1550 124 q 1619 176 1611 170 q 1631 179 1626 180 q 1635 169 1637 178 q 1628 154 1633 161 q 1602 124 1619 139 q 1565 94 1593 117 q 1503 49 1537 72 q 1431 9 1469 26 q 1367 -6 1394 -7 q 1331 7 1344 -4 q 1307 35 1317 19 q 1280 -6 1294 15 q 1250 -48 1265 -28 q 1232 -73 1241 -61 q 1215 -96 1224 -85 q 1465 -407 1339 -230 q 1467 -410 1467 -409 q 1469 -413 1467 -411 l 1480 -431 q 1491 -463 1487 -448 q 1494 -490 1494 -476 q 1485 -515 1493 -504 q 1463 -531 1476 -528 q 1439 -526 1450 -533 q 1419 -500 1428 -519 q 1413 -454 1411 -481 q 1411 -426 1413 -441 q 1393 -369 1407 -396 q 1383 -357 1385 -361 l 1378 -352 l 1380 -354 q 1191 -126 1285 -226 q 956 -361 1074 -270 q 570 -509 763 -506 q 565 -510 569 -509 q 556 -511 561 -511 q 476 -506 530 -511 q 357 -480 422 -500 q 189 -391 257 -448 q 67 -206 100 -317 q 56 -81 48 -146 q 94 50 63 -15 q 179 169 126 117 q 298 256 231 222 q 517 302 402 304 q 778 237 639 300 q 783 250 780 243 q 803 291 793 270 q 826 333 813 311 q 889 436 846 369 q 980 582 931 504 q 1075 740 1028 661 q 1152 878 1122 819 q 1183 959 1178 930 q 1185 1005 1189 989 q 1171 1025 1181 1020 q 1154 1030 1161 1030 q 1032 978 1102 1028 q 885 865 963 928 q 752 759 822 813 q 607 667 681 706 q 398 609 498 609 q 296 626 346 609 q 270 636 293 628 q 219 662 248 644 q 158 707 189 680 q 107 774 128 735 q 98 956 65 856 q 324 1115 146 1100 q 391 1116 359 1119 q 444 1109 422 1113 q 447 1108 446 1109 q 452 1107 448 1107 q 463 1106 457 1107 l 465 1106 q 474 1104 469 1104 q 483 1100 480 1104 l 487 1100 q 491 1098 487 1100 q 524 1070 517 1089 q 526 1044 531 1056 q 506 1028 520 1033 q 473 1024 493 1022 q 435 1041 454 1026 q 411 1059 424 1052 q 386 1072 400 1067 q 357 1080 372 1078 q 342 1078 348 1078 q 326 1078 335 1078 q 133 944 172 1063 q 139 791 106 857 q 185 731 157 756 q 240 692 213 707 q 287 669 267 676 q 307 661 307 661 q 591 700 433 617 q 731 790 661 737 q 861 893 800 843 q 952 966 907 931 q 1036 1024 996 1000 q 1112 1059 1076 1048 q 1181 1063 1148 1070 q 1263 996 1244 1048 q 1228 826 1285 933 m 1124 109 q 1085 83 1104 94 q 1048 61 1067 72 q 1101 17 1074 41 q 1154 -33 1128 -7 q 1231 82 1194 24 q 1300 194 1269 141 q 1356 291 1331 246 q 1396 365 1381 335 q 1254 218 1322 281 q 1124 109 1185 154 m 1131 -65 q 1011 44 1072 -6 q 880 11 941 11 q 861 12 870 11 q 843 15 852 13 q 754 81 774 26 q 763 204 737 128 q 624 251 689 237 q 506 265 559 265 q 398 252 446 265 q 313 222 350 239 q 206 143 254 191 q 128 33 157 94 q 94 -83 100 -24 q 102 -194 87 -143 q 369 -444 161 -381 q 465 -467 420 -461 q 537 -472 509 -472 q 677 -450 611 -472 q 803 -391 743 -428 q 918 -304 863 -354 q 1024 -198 972 -254 q 1079 -134 1052 -167 q 1131 -65 1106 -102 m 980 70 q 906 122 943 98 q 833 167 870 146 q 826 71 809 102 q 907 50 843 41 q 942 57 924 54 q 980 70 959 61 z "},"Z":{"ha":919,"x_min":50,"x_max":1389,"o":"m 322 -74 q 298 -80 306 -80 q 288 -76 300 -83 q 272 -39 276 -69 q 274 -30 272 -33 q 276 -22 276 -26 q 322 51 289 4 q 406 161 356 98 q 524 300 457 224 q 669 459 591 376 q 567 455 611 459 q 520 450 522 450 q 500 465 504 446 q 517 485 496 485 q 564 492 519 487 q 669 496 609 496 l 704 496 q 933 727 811 609 q 1189 956 1056 844 q 1163 944 1176 950 q 1135 930 1150 937 q 916 843 1050 891 q 606 757 781 794 q 450 739 520 739 q 307 763 361 739 q 217 813 254 787 l 217 815 q 202 824 206 822 q 177 834 189 831 q 154 839 165 837 q 130 839 141 841 q 82 842 100 835 q 57 858 65 848 q 54 881 50 869 q 72 906 57 894 q 98 916 83 915 q 128 913 113 917 q 159 904 144 909 q 165 902 161 904 q 178 896 172 898 q 181 894 180 894 q 185 891 183 893 q 200 880 187 891 q 233 848 213 869 q 287 813 257 830 q 358 786 317 796 q 458 777 400 776 q 598 794 517 778 q 904 877 772 830 q 1119 963 1035 924 q 1265 1038 1213 1006 q 1322 1076 1317 1070 q 1348 1076 1335 1089 q 1354 1067 1350 1074 q 1369 1031 1367 1056 q 1326 963 1370 1006 q 1159 819 1248 894 q 989 668 1083 754 q 798 487 894 581 q 870 448 850 472 q 880 419 878 437 q 867 372 881 400 q 845 350 865 369 q 783 331 826 331 l 767 331 q 750 352 750 335 q 770 369 754 372 q 819 377 806 365 q 835 391 833 389 q 843 417 844 409 q 839 426 841 424 q 820 441 835 431 q 765 456 806 450 q 631 319 696 387 q 512 186 567 250 q 417 65 457 122 q 356 -37 376 7 q 473 -74 417 -43 q 589 -146 530 -106 q 689 -211 635 -178 q 807 -270 743 -244 q 952 -313 872 -296 q 1130 -326 1031 -330 q 1165 -324 1146 -326 q 1241 -307 1200 -320 q 1348 -187 1344 -270 q 1320 -113 1350 -143 q 1237 -70 1287 -81 q 1204 -69 1220 -67 q 1172 -76 1187 -72 q 1143 -89 1156 -81 q 1102 -97 1120 -98 q 1070 -88 1083 -96 q 1053 -67 1057 -80 q 1057 -41 1048 -54 q 1097 -20 1070 -22 q 1137 -20 1124 -19 q 1183 -23 1156 -20 q 1240 -32 1211 -26 q 1297 -52 1269 -39 q 1346 -85 1326 -65 q 1385 -189 1389 -128 q 1252 -343 1383 -296 q 1170 -360 1207 -357 q 1130 -363 1133 -363 l 1102 -363 q 928 -345 1006 -363 q 786 -301 850 -328 q 669 -242 722 -274 q 569 -178 615 -209 q 444 -101 502 -131 q 322 -74 387 -70 z "},"a":{"ha":594,"x_min":-15,"x_max":633,"o":"m 304 157 q 249 104 280 131 q 185 51 219 76 q 119 10 152 26 q 57 -6 87 -6 q 30 0 43 -6 q 7 17 17 6 q -8 43 -2 26 q -15 85 -15 59 q 8 185 -15 124 q 96 341 31 246 q 262 514 176 454 q 409 574 348 574 q 473 549 452 574 q 494 481 494 524 q 469 357 494 431 l 474 357 q 487 354 480 356 q 495 347 491 350 q 500 335 500 344 q 478 296 500 328 q 429 223 456 265 q 380 137 402 181 q 357 61 357 93 q 381 35 357 35 q 438 55 402 35 q 509 98 474 74 q 594 163 550 126 q 607 170 600 167 q 618 177 613 174 q 626 180 622 180 q 631 174 631 180 q 633 170 631 174 q 627 154 633 165 q 600 124 620 143 q 564 95 591 117 q 504 52 537 74 q 434 12 470 30 q 370 -6 398 -6 q 310 25 328 -6 q 293 94 293 56 q 304 157 293 126 m 180 300 q 133 231 156 267 q 94 164 111 196 q 68 105 78 131 q 57 63 57 78 q 69 50 57 50 q 116 69 83 50 q 187 116 148 87 q 268 180 226 144 q 343 248 309 215 q 360 279 352 263 q 380 311 369 294 q 393 328 385 320 q 411 343 400 335 q 441 354 422 350 q 448 398 444 374 q 452 443 452 422 q 444 483 452 467 q 413 500 435 500 q 358 481 389 500 q 296 433 328 463 q 234 369 265 404 q 180 300 204 333 z "},"b":{"ha":483,"x_min":-33,"x_max":702,"o":"m 698 426 q 691 411 696 419 q 665 381 681 396 q 599 330 637 359 q 518 271 561 300 q 431 219 474 243 q 350 183 387 194 q 291 115 322 148 q 226 56 259 81 q 157 15 193 30 q 89 2 122 0 q 63 9 72 2 q 48 26 54 15 q 46 57 43 37 q 98 131 56 100 q 226 183 141 161 q 233 185 228 183 q 242 188 237 187 q 254 193 246 189 q 281 232 267 211 q 311 280 296 254 q 394 427 370 370 q 402 498 417 483 q 294 431 350 474 q 190 335 246 394 q 80 187 133 276 q 42 95 57 139 q 20 15 26 52 q 8 0 17 0 q -4 4 0 0 l -6 4 q -33 43 -26 13 q -31 61 -33 57 q 12 201 -20 111 q 110 409 44 291 q 281 671 176 528 q 544 974 385 815 q 563 978 554 983 q 580 966 570 974 q 594 944 589 957 q 593 913 598 931 q 567 870 587 894 q 446 726 507 802 q 328 576 393 661 q 204 400 263 491 q 264 466 233 433 q 325 523 294 498 q 383 562 356 548 q 433 576 411 576 q 490 539 478 572 q 492 458 502 506 q 458 359 481 411 q 411 269 435 307 q 403 256 407 261 q 394 243 398 250 q 445 266 407 243 q 526 319 483 289 q 606 378 569 348 q 661 420 644 407 q 681 433 672 428 q 695 436 689 437 q 698 426 702 435 m 144 83 q 175 106 159 93 q 211 141 191 119 q 202 139 207 139 q 154 120 174 130 q 119 101 135 111 q 104 78 104 91 q 109 70 104 72 q 121 71 113 69 q 144 83 130 74 z "},"c":{"ha":422,"x_min":-7,"x_max":572,"o":"m 48 9 q 2 72 13 30 q 3 169 -7 107 q 70 326 13 230 q 185 476 124 415 q 238 525 209 502 q 297 562 267 548 q 358 579 328 576 q 419 567 389 581 q 441 546 431 559 q 455 518 450 535 q 457 474 459 500 q 444 431 454 452 q 420 400 435 415 q 380 381 406 385 q 358 383 365 380 q 350 389 352 387 q 335 419 337 402 q 344 431 337 428 q 357 439 352 435 q 391 456 372 443 q 411 500 409 469 q 344 480 383 500 q 261 416 311 459 q 143 283 211 372 q 83 185 106 231 q 56 110 63 146 q 76 59 50 74 q 144 55 100 46 q 240 89 187 63 q 349 156 293 115 q 457 254 406 198 q 489 289 474 272 q 515 320 504 306 q 539 352 528 337 q 556 369 548 361 q 567 375 561 374 q 572 365 572 376 q 570 350 572 357 q 552 315 569 337 q 523 277 544 306 q 474 217 502 248 q 322 87 398 139 q 254 44 289 65 q 182 12 219 24 q 112 -2 146 0 q 48 9 78 -4 z "},"d":{"ha":594,"x_min":-20,"x_max":922,"o":"m 496 348 q 428 232 459 289 q 376 122 396 176 q 363 81 367 100 q 360 54 359 67 q 374 37 361 41 q 429 50 393 31 q 502 94 465 69 q 594 163 544 124 q 615 176 606 170 q 629 179 622 180 q 631 169 635 178 q 624 154 630 161 q 598 124 615 139 q 562 94 589 117 q 500 49 535 72 q 429 9 465 26 q 365 -6 393 -7 q 321 13 337 -4 q 298 54 306 30 q 293 106 291 78 q 304 157 294 133 q 241 97 276 130 q 169 40 206 65 q 95 2 131 15 q 30 0 59 -11 q -13 61 -6 19 q 0 164 -20 96 q 96 341 20 231 q 193 456 143 407 q 290 532 243 504 q 378 570 337 561 q 448 567 419 580 q 493 507 483 554 q 651 731 559 613 q 869 974 743 848 q 889 978 878 983 q 905 966 896 974 q 918 944 913 957 q 917 913 922 931 q 891 870 911 894 q 754 706 822 793 q 625 539 694 631 q 496 348 556 446 m 237 154 q 300 217 270 181 q 353 284 330 252 q 393 343 376 317 q 417 381 409 369 q 419 386 419 385 q 422 391 420 387 q 427 400 426 394 q 431 409 428 406 q 448 456 448 439 q 446 478 448 474 q 426 498 441 493 q 372 489 404 506 q 306 443 341 472 q 239 374 272 413 q 180 300 206 335 q 128 222 152 263 q 86 146 104 181 q 61 85 69 111 q 61 52 54 59 q 113 67 72 43 q 206 130 154 91 l 207 130 q 222 141 215 135 q 237 154 230 146 z "},"e":{"ha":409,"x_min":-9,"x_max":572,"o":"m 46 9 q 0 72 11 30 q 1 169 -9 107 q 70 326 11 230 q 185 474 124 413 q 238 523 209 500 q 297 560 267 546 q 358 577 328 574 q 419 567 389 580 q 448 535 439 556 q 456 488 457 517 q 433 415 454 459 q 374 341 413 372 q 284 294 341 315 q 143 281 228 274 q 141 278 143 281 q 81 181 102 226 q 56 109 61 144 q 76 59 50 74 q 144 55 100 46 q 240 89 187 63 q 349 156 293 115 q 457 254 406 198 q 487 289 472 272 q 513 320 502 306 q 537 352 526 337 q 554 369 546 361 q 567 375 561 374 q 572 365 572 376 q 569 350 570 357 q 562 333 565 343 q 552 315 559 324 q 522 277 543 306 q 474 217 502 248 q 320 87 396 139 q 252 44 287 65 q 181 12 217 24 q 111 -2 146 0 q 46 9 76 -4 m 404 493 q 346 476 380 494 q 272 423 317 461 q 169 313 228 385 q 239 322 200 315 q 312 349 278 330 q 372 403 346 369 q 404 493 398 437 z "},"f":{"ha":396,"x_min":-104,"x_max":652,"o":"m -65 -185 q -104 -113 -104 -167 q -90 -31 -104 -76 q -57 52 -76 13 q -9 143 -37 98 q 62 269 22 202 q 152 413 102 337 q 136 455 141 433 q 131 496 131 476 q 151 557 131 539 q 193 576 170 576 q 235 569 226 576 q 252 559 244 563 q 410 763 324 659 q 602 976 496 867 q 613 980 606 980 q 636 966 620 980 q 652 931 652 952 q 624 870 652 904 q 530 759 580 820 q 431 638 487 707 q 315 489 374 569 q 330 402 330 454 q 329 375 330 387 q 326 348 328 363 q 411 342 367 339 q 494 363 456 344 q 506 369 498 365 q 520 379 513 374 q 535 384 528 383 q 546 380 543 385 q 535 353 554 369 q 506 330 517 337 q 408 300 463 304 q 319 306 354 296 q 290 203 307 252 q 256 115 272 154 q 215 30 235 69 q 140 -86 176 -43 q 72 -153 104 -130 q 16 -184 41 -176 q -28 -193 -9 -193 q -56 -189 -44 -193 q -65 -185 -61 -187 m 241 385 q 283 365 263 372 l 283 387 q 282 415 283 402 q 280 441 281 428 l 241 385 m 187 524 q 174 487 174 506 q 176 470 174 478 q 180 456 178 463 l 230 528 q 207 535 220 535 q 187 524 194 535 m 204 331 q 83 144 135 233 q 40 69 61 107 q 2 -6 19 30 q -25 -72 -15 -43 q -35 -120 -35 -102 q -22 -146 -35 -141 q 61 -98 20 -139 q 133 -9 102 -57 q 202 115 169 46 q 228 172 215 139 q 274 320 252 230 q 242 333 256 326 q 215 348 228 341 l 204 331 z "},"g":{"ha":596,"x_min":-659,"x_max":633,"o":"m -548 -278 q -508 -314 -537 -300 q -444 -336 -480 -328 q -371 -348 -409 -344 q -304 -352 -333 -352 q -123 -305 -209 -352 q 36 -185 -37 -257 q 169 -30 109 -113 q 274 126 230 54 q 222 80 250 104 q 167 37 194 56 q 110 6 139 19 q 57 -6 81 -6 q 30 0 43 -6 q 7 17 17 6 q -8 43 -2 26 q -15 85 -15 59 q 8 185 -15 124 q 96 341 31 246 q 262 514 176 454 q 409 574 348 574 q 473 549 452 574 q 494 481 494 524 q 469 357 494 431 l 474 357 q 487 354 480 356 q 495 347 491 350 q 500 335 500 344 q 483 298 500 322 q 453 257 474 285 q 410 195 431 230 q 373 125 389 161 q 357 61 357 89 q 381 35 357 35 q 438 55 402 35 q 509 98 474 74 q 594 163 550 126 q 607 170 600 167 q 618 177 613 174 q 626 180 622 180 q 631 174 631 180 q 632 164 633 176 q 600 124 631 152 q 562 94 589 115 q 501 50 535 72 q 430 11 467 28 q 365 -6 393 -6 q 311 26 330 -4 q 202 -116 265 -43 q 62 -249 139 -189 q -106 -348 -15 -309 q -296 -387 -196 -387 q -456 -365 -374 -387 q -609 -294 -539 -343 q -624 -283 -617 -291 q -639 -270 -631 -278 q -650 -254 -646 -263 q -656 -223 -659 -239 q -643 -200 -654 -207 q -610 -195 -624 -189 q -585 -216 -596 -202 q -565 -247 -574 -230 q -548 -278 -556 -265 m 61 52 q 69 50 63 50 q 116 69 83 50 q 187 116 148 87 q 268 180 226 144 q 343 248 309 215 q 360 279 352 263 q 380 311 369 294 q 393 328 385 320 q 411 343 400 335 q 441 354 422 350 q 448 397 444 374 q 452 441 452 420 q 444 483 452 467 q 413 500 435 500 q 341 473 380 500 q 263 405 302 446 q 187 312 224 363 q 121 212 150 261 q 75 123 93 163 q 57 63 57 83 q 61 52 57 56 z "},"h":{"ha":556,"x_min":-31,"x_max":600,"o":"m 569 978 q 585 964 576 972 q 597 943 594 956 q 595 912 600 930 q 570 870 591 894 q 456 735 515 807 q 345 594 406 674 q 226 428 285 515 q 319 512 270 472 q 415 567 369 552 q 489 572 459 581 q 531 536 519 563 q 537 469 544 509 q 496 378 530 428 q 480 351 491 369 q 456 313 469 333 q 429 270 443 293 q 404 231 415 248 q 392 214 400 226 q 378 193 383 202 q 358 156 369 174 q 343 122 348 139 q 326 81 331 100 q 322 54 322 67 q 333 37 322 41 q 389 50 352 31 q 463 94 426 69 q 556 163 507 124 q 576 176 569 170 q 589 179 583 180 q 593 169 594 178 q 585 154 591 161 q 559 124 576 139 q 522 94 550 117 q 460 49 494 72 q 389 9 426 26 q 324 -6 352 -7 q 284 10 298 -4 q 265 45 270 24 q 260 91 259 67 q 267 139 261 115 q 301 226 276 176 q 354 324 326 276 q 406 409 381 372 q 439 457 431 446 q 448 489 452 478 q 441 498 446 494 q 409 498 430 506 q 369 480 389 491 q 320 448 346 467 q 231 377 270 415 q 162 302 193 339 q 110 231 131 265 q 74 169 89 196 q 41 87 54 126 q 24 15 28 48 q 11 0 20 -2 q -2 4 2 2 q -30 44 -22 13 q -31 53 -31 48 q -30 59 -30 57 q 14 199 -19 109 q 111 407 46 289 q 281 669 176 526 q 544 972 387 813 q 569 978 557 981 z "},"i":{"ha":281,"x_min":-15,"x_max":402,"o":"m 52 -6 q 12 10 26 -4 q -8 44 -2 24 q -14 90 -15 65 q -7 137 -13 115 q 16 205 -2 167 q 56 282 33 243 q 101 358 78 322 q 141 420 124 394 q 155 443 148 431 q 169 463 161 454 q 202 513 185 489 q 237 563 219 537 l 239 565 q 248 573 243 569 q 261 574 254 578 q 280 565 269 570 q 296 547 291 559 q 300 518 302 535 q 281 472 298 500 q 257 433 267 448 q 243 409 248 419 q 237 402 241 406 q 220 377 233 398 q 189 328 207 356 q 151 269 170 300 q 117 213 131 237 l 117 211 l 109 198 q 86 159 96 178 q 69 122 76 141 q 52 81 57 100 q 48 54 48 67 q 59 37 48 41 q 115 50 78 31 q 189 94 152 69 q 281 163 233 124 q 302 176 293 170 q 316 179 309 180 q 319 169 322 178 q 311 154 317 161 q 285 124 302 139 q 248 94 276 117 q 186 49 220 72 q 116 9 152 26 q 52 -6 80 -7 m 337 591 q 311 576 320 572 l 307 576 q 299 593 300 581 q 299 616 298 604 q 303 637 300 628 q 306 650 306 646 q 307 654 306 654 q 320 685 313 670 q 336 708 328 698 q 359 722 344 719 q 386 718 376 726 q 399 694 396 709 q 396 661 402 680 q 372 626 391 643 q 359 615 367 620 q 348 604 354 609 q 337 591 343 598 z "},"j":{"ha":291,"x_min":-1054,"x_max":411,"o":"m 291 163 q 311 176 302 170 q 325 179 319 180 q 328 169 331 178 q 320 154 326 161 q 294 124 311 139 q 257 94 285 117 q 195 49 230 72 q 124 9 161 26 q 59 -6 87 -7 q 29 5 41 -4 q 9 26 17 13 q -106 -119 -41 -44 q -251 -256 -172 -194 q -422 -355 -330 -317 q -617 -387 -515 -393 q -714 -373 -656 -385 q -833 -331 -772 -361 q -950 -252 -894 -302 q -1039 -126 -1006 -202 q -1050 -96 -1046 -111 q -1054 -69 -1054 -83 q -1044 -43 -1054 -54 q -1022 -29 -1035 -30 q -998 -36 -1009 -28 q -979 -62 -987 -44 q -972 -104 -970 -80 q -974 -137 -974 -120 q -973 -167 -974 -152 q -965 -191 -972 -181 q -920 -242 -948 -215 q -851 -292 -893 -269 q -752 -331 -809 -315 q -617 -352 -694 -348 q -456 -321 -533 -356 q -311 -231 -380 -287 q -184 -103 -243 -174 q -79 38 -126 -31 q 2 168 -31 107 q 56 263 35 228 q 105 349 80 307 q 150 420 130 391 q 164 443 157 431 q 178 463 170 454 q 211 513 194 489 q 246 563 228 537 l 248 565 q 257 573 252 569 q 270 574 263 578 q 289 565 278 570 q 306 547 300 559 q 309 518 311 535 q 291 472 307 500 q 267 433 276 448 q 252 409 257 419 q 246 402 250 406 q 230 377 243 398 q 198 328 217 356 q 160 269 180 300 q 126 213 141 237 l 126 211 l 119 198 q 95 159 106 178 q 78 122 85 141 q 61 81 67 100 q 57 54 57 67 q 69 37 57 41 q 124 50 87 31 q 198 94 161 69 q 291 163 243 124 m 369 722 q 395 718 385 726 q 408 694 406 709 q 405 661 411 680 q 381 626 398 643 q 369 615 376 620 q 357 604 363 609 q 346 591 352 598 q 320 576 330 572 l 317 576 q 308 593 309 581 q 308 616 307 604 q 312 637 309 628 q 315 650 315 646 q 317 654 315 654 q 330 685 322 670 q 345 708 337 698 q 369 722 354 719 z "},"k":{"ha":554,"x_min":-35,"x_max":598,"o":"m 567 978 q 582 964 574 972 q 594 943 591 956 q 593 912 598 930 q 569 870 587 894 q 454 735 513 807 q 343 593 404 672 q 222 424 281 513 q 317 511 267 470 q 413 567 367 552 q 476 574 448 578 q 520 555 504 570 q 543 512 537 539 q 537 452 548 485 l 537 450 l 537 446 q 456 346 517 387 q 326 278 394 306 q 248 250 287 261 q 176 230 209 239 q 211 127 189 165 q 259 69 233 89 q 306 43 285 48 q 337 35 328 37 l 339 35 q 396 56 359 35 q 469 100 433 76 q 554 163 509 128 q 574 176 567 170 q 587 179 581 180 q 591 169 593 178 q 583 154 589 161 q 557 124 574 139 q 524 97 548 117 q 468 56 500 78 q 401 17 435 35 q 339 -4 367 -2 q 313 -6 326 -7 q 291 -4 300 -6 q 201 31 237 2 q 143 94 165 59 q 110 161 120 128 q 96 211 100 194 q 65 152 74 174 q 20 15 31 78 q 8 0 17 -2 q -4 4 0 2 q -20 18 -13 7 q -31 44 -28 28 q -31 59 -35 56 q 12 199 -20 109 q 109 407 44 289 q 280 669 174 526 q 543 972 385 813 q 567 978 554 980 m 319 448 q 206 354 254 404 q 128 257 159 304 q 319 347 254 306 q 411 420 383 389 q 433 449 426 437 q 444 470 441 461 q 446 485 446 480 q 444 491 444 489 q 443 494 444 493 l 439 498 q 407 498 428 506 q 367 480 387 491 q 319 448 344 467 z "},"l":{"ha":269,"x_min":-22,"x_max":600,"o":"m 269 163 q 289 176 281 170 q 302 179 296 180 q 306 169 307 178 q 298 154 304 161 q 272 124 289 139 q 235 94 263 117 q 173 49 207 72 q 102 9 139 26 q 37 -6 65 -7 q 7 4 20 -4 q -14 29 -7 13 q -20 61 -20 44 q -14 113 -22 85 q -2 156 -6 141 q 31 239 11 193 q 76 339 50 285 q 159 491 107 404 q 184 529 172 509 q 211 569 196 548 q 355 761 272 661 q 544 972 437 861 q 554 979 548 976 q 567 978 559 981 q 583 964 574 972 q 596 943 593 956 q 594 912 600 930 q 570 870 589 894 q 467 748 520 813 q 363 618 420 691 q 248 461 306 544 q 159 326 202 394 q 85 193 117 257 q 46 104 63 144 l 41 87 q 34 56 35 70 q 46 37 33 41 q 102 50 65 31 q 176 94 139 69 q 269 163 220 124 z "},"m":{"ha":809,"x_min":-31,"x_max":848,"o":"m 807 163 q 828 176 819 170 q 842 179 835 180 q 844 169 848 178 q 837 154 843 161 q 811 124 828 139 q 775 94 802 117 q 713 49 748 72 q 642 9 678 26 q 578 -6 606 -7 q 538 10 552 -4 q 518 45 524 24 q 513 91 511 67 q 520 139 515 115 q 553 226 528 176 q 606 324 578 276 q 658 409 633 372 q 691 457 683 446 q 700 489 704 476 q 694 498 698 496 q 657 500 680 511 q 615 472 635 489 q 565 422 591 452 q 385 192 443 283 q 313 67 328 100 q 302 15 304 39 q 289 0 298 -2 q 276 4 280 2 q 258 19 267 7 q 246 46 250 31 q 246 63 244 54 q 294 214 259 117 q 407 444 330 311 q 409 448 407 444 q 413 454 411 452 q 417 459 415 456 q 419 463 417 461 q 424 489 428 480 q 419 498 422 494 q 381 500 404 511 q 339 472 359 489 q 289 422 315 452 q 109 192 167 283 q 37 67 52 100 q 26 15 28 39 q 13 0 22 -2 q 0 4 4 2 q -18 19 -9 7 q -30 46 -26 31 q -30 63 -31 54 q 21 222 -17 119 q 143 465 59 326 q 162 496 152 480 q 183 530 172 513 q 194 547 189 539 q 206 565 200 556 q 207 567 207 565 q 211 570 211 570 q 230 578 219 581 q 248 569 237 574 q 266 551 259 563 q 271 520 272 539 q 256 474 270 502 q 217 409 230 433 q 198 381 207 394 q 180 356 189 369 q 289 487 233 426 q 391 567 344 548 q 466 574 435 583 q 508 538 496 565 q 512 469 520 511 q 470 378 504 428 q 465 369 469 376 q 460 362 461 365 q 456 356 459 359 q 565 487 509 426 q 667 567 620 548 q 742 574 711 583 q 784 538 772 565 q 789 469 796 511 q 750 378 781 428 q 733 351 744 369 q 708 313 722 333 q 681 270 694 293 q 656 231 667 248 q 644 214 652 226 q 631 193 635 202 q 594 122 607 154 q 580 81 585 100 q 575 54 576 67 q 587 37 574 41 q 642 50 606 31 q 715 94 678 69 q 807 163 757 124 z "},"n":{"ha":559,"x_min":-30,"x_max":600,"o":"m 559 163 q 580 176 570 170 q 594 179 587 180 q 596 169 600 178 q 589 154 594 161 q 563 124 580 139 q 527 94 554 117 q 465 49 500 72 q 394 9 430 26 q 330 -6 357 -7 q 290 10 304 -4 q 269 45 276 24 q 264 91 263 67 q 270 139 265 115 q 305 226 280 176 q 357 324 330 276 q 410 409 385 372 q 443 457 435 446 q 452 489 456 476 q 446 498 450 496 q 410 499 433 509 q 365 472 387 489 q 307 426 337 452 q 122 217 180 304 q 48 94 65 130 q 28 15 33 50 q 15 0 24 -2 q 2 4 6 2 q -16 19 -7 7 q -28 46 -24 31 q -28 63 -30 54 q 23 222 -15 119 q 144 465 61 326 q 164 496 154 480 q 185 530 174 513 q 196 547 191 539 q 207 565 202 556 q 209 567 209 565 q 213 570 213 570 q 231 578 220 581 q 250 569 239 574 q 268 551 261 563 q 273 520 274 539 q 257 474 272 502 q 219 409 231 433 q 194 372 206 391 q 170 335 181 354 q 233 409 200 372 q 299 479 267 446 q 362 534 331 511 q 419 567 393 557 q 494 574 463 583 q 536 538 524 565 q 541 469 548 511 q 502 378 533 428 q 485 351 496 369 q 460 313 474 333 q 432 270 446 293 q 407 231 419 248 q 395 214 404 226 q 383 193 387 202 q 346 122 359 154 q 331 81 337 100 q 327 54 328 67 q 339 37 326 41 q 394 50 357 31 q 467 94 430 69 q 559 163 509 124 z "},"o":{"ha":517,"x_min":-4,"x_max":622,"o":"m 607 311 q 547 303 581 304 q 481 307 513 302 q 431 214 461 269 q 357 111 402 159 q 253 29 313 63 q 113 -4 193 -6 q 68 2 89 -4 q 31 20 46 7 q 6 56 15 33 q -4 115 -4 78 q 18 234 -4 170 q 78 356 39 298 q 172 462 117 415 q 296 530 228 509 q 320 568 306 557 q 356 578 335 578 q 417 561 391 578 q 458 519 443 544 q 481 460 474 493 q 489 398 489 428 q 489 374 489 385 q 487 350 489 363 q 502 343 487 344 q 537 342 517 341 q 577 344 557 343 q 602 344 596 344 q 622 328 622 344 q 607 311 622 315 m 433 320 q 344 372 374 343 q 302 435 315 402 q 219 377 263 417 q 140 289 176 337 q 80 190 104 241 q 56 98 56 139 q 77 57 56 67 q 124 48 98 48 q 141 48 133 48 q 156 50 148 48 q 170 54 163 52 q 332 149 263 81 q 433 313 402 217 l 433 320 m 444 376 q 420 491 444 446 q 369 535 396 535 q 343 519 350 535 q 335 487 335 502 q 348 435 335 457 q 363 413 356 424 q 443 359 391 380 l 443 369 q 444 376 443 374 z "},"p":{"ha":520,"x_min":-170,"x_max":670,"o":"m 556 259 q 533 245 546 254 q 504 228 520 237 q 461 207 487 219 q 398 183 435 196 q 339 115 370 148 q 274 56 307 81 q 206 15 241 30 q 137 2 170 0 q 111 9 120 2 q 96 26 102 15 q 94 57 91 37 q 145 131 104 100 q 272 183 187 161 l 300 193 q 329 232 315 211 q 359 280 343 254 q 441 427 417 370 q 450 498 465 483 q 352 441 402 476 q 256 359 309 409 q 150 237 202 309 q 60 88 106 167 q -22 -71 15 9 q -85 -229 -59 -152 q -113 -369 -111 -306 q -124 -385 -115 -385 q -137 -383 -133 -385 q -155 -370 -146 -380 q -169 -346 -163 -361 q -170 -336 -170 -341 q -170 -330 -170 -331 q -145 -195 -165 -278 q -78 1 -126 -113 q 56 259 -30 115 q 280 580 141 404 q 298 585 289 589 q 316 574 306 581 q 331 555 326 567 q 334 523 337 543 q 315 478 331 504 q 309 470 313 476 q 301 461 306 467 q 293 448 296 456 q 394 540 344 502 q 481 576 444 578 q 537 539 526 572 q 539 458 548 506 q 506 359 530 411 q 459 269 483 307 q 441 243 452 257 q 481 259 461 252 q 515 276 500 267 q 528 285 526 283 q 567 311 548 298 q 600 335 585 324 q 631 359 617 348 q 652 372 644 367 q 665 375 659 376 q 669 365 670 374 q 661 350 667 357 q 635 320 652 335 q 605 296 626 313 q 556 259 583 280 m 193 83 q 223 106 207 93 q 257 141 239 119 q 250 139 256 139 q 202 120 222 130 q 168 101 183 111 q 152 78 152 91 q 157 70 152 72 q 169 71 161 69 q 193 83 178 74 z "},"q":{"ha":598,"x_min":-19,"x_max":637,"o":"m 596 163 q 617 176 607 170 q 631 179 624 180 q 633 169 637 178 q 626 154 631 161 q 600 124 617 139 q 563 94 591 117 q 501 49 535 72 q 430 9 467 26 q 365 -6 393 -7 q 317 20 333 -2 q 224 -186 263 -85 q 181 -369 185 -287 q 170 -385 180 -385 q 157 -383 161 -385 q 140 -370 148 -380 q 126 -346 131 -361 q 123 -336 122 -341 q 124 -330 124 -331 q 161 -151 131 -265 q 276 128 191 -37 q 217 73 248 100 q 153 27 185 46 q 89 -1 120 7 q 31 0 57 -9 q -11 61 -4 19 q 2 164 -19 96 q 98 341 22 231 q 194 456 144 407 q 290 532 243 504 q 379 570 337 561 q 450 567 420 580 q 495 494 493 550 q 470 357 498 439 l 474 357 q 494 350 487 357 q 500 332 500 344 q 485 298 500 320 q 441 234 469 276 q 391 151 413 193 q 360 76 369 109 q 374 37 352 43 q 430 50 393 31 q 504 94 467 69 q 596 163 548 124 m 63 52 q 102 61 70 44 q 175 106 133 78 q 262 173 217 135 q 344 248 307 211 q 361 279 352 263 q 381 311 370 294 q 394 328 387 320 q 412 343 402 335 q 441 354 422 350 q 449 397 444 374 q 454 441 454 420 q 448 477 454 461 q 428 498 443 493 q 374 489 406 506 q 308 443 343 472 q 241 374 274 413 q 181 300 207 335 q 130 222 154 263 q 88 146 106 181 q 63 85 70 111 q 63 52 56 59 z "},"r":{"ha":474,"x_min":-31,"x_max":550,"o":"m 0 4 q -30 46 -20 15 q -30 63 -31 54 q 23 222 -15 119 q 144 465 61 326 q 164 496 154 480 q 185 530 174 513 q 196 547 191 539 q 207 565 202 556 q 209 567 207 565 q 211 570 209 570 q 230 578 220 580 q 248 569 237 574 q 266 551 259 563 q 271 520 272 539 q 256 474 270 502 q 217 409 231 433 q 192 372 204 391 q 169 335 180 354 q 231 409 198 372 q 297 479 265 446 q 360 534 330 511 q 417 567 391 557 q 528 550 506 600 q 489 400 550 500 q 472 375 483 389 q 450 347 461 361 q 429 321 439 333 q 415 306 419 309 q 394 282 406 294 q 367 270 381 270 q 342 278 350 269 q 332 302 333 287 q 341 333 331 317 q 370 365 350 350 q 394 381 383 374 q 414 398 404 389 q 430 417 424 407 q 436 438 433 428 q 441 457 439 448 q 444 479 444 470 q 444 491 444 487 l 444 498 q 408 499 431 509 q 363 472 385 489 q 306 426 335 452 q 120 217 178 304 q 46 94 63 130 q 26 15 31 50 q 13 0 22 -2 q 0 4 4 2 z "},"s":{"ha":320,"x_min":-152,"x_max":461,"o":"m 448 322 q 461 324 461 328 q 453 312 461 320 q 433 294 444 304 q 417 281 422 285 q 377 264 402 274 q 324 244 352 254 q 269 224 296 233 q 224 209 243 215 q 215 170 224 207 q 178 89 206 133 q 99 8 150 44 q -37 -28 48 -28 q -74 -24 -54 -28 q -112 -11 -94 -20 q -141 12 -130 -2 q -146 48 -152 26 q -134 81 -144 61 q -94 122 -124 100 q -12 169 -65 144 q 128 217 41 194 q 131 235 130 226 q 135 254 133 244 q 140 278 139 267 q 143 298 141 289 q 144 315 144 307 q 144 324 144 315 q 144 344 144 333 q 144 366 144 356 q 143 376 143 376 q 152 462 141 409 q 186 564 163 515 q 245 649 209 613 q 331 685 281 685 q 366 675 348 685 q 378 630 383 665 q 359 579 374 606 q 325 524 344 552 q 283 470 306 496 q 243 426 261 444 q 242 410 243 417 q 240 392 241 404 q 238 361 239 380 q 235 313 237 343 l 235 293 q 234 271 235 283 q 231 244 233 259 q 318 273 272 259 q 404 306 363 287 l 448 322 m 81 102 q 103 140 94 120 q 117 180 111 159 q 76 170 109 180 q 4 143 43 161 q -69 99 -35 124 q -109 44 -102 74 q -93 21 -113 33 q -35 9 -72 9 q -26 10 -31 9 q -17 11 -20 11 q -7 18 -19 11 q 20 36 4 24 q 54 65 37 48 q 81 102 70 81 m 309 630 q 275 601 289 628 q 254 543 261 574 q 250 519 250 530 q 248 500 250 509 q 301 572 285 546 q 320 611 317 598 q 319 628 324 626 q 309 630 313 630 z "},"t":{"ha":267,"x_min":-24,"x_max":993,"o":"m 267 163 q 287 176 280 170 q 300 179 294 180 q 304 169 306 178 q 296 154 302 161 q 270 124 287 139 q 233 94 261 117 q 171 49 206 72 q 100 9 137 26 q 35 -6 63 -7 q 6 4 19 -4 q -15 29 -9 13 q -22 61 -20 44 q -16 113 -24 85 q -4 156 -7 141 q 29 239 9 193 q 74 339 48 285 q 113 411 93 374 q 157 491 133 448 q 182 529 170 509 q 209 569 194 548 q 277 665 241 617 q 356 767 313 713 q 144 744 228 756 q 59 731 61 733 l 56 731 q 37 748 41 731 q 52 769 33 765 q 79 772 52 769 q 151 781 106 776 q 257 794 196 787 q 389 806 319 800 q 462 888 424 846 q 543 972 500 930 q 552 979 546 976 q 567 978 557 981 q 582 964 574 972 q 594 943 591 956 q 593 912 598 930 q 569 870 587 894 q 554 854 561 861 q 538 835 546 844 q 519 811 530 826 q 578 813 548 813 q 639 813 607 813 l 733 813 q 812 817 781 813 q 854 824 843 820 q 870 830 863 828 q 885 835 878 831 q 900 843 893 839 q 942 850 922 852 q 974 840 961 848 q 990 819 987 831 q 983 793 993 806 q 943 772 969 774 q 906 770 917 770 q 871 773 887 772 q 843 774 856 774 l 813 774 q 753 774 783 774 q 697 775 722 774 q 656 776 672 776 q 637 776 639 776 q 561 776 600 776 q 485 774 522 776 q 374 635 437 717 q 246 461 311 554 q 157 326 200 394 q 83 193 115 257 q 44 104 61 144 l 39 87 q 33 56 35 70 q 44 37 31 41 q 100 50 63 31 q 174 94 137 69 q 267 163 219 124 z "},"u":{"ha":557,"x_min":-7,"x_max":594,"o":"m 556 163 q 576 176 569 170 q 589 179 583 180 q 593 169 594 178 q 585 154 591 161 q 559 124 576 139 q 522 94 550 117 q 460 49 494 72 q 389 9 426 26 q 324 -6 352 -7 q 286 10 300 -4 q 266 44 272 24 q 260 90 259 65 q 267 137 261 115 q 269 145 269 141 q 270 154 269 150 q 219 94 244 122 q 168 44 193 65 q 119 10 143 22 q 74 0 94 -2 q 24 22 41 2 q -2 73 4 43 q -4 133 -7 104 q 7 188 0 163 q 20 224 15 213 q 69 335 41 276 q 141 465 98 394 q 160 496 150 480 q 181 530 170 513 q 193 547 187 539 q 204 565 198 556 q 206 567 204 565 q 207 570 206 569 q 226 578 217 580 q 244 569 233 574 q 262 551 256 563 q 268 520 269 539 q 252 474 267 502 q 213 409 228 433 q 142 297 176 354 q 81 187 107 241 q 57 115 59 141 q 63 74 56 89 q 87 52 70 57 q 133 70 106 50 q 193 124 161 91 q 256 198 224 157 q 319 280 289 239 q 371 355 348 320 q 407 409 394 389 q 415 420 411 417 q 417 424 417 422 q 419 428 417 426 l 420 428 q 431 445 426 437 q 443 463 437 454 q 475 513 457 489 q 511 563 493 537 l 513 565 q 522 573 517 569 q 535 574 528 578 q 553 565 543 570 q 569 547 563 559 q 574 518 576 535 q 556 472 572 500 q 531 433 541 448 q 517 409 522 419 q 511 402 515 406 q 494 377 507 398 q 463 328 481 356 q 425 269 444 300 q 391 213 406 237 l 391 211 l 381 198 q 360 159 370 178 q 343 122 350 141 q 326 81 331 100 q 322 54 322 67 q 333 37 322 41 q 389 50 352 31 q 463 94 426 69 q 556 163 507 124 z "},"v":{"ha":457,"x_min":-7,"x_max":589,"o":"m 546 367 q 558 368 550 367 q 574 368 567 369 q 585 363 581 367 q 583 352 589 359 q 555 337 569 341 q 524 331 541 333 q 481 331 502 328 l 476 331 q 445 334 461 333 q 413 339 430 335 q 344 238 385 296 q 255 126 302 180 q 159 35 207 72 q 74 0 111 -2 q 22 22 39 2 q -3 73 2 43 q -5 133 -7 104 q 6 188 -2 163 q 19 224 13 213 l 20 224 q 139 465 59 330 q 159 496 148 480 q 180 530 170 513 q 191 547 185 539 q 202 565 196 556 q 204 567 204 565 q 207 570 207 570 q 226 578 215 581 q 244 569 233 574 q 262 551 256 563 q 268 520 269 539 q 252 474 267 502 q 213 409 226 433 q 142 297 176 354 q 81 187 107 241 q 57 115 59 141 q 61 74 56 89 q 85 52 69 57 q 145 81 109 50 q 221 157 181 111 q 300 256 261 204 q 367 350 339 307 q 320 412 326 370 q 335 502 315 454 q 383 563 352 541 q 446 572 415 585 q 474 542 469 563 q 476 494 480 520 q 463 444 472 469 q 446 400 454 419 q 440 385 443 391 q 435 376 437 380 q 437 374 435 374 q 462 369 448 370 q 491 367 476 369 l 522 367 l 546 367 m 387 385 q 403 416 393 394 q 421 460 413 437 q 432 505 430 483 q 428 533 435 526 q 395 518 415 544 q 369 459 376 491 q 366 421 365 444 q 387 385 367 398 z "},"w":{"ha":691,"x_min":-9,"x_max":824,"o":"m 711 331 q 681 334 696 333 q 650 339 665 335 q 580 239 622 298 q 490 126 537 180 q 395 35 443 72 q 309 0 348 -2 q 275 17 285 2 q 261 41 265 31 q 255 107 252 72 q 265 172 257 143 q 208 106 237 139 q 151 50 180 74 q 95 12 122 26 q 46 0 69 -2 q 12 17 22 2 q -2 41 2 31 q -8 94 -9 65 q -3 148 -7 122 q 8 194 2 174 q 19 224 15 215 q 69 335 39 276 q 139 465 98 394 q 158 496 148 480 q 180 530 169 513 q 191 547 185 539 q 202 565 196 556 l 204 567 q 206 570 204 569 q 226 578 215 580 q 244 569 233 574 q 262 551 256 563 q 267 520 269 539 q 250 474 265 502 q 211 409 226 433 q 141 297 174 354 q 81 187 107 241 q 52 115 59 141 q 46 74 44 89 q 57 52 48 57 q 99 68 74 50 q 153 114 124 85 q 212 179 181 143 q 270 254 243 215 q 324 333 296 291 q 369 407 352 376 q 385 436 378 422 q 402 465 393 450 q 421 496 411 480 q 443 530 431 513 q 454 547 448 539 q 465 565 459 556 l 467 567 q 469 570 467 569 q 489 578 478 580 q 507 569 496 574 q 525 551 519 563 q 530 520 531 539 q 513 474 528 502 q 474 409 489 433 q 404 297 437 354 q 344 187 370 241 q 315 115 322 141 q 309 74 307 89 q 320 52 311 57 q 381 81 344 50 q 456 157 417 111 q 535 256 496 204 q 602 350 574 307 q 556 412 561 370 q 570 502 550 454 q 619 563 587 541 q 681 572 650 585 q 709 542 704 563 q 712 494 715 520 q 699 444 709 469 q 681 400 689 419 q 675 385 678 391 q 670 376 672 380 q 672 374 670 374 q 697 369 683 370 q 726 367 711 369 l 757 367 l 783 367 q 795 368 787 367 q 810 368 804 369 q 820 363 817 367 q 819 352 824 359 q 790 337 804 341 q 761 331 776 333 q 717 331 737 328 l 711 331 m 604 459 q 601 421 600 444 q 622 385 602 398 q 638 416 628 394 q 656 460 648 437 q 668 505 665 483 q 663 533 670 526 q 631 518 650 544 q 604 459 611 491 z "},"x":{"ha":467,"x_min":-54,"x_max":594,"o":"m 569 572 q 584 534 594 561 q 533 498 574 507 q 520 496 524 498 q 504 496 515 496 q 481 493 493 496 q 470 491 476 491 q 453 484 463 487 q 431 476 443 481 q 369 434 400 456 q 306 391 337 413 q 226 200 257 294 q 222 186 224 196 q 217 167 220 176 q 211 104 211 141 q 213 91 213 96 q 215 80 213 85 q 225 55 219 67 q 241 37 231 43 l 244 37 q 295 49 261 31 q 367 91 330 67 q 404 118 387 104 q 435 141 420 131 q 467 163 452 152 q 487 176 480 170 q 500 179 494 180 q 502 169 506 178 q 494 154 500 161 q 470 124 485 139 q 442 102 461 119 q 395 67 422 85 q 338 30 369 48 q 280 2 307 11 q 267 -2 276 0 q 243 -2 257 -4 l 231 -2 q 209 4 220 -2 q 191 17 198 9 q 156 68 167 37 q 144 128 146 98 q 145 183 143 157 q 152 220 148 209 q 160 257 156 239 q 172 296 165 276 q 97 231 135 269 q 31 148 59 193 q 24 131 28 141 q 19 112 20 122 q 17 87 17 102 q 19 72 17 80 q 22 57 20 65 q 26 41 24 50 q 27 -2 31 17 q 11 -31 22 -20 q -14 -43 0 -43 q -39 -31 -28 -43 q -50 -6 -46 -20 l -50 -2 q -53 20 -54 9 q -50 41 -52 31 q -46 61 -48 50 q -44 65 -46 63 q -44 71 -44 69 q -41 80 -43 74 q -28 116 -35 98 q -9 152 -20 133 q 93 276 26 215 q 144 322 119 302 q 191 357 170 343 q 230 459 206 404 q 244 493 237 476 q 259 526 250 509 q 267 543 263 535 q 274 559 270 550 q 275 561 274 561 q 276 563 276 561 q 278 567 276 563 q 296 572 287 576 q 317 563 306 569 q 336 545 328 557 q 347 515 344 533 q 339 469 350 496 q 336 462 337 465 q 333 456 335 459 q 410 506 372 481 q 487 552 448 530 q 517 567 502 559 q 569 572 546 580 z "},"y":{"ha":556,"x_min":-789,"x_max":594,"o":"m 593 169 q 585 154 591 161 q 559 124 576 139 q 522 94 550 117 q 460 49 494 72 q 389 9 426 26 q 324 -6 352 -7 q 294 5 306 -4 q 274 26 281 13 q 158 -119 224 -44 q 14 -256 93 -194 q -156 -355 -65 -317 q -350 -387 -248 -393 q -449 -373 -391 -385 q -569 -331 -507 -361 q -684 -252 -630 -302 q -772 -126 -739 -202 q -783 -96 -780 -111 q -788 -69 -787 -83 q -780 -43 -789 -54 q -731 -36 -759 -17 q -707 -104 -704 -56 q -709 -137 -709 -120 q -708 -167 -709 -152 q -700 -191 -707 -181 q -656 -242 -683 -215 q -585 -292 -628 -269 q -485 -331 -543 -315 q -350 -352 -428 -348 q -173 -313 -257 -356 q -16 -204 -89 -270 q 118 -56 57 -137 q 224 98 178 26 q 145 27 185 56 q 74 0 106 -2 q 24 22 41 2 q -2 73 4 43 q -4 133 -7 104 q 7 188 0 163 q 20 224 15 213 q 69 335 41 276 q 141 465 98 394 q 160 496 150 480 q 181 530 170 513 q 193 547 187 539 q 204 565 198 556 q 206 567 204 565 q 207 570 206 569 q 226 578 217 580 q 244 569 233 574 q 262 551 256 563 q 268 520 269 539 q 252 474 267 502 q 213 409 228 433 q 142 297 176 354 q 81 187 107 241 q 57 115 59 141 q 63 74 56 89 q 87 52 70 57 q 133 70 106 50 q 193 124 161 91 q 256 198 224 157 q 319 280 289 239 q 371 355 348 320 q 407 409 394 389 q 415 420 411 417 q 417 424 417 422 q 419 428 417 426 l 420 428 q 431 445 426 437 q 443 463 437 454 q 475 513 457 489 q 511 563 493 537 l 513 565 q 522 573 517 569 q 535 574 528 578 q 553 565 543 570 q 569 547 563 559 q 574 518 576 535 q 556 472 572 500 q 531 433 541 448 q 517 409 522 419 q 511 402 515 406 q 494 377 507 398 q 463 328 481 356 q 425 269 444 300 q 391 213 406 237 l 391 211 l 381 198 q 375 186 378 193 q 369 174 372 180 q 353 147 359 159 q 343 122 346 135 q 326 81 331 100 q 322 54 322 67 q 333 37 322 41 q 389 50 352 31 q 463 94 426 69 q 556 163 507 124 q 576 176 569 170 q 589 179 583 180 q 593 169 594 178 z "},"z":{"ha":437,"x_min":-231,"x_max":489,"o":"m 267 193 q 219 122 237 154 q 194 81 202 100 q 185 54 187 67 q 194 37 183 41 q 251 50 211 31 q 333 94 291 69 q 439 163 381 124 q 461 176 452 170 q 475 179 470 180 q 476 169 480 178 q 467 154 472 161 q 435 124 454 139 q 394 95 424 117 q 328 52 365 74 q 252 12 291 30 q 185 -6 213 -6 q 176 -153 193 -76 q 125 -288 159 -230 q 44 -376 91 -346 q -52 -380 -2 -406 q -84 -317 -85 -363 q -61 -209 -83 -270 q 0 -79 -39 -148 q 80 56 39 -9 q 65 57 69 56 q 59 61 61 59 q 41 82 44 70 q 39 105 37 94 q 45 122 41 115 q 54 133 50 130 q 76 148 63 146 q 98 146 89 150 q 128 130 113 144 q 176 201 154 170 q 211 250 198 231 q 261 318 235 283 q 309 381 287 352 q 349 430 331 409 q 374 457 367 450 q 385 475 383 467 q 387 489 387 483 q 383 498 387 496 q 337 494 372 509 q 331 493 335 494 q 324 489 328 491 q 296 477 309 480 q 274 474 283 474 q 266 458 270 465 q 257 443 261 452 q 236 401 248 422 q 213 359 224 380 q 84 181 159 267 q -117 31 9 94 q -167 8 -137 20 q -217 2 -196 -4 q -226 13 -231 7 q -213 30 -226 22 q -154 56 -187 41 q -96 87 -120 72 q -4 160 -50 117 q 84 256 43 204 q 161 367 126 307 q 222 485 196 426 q 174 533 187 502 q 164 597 161 565 q 181 656 167 630 q 213 693 194 683 q 282 685 254 711 q 313 607 311 659 q 310 573 315 593 q 298 533 306 554 q 300 535 298 533 q 318 543 309 539 q 330 548 326 546 q 349 558 339 554 q 369 567 359 563 q 444 574 415 583 q 481 538 474 565 q 474 469 489 511 q 419 378 459 428 q 397 351 411 369 q 366 313 383 333 q 330 270 348 293 q 298 231 311 248 q 284 214 294 226 q 267 193 274 202 m 239 531 q 254 611 256 580 q 233 635 252 643 q 211 604 215 628 q 211 578 209 593 q 222 547 215 557 q 239 531 230 537 m 76 102 q 81 83 67 91 q 94 85 87 80 q 104 93 100 91 l 104 94 q 76 102 85 119 m -19 -356 q 64 -299 31 -343 q 115 -203 96 -256 q 139 -97 133 -150 q 143 -13 144 -44 q 141 0 141 -6 q 139 13 141 6 q 36 -167 69 -96 q -9 -280 4 -237 q -19 -356 -24 -328 z "},"-":{"ha":576,"x_min":98,"x_max":487,"o":"m 461 278 l 463 278 q 475 275 469 278 q 483 265 481 272 q 486 244 485 256 q 480 220 487 231 q 456 201 472 209 q 409 193 441 193 q 383 193 394 193 q 346 193 372 193 q 269 194 320 193 q 124 198 219 194 l 122 198 q 110 201 117 198 q 102 211 104 204 q 99 232 100 220 q 106 256 98 244 q 129 275 113 267 q 176 283 144 283 l 461 278 z "},"+":{"ha":422,"x_min":19,"x_max":407,"o":"m 161 194 q 108 195 137 194 q 44 198 80 196 l 43 198 q 31 201 37 198 q 22 211 24 204 q 19 232 20 220 q 26 256 19 244 q 49 275 33 267 q 96 283 65 283 l 174 281 l 193 409 l 193 411 q 198 423 194 417 q 209 430 202 430 q 231 429 219 430 q 253 420 243 428 q 269 395 263 413 q 272 348 274 378 q 268 320 269 333 q 263 280 267 307 l 381 278 l 383 278 q 395 275 389 278 q 404 265 402 272 q 406 244 406 256 q 400 220 407 231 q 377 201 393 209 q 330 193 361 193 q 298 192 313 193 q 250 193 283 191 q 242 137 246 167 q 231 65 237 107 l 231 63 q 226 51 230 57 q 215 44 222 44 q 194 45 206 44 q 171 55 181 46 q 155 80 161 63 q 152 128 148 96 l 161 194 z "},"*":{"ha":431,"x_min":19,"x_max":407,"o":"m 154 569 l 104 531 l 104 530 q 91 525 98 526 q 78 530 83 524 q 63 544 70 535 q 54 564 56 552 q 57 592 52 576 q 83 626 63 607 q 64 627 74 626 q 44 628 54 628 l 43 628 q 31 631 37 628 q 22 641 24 633 q 19 662 20 650 q 26 685 19 674 q 49 705 33 696 q 96 713 65 713 l 107 713 l 67 757 l 65 759 q 58 770 61 763 q 59 783 56 778 q 73 800 65 791 q 94 812 81 809 q 123 809 106 815 q 163 781 141 804 l 181 761 l 193 839 l 193 841 q 198 853 194 846 q 209 859 202 859 q 231 858 219 859 q 253 850 243 857 q 269 825 263 843 q 272 778 274 807 q 270 765 270 772 l 320 804 l 322 804 q 334 808 326 807 q 346 806 343 809 q 359 791 352 800 q 369 769 367 781 q 366 742 372 757 q 339 707 359 726 l 381 707 l 383 707 q 395 705 389 707 q 404 694 402 702 q 406 673 406 685 q 400 650 407 661 q 377 631 393 639 q 330 622 361 622 l 317 622 l 361 576 l 363 576 q 369 565 367 572 q 367 552 370 557 q 354 534 361 543 q 333 522 346 526 q 304 524 320 519 q 265 552 287 530 l 243 572 l 231 494 l 231 493 q 226 481 230 487 q 215 474 222 474 q 194 475 206 474 q 171 484 181 476 q 155 509 161 493 q 152 557 148 526 l 154 569 z "},"/":{"ha":267,"x_min":17,"x_max":250,"o":"m 169 1107 l 169 1109 q 174 1121 170 1115 q 185 1128 178 1128 q 206 1127 194 1128 q 229 1119 219 1126 q 244 1094 239 1111 q 248 1046 250 1076 q 238 976 246 1037 q 216 825 230 915 q 186 625 202 735 q 154 406 170 515 q 123 203 137 298 q 100 44 109 107 l 100 43 q 94 31 98 37 q 83 24 91 24 q 62 25 74 24 q 40 34 50 26 q 23 59 30 43 q 20 107 17 76 l 169 1107 z "},",":{"ha":161,"x_min":33,"x_max":148,"o":"m 43 -59 q 48 -43 46 -50 q 52 -28 50 -35 q 56 -11 54 -20 q 73 28 61 13 q 100 47 85 43 q 127 47 115 52 q 144 26 139 43 q 144 -2 148 11 q 131 -26 139 -15 q 111 -52 124 -39 q 109 -56 115 -56 q 100 -65 107 -57 q 83 -79 93 -72 q 63 -91 74 -85 q 44 -93 52 -96 q 43 -89 44 -93 q 43 -59 33 -83 z "},".":{"ha":144,"x_min":30,"x_max":130,"o":"m 37 -11 q 55 28 43 13 q 81 47 67 43 q 108 47 96 52 q 126 26 120 43 q 125 -2 130 11 q 113 -26 120 -15 q 93 -52 106 -39 q 50 -64 70 -67 q 37 -11 30 -61 z "},"=":{"ha":687,"x_min":146,"x_max":535,"o":"m 509 206 l 511 206 q 523 203 517 206 q 531 193 530 200 q 534 171 533 183 q 528 148 535 159 q 505 129 520 137 q 457 120 489 120 q 431 120 443 120 q 394 120 420 120 q 318 121 369 120 q 172 126 267 122 l 170 126 q 158 129 165 126 q 150 139 152 131 q 147 160 148 148 q 154 183 146 172 q 177 203 161 194 q 224 211 193 211 l 509 206 m 509 348 l 511 348 q 523 345 517 348 q 531 335 530 343 q 534 314 533 326 q 528 291 535 302 q 505 271 520 280 q 457 263 489 263 q 431 263 443 263 q 394 263 420 263 q 318 264 369 263 q 172 269 267 265 l 170 269 q 158 271 165 269 q 150 281 152 274 q 147 303 148 291 q 154 326 146 315 q 177 345 161 337 q 224 354 193 354 l 509 348 z "},"":{"ha":363,"x_min":17,"x_max":250,"o":"m 169 1107 l 169 1109 q 174 1121 170 1115 q 185 1128 178 1128 q 206 1127 194 1128 q 229 1119 219 1126 q 244 1094 239 1111 q 248 1046 250 1076 q 238 976 246 1037 q 216 825 230 915 q 186 625 202 735 q 154 406 170 515 q 123 203 137 298 q 100 44 109 107 l 100 43 q 94 31 98 37 q 83 24 91 24 q 62 25 74 24 q 40 34 50 26 q 23 59 30 43 q 20 107 17 76 l 169 1107 z "},"'":{"ha":548,"x_min":746,"x_max":861,"o":"m 756 867 q 761 883 759 876 q 765 898 763 891 q 769 915 767 906 q 786 954 774 939 q 813 973 798 969 q 840 973 828 978 q 857 952 852 969 q 856 924 861 937 q 844 900 852 911 q 824 874 837 887 q 822 870 828 870 q 813 861 820 869 q 796 847 806 854 q 776 835 787 841 q 757 833 765 830 q 756 837 757 833 q 756 867 746 843 z "},"":{"ha":552,"x_min":446,"x_max":561,"o":"m 456 867 q 461 883 459 876 q 465 898 463 891 q 469 915 467 906 q 486 954 474 939 q 513 973 498 969 q 540 973 528 978 q 557 952 552 969 q 556 924 561 937 q 544 900 552 911 q 524 874 537 887 q 522 870 528 870 q 513 861 520 869 q 496 847 506 854 q 476 835 487 841 q 457 833 465 830 q 456 837 457 833 q 456 867 446 843 z "},"`":{"ha":239,"x_min":33,"x_max":228,"o":"m 181 633 q 196 623 187 628 q 213 615 206 619 q 224 609 220 611 q 224 606 228 607 q 183 607 204 600 q 143 620 163 615 q 124 628 141 620 q 87 647 107 635 q 50 675 67 659 q 33 709 33 691 q 69 733 33 733 q 94 728 85 733 q 111 709 102 722 q 135 678 120 696 q 181 633 150 659 z "},"":{"ha":204,"x_min":4,"x_max":200,"o":"m 50 689 q 111 670 87 674 q 150 665 135 667 q 174 659 165 663 q 193 641 183 656 q 199 616 200 628 q 189 598 198 604 q 151 595 172 589 q 109 614 130 602 q 74 637 89 626 q 57 650 59 648 q 26 679 43 665 q 4 713 9 693 q 7 715 4 717 q 18 707 11 713 q 32 696 24 702 q 50 689 41 691 z "},"":{"ha":300,"x_min":2,"x_max":252,"o":"m 48 669 q 101 701 83 687 q 130 724 119 715 q 146 731 137 731 q 163 730 150 733 l 169 726 q 174 722 172 722 q 178 717 178 719 q 180 715 178 715 q 185 700 185 706 q 194 669 189 689 q 219 613 200 648 q 237 585 222 598 q 244 572 252 572 q 213 588 228 574 q 183 613 198 602 q 169 626 181 613 q 143 656 156 639 q 99 644 120 646 q 74 643 78 643 q 41 644 59 644 q 7 656 22 643 q 19 659 2 659 q 48 669 35 659 z "},"":{"ha":254,"x_min":17,"x_max":237,"o":"m 24 698 q 42 737 30 722 q 69 756 54 752 q 95 756 83 761 q 113 735 107 752 q 112 707 117 720 q 100 683 107 694 q 80 657 93 670 q 37 645 57 643 q 24 698 17 648 m 144 654 q 162 693 150 678 q 189 712 174 707 q 216 712 204 717 q 233 691 228 707 q 232 663 237 676 q 220 639 228 650 q 200 613 213 626 q 157 601 178 598 q 144 654 137 604 z "},"":{"ha":270,"x_min":4,"x_max":261,"o":"m 46 674 q 18 671 31 678 q 6 674 4 665 q 31 705 13 694 q 72 715 50 715 q 117 706 94 715 q 156 681 139 698 q 164 669 161 676 q 172 656 167 663 q 187 641 178 650 q 217 619 196 631 q 245 604 230 606 q 256 596 261 602 q 225 588 243 585 q 191 594 207 591 q 167 599 189 594 q 120 630 144 604 q 98 656 109 639 q 46 674 87 672 z "},"":{"ha":174,"x_min":26,"x_max":154,"o":"m 69 672 q 75 643 65 644 q 98 650 85 641 q 109 665 104 657 q 117 693 120 678 q 93 706 111 711 q 69 672 74 700 m 31 667 q 55 719 37 700 q 91 745 72 739 q 127 745 109 752 q 150 717 144 739 q 148 680 154 698 q 133 646 143 661 q 106 611 122 628 q 76 596 91 602 q 49 595 61 591 q 31 617 37 600 q 31 667 26 633 z "},"":{"ha":298,"x_min":46,"x_max":296,"o":"m 250 637 q 197 605 215 619 q 169 581 180 591 q 152 574 161 574 q 135 576 148 572 l 130 580 q 124 583 126 583 q 120 589 120 587 q 119 591 120 591 q 113 606 113 598 q 104 637 109 617 q 80 693 98 657 q 61 720 76 707 q 54 733 46 733 q 85 718 70 731 q 115 693 100 704 q 130 680 117 693 q 156 650 143 667 q 199 661 178 659 q 224 663 220 663 q 257 662 239 661 q 291 650 276 663 q 280 646 296 646 q 250 637 263 646 z "},"":{"ha":1780,"x_min":37,"x_max":2217,"o":"m 569 -81 q 354 -45 452 -81 q 185 59 256 -9 q 76 226 115 128 q 37 448 37 324 q 106 739 37 615 q 276 945 174 863 q 494 1069 378 1028 q 707 1111 611 1111 q 880 1089 789 1111 q 1047 1017 970 1067 q 1174 885 1124 967 q 1224 685 1224 804 q 1219 621 1224 665 q 1204 533 1215 578 q 1173 456 1193 489 q 1124 422 1154 422 q 1101 433 1109 422 q 1093 459 1093 444 q 1122 517 1093 489 q 1144 537 1135 526 q 1162 558 1154 546 q 1176 585 1170 570 q 1187 685 1187 635 q 1161 827 1187 767 q 1094 931 1135 887 q 1000 1002 1052 974 q 894 1045 948 1030 q 791 1068 841 1061 q 706 1074 741 1074 q 499 1031 609 1074 q 295 909 389 989 q 140 715 202 830 q 78 456 78 600 q 106 262 78 343 q 180 126 135 181 q 280 37 224 70 q 390 -14 335 4 q 492 -37 444 -31 q 569 -43 539 -43 q 764 -5 665 -43 q 960 97 863 33 q 1152 245 1057 161 q 1335 420 1246 330 q 1287 421 1293 420 q 1280 437 1281 422 q 1280 448 1280 444 q 1288 454 1280 452 q 1316 456 1296 456 q 1372 459 1335 457 q 1448 539 1411 500 q 1519 615 1485 578 q 1723 823 1630 737 q 1887 962 1817 909 q 2003 1039 1957 1015 q 2065 1063 2048 1063 q 2098 1046 2078 1063 q 2120 987 2119 1030 q 2082 931 2120 981 q 1984 800 2044 881 q 1850 610 1924 719 q 1702 380 1776 502 q 1647 289 1676 337 q 1595 195 1619 241 q 1556 114 1572 150 q 1541 61 1541 78 q 1565 35 1541 35 q 1622 55 1585 35 q 1694 98 1659 74 q 1780 163 1735 126 q 1791 170 1783 167 q 1801 177 1794 174 q 1811 180 1807 180 q 1817 172 1817 180 q 1812 156 1817 169 q 1783 124 1807 144 q 1748 95 1774 117 q 1688 52 1722 74 q 1618 12 1654 30 q 1554 -6 1581 -6 q 1494 25 1511 -6 q 1476 93 1476 56 q 1487 155 1476 117 q 1518 236 1498 193 q 1563 327 1537 280 q 1617 417 1589 374 q 1495 421 1556 420 q 1389 422 1435 422 q 1196 235 1296 326 q 992 74 1096 144 q 781 -39 887 4 q 569 -81 674 -81 m 1546 591 q 1486 527 1517 559 q 1424 459 1456 494 q 1527 458 1470 459 q 1637 454 1583 457 q 1723 592 1678 522 q 1813 725 1769 661 q 1897 846 1857 789 q 1970 948 1937 904 q 1814 843 1911 913 q 1613 663 1717 772 q 1595 644 1604 654 q 1580 628 1587 635 l 1581 628 q 1564 609 1572 619 q 1546 591 1556 600 m 2170 1126 q 2185 1116 2176 1120 q 2202 1107 2194 1111 q 2213 1102 2209 1104 q 2213 1098 2217 1100 q 2172 1100 2193 1093 q 2131 1113 2152 1107 q 2113 1120 2130 1113 q 2076 1140 2096 1128 q 2039 1168 2056 1152 q 2022 1202 2022 1183 q 2057 1226 2022 1226 q 2082 1220 2074 1226 q 2100 1202 2091 1215 q 2124 1170 2109 1189 q 2170 1126 2139 1152 z "},"":{"ha":1780,"x_min":37,"x_max":2231,"o":"m 569 -81 q 354 -45 452 -81 q 185 59 256 -9 q 76 226 115 128 q 37 448 37 324 q 106 739 37 615 q 276 945 174 863 q 494 1069 378 1028 q 707 1111 611 1111 q 880 1089 789 1111 q 1047 1017 970 1067 q 1174 885 1124 967 q 1224 685 1224 804 q 1219 621 1224 665 q 1204 533 1215 578 q 1173 456 1193 489 q 1124 422 1154 422 q 1101 433 1109 422 q 1093 459 1093 444 q 1122 517 1093 489 q 1144 537 1135 526 q 1162 558 1154 546 q 1176 585 1170 570 q 1187 685 1187 635 q 1161 827 1187 767 q 1094 931 1135 887 q 1000 1002 1052 974 q 894 1045 948 1030 q 791 1068 841 1061 q 706 1074 741 1074 q 499 1031 609 1074 q 295 909 389 989 q 140 715 202 830 q 78 456 78 600 q 106 262 78 343 q 180 126 135 181 q 280 37 224 70 q 390 -14 335 4 q 492 -37 444 -31 q 569 -43 539 -43 q 764 -5 665 -43 q 960 97 863 33 q 1152 245 1057 161 q 1335 420 1246 330 q 1287 421 1293 420 q 1280 437 1281 422 q 1280 448 1280 444 q 1288 454 1280 452 q 1316 456 1296 456 q 1372 459 1335 457 q 1448 539 1411 500 q 1519 615 1485 578 q 1723 823 1630 737 q 1887 962 1817 909 q 2003 1039 1957 1015 q 2065 1063 2048 1063 q 2098 1046 2078 1063 q 2120 987 2119 1030 q 2082 931 2120 981 q 1984 800 2044 881 q 1850 610 1924 719 q 1702 380 1776 502 q 1647 289 1676 337 q 1595 195 1619 241 q 1556 114 1572 150 q 1541 61 1541 78 q 1565 35 1541 35 q 1622 55 1585 35 q 1694 98 1659 74 q 1780 163 1735 126 q 1791 170 1783 167 q 1801 177 1794 174 q 1811 180 1807 180 q 1817 172 1817 180 q 1812 156 1817 169 q 1783 124 1807 144 q 1748 95 1774 117 q 1688 52 1722 74 q 1618 12 1654 30 q 1554 -6 1581 -6 q 1494 25 1511 -6 q 1476 93 1476 56 q 1487 155 1476 117 q 1518 236 1498 193 q 1563 327 1537 280 q 1617 417 1589 374 q 1495 421 1556 420 q 1389 422 1435 422 q 1196 235 1296 326 q 992 74 1096 144 q 781 -39 887 4 q 569 -81 674 -81 m 1546 591 q 1486 527 1517 559 q 1424 459 1456 494 q 1527 458 1470 459 q 1637 454 1583 457 q 1723 592 1678 522 q 1813 725 1769 661 q 1897 846 1857 789 q 1970 948 1937 904 q 1814 843 1911 913 q 1613 663 1717 772 q 1595 644 1604 654 q 1580 628 1587 635 l 1581 628 q 1564 609 1572 619 q 1546 591 1556 600 m 2081 1178 q 2143 1159 2119 1163 q 2181 1154 2167 1156 q 2206 1148 2196 1152 q 2224 1130 2215 1144 q 2231 1105 2231 1117 q 2220 1087 2230 1093 q 2182 1084 2204 1078 q 2141 1103 2161 1091 q 2106 1126 2120 1115 q 2089 1139 2091 1137 q 2057 1168 2074 1154 q 2035 1202 2041 1181 q 2039 1204 2035 1206 q 2049 1196 2043 1202 q 2064 1185 2056 1191 q 2081 1178 2072 1180 z "},"":{"ha":1780,"x_min":37,"x_max":2215,"o":"m 569 -81 q 354 -45 452 -81 q 185 59 256 -9 q 76 226 115 128 q 37 448 37 324 q 106 739 37 615 q 276 945 174 863 q 494 1069 378 1028 q 707 1111 611 1111 q 880 1089 789 1111 q 1047 1017 970 1067 q 1174 885 1124 967 q 1224 685 1224 804 q 1219 621 1224 665 q 1204 533 1215 578 q 1173 456 1193 489 q 1124 422 1154 422 q 1101 433 1109 422 q 1093 459 1093 444 q 1122 517 1093 489 q 1144 537 1135 526 q 1162 558 1154 546 q 1176 585 1170 570 q 1187 685 1187 635 q 1161 827 1187 767 q 1094 931 1135 887 q 1000 1002 1052 974 q 894 1045 948 1030 q 791 1068 841 1061 q 706 1074 741 1074 q 499 1031 609 1074 q 295 909 389 989 q 140 715 202 830 q 78 456 78 600 q 106 262 78 343 q 180 126 135 181 q 280 37 224 70 q 390 -14 335 4 q 492 -37 444 -31 q 569 -43 539 -43 q 764 -5 665 -43 q 960 97 863 33 q 1152 245 1057 161 q 1335 420 1246 330 q 1287 421 1293 420 q 1280 437 1281 422 q 1280 448 1280 444 q 1288 454 1280 452 q 1316 456 1296 456 q 1372 459 1335 457 q 1448 539 1411 500 q 1519 615 1485 578 q 1723 823 1630 737 q 1887 962 1817 909 q 2003 1039 1957 1015 q 2065 1063 2048 1063 q 2098 1046 2078 1063 q 2120 987 2119 1030 q 2082 931 2120 981 q 1984 800 2044 881 q 1850 610 1924 719 q 1702 380 1776 502 q 1647 289 1676 337 q 1595 195 1619 241 q 1556 114 1572 150 q 1541 61 1541 78 q 1565 35 1541 35 q 1622 55 1585 35 q 1694 98 1659 74 q 1780 163 1735 126 q 1791 170 1783 167 q 1801 177 1794 174 q 1811 180 1807 180 q 1817 172 1817 180 q 1812 156 1817 169 q 1783 124 1807 144 q 1748 95 1774 117 q 1688 52 1722 74 q 1618 12 1654 30 q 1554 -6 1581 -6 q 1494 25 1511 -6 q 1476 93 1476 56 q 1487 155 1476 117 q 1518 236 1498 193 q 1563 327 1537 280 q 1617 417 1589 374 q 1495 421 1556 420 q 1389 422 1435 422 q 1196 235 1296 326 q 992 74 1096 144 q 781 -39 887 4 q 569 -81 674 -81 m 1546 591 q 1486 527 1517 559 q 1424 459 1456 494 q 1527 458 1470 459 q 1637 454 1583 457 q 1723 592 1678 522 q 1813 725 1769 661 q 1897 846 1857 789 q 1970 948 1937 904 q 1814 843 1911 913 q 1613 663 1717 772 q 1595 644 1604 654 q 1580 628 1587 635 l 1581 628 q 1564 609 1572 619 q 1546 591 1556 600 m 2011 1141 q 2064 1173 2046 1159 q 2093 1196 2081 1187 q 2109 1204 2100 1204 q 2126 1202 2113 1206 l 2131 1198 q 2137 1194 2135 1194 q 2141 1189 2141 1191 q 2143 1187 2141 1187 q 2148 1172 2148 1178 q 2157 1141 2152 1161 q 2181 1085 2163 1120 q 2200 1057 2185 1070 q 2207 1044 2215 1044 q 2176 1060 2191 1046 q 2146 1085 2161 1074 q 2131 1098 2144 1085 q 2106 1128 2119 1111 q 2062 1117 2083 1119 q 2037 1115 2041 1115 q 2004 1116 2022 1117 q 1970 1128 1985 1115 q 1981 1131 1965 1131 q 2011 1141 1998 1131 z "},"":{"ha":1780,"x_min":37,"x_max":2270,"o":"m 569 -81 q 354 -45 452 -81 q 185 59 256 -9 q 76 226 115 128 q 37 448 37 324 q 106 739 37 615 q 276 945 174 863 q 494 1069 378 1028 q 707 1111 611 1111 q 880 1089 789 1111 q 1047 1017 970 1067 q 1174 885 1124 967 q 1224 685 1224 804 q 1219 621 1224 665 q 1204 533 1215 578 q 1173 456 1193 489 q 1124 422 1154 422 q 1101 433 1109 422 q 1093 459 1093 444 q 1122 517 1093 489 q 1144 537 1135 526 q 1162 558 1154 546 q 1176 585 1170 570 q 1187 685 1187 635 q 1161 827 1187 767 q 1094 931 1135 887 q 1000 1002 1052 974 q 894 1045 948 1030 q 791 1068 841 1061 q 706 1074 741 1074 q 499 1031 609 1074 q 295 909 389 989 q 140 715 202 830 q 78 456 78 600 q 106 262 78 343 q 180 126 135 181 q 280 37 224 70 q 390 -14 335 4 q 492 -37 444 -31 q 569 -43 539 -43 q 764 -5 665 -43 q 960 97 863 33 q 1152 245 1057 161 q 1335 420 1246 330 q 1287 421 1293 420 q 1280 437 1281 422 q 1280 448 1280 444 q 1288 454 1280 452 q 1316 456 1296 456 q 1372 459 1335 457 q 1448 539 1411 500 q 1519 615 1485 578 q 1723 823 1630 737 q 1887 962 1817 909 q 2003 1039 1957 1015 q 2065 1063 2048 1063 q 2098 1046 2078 1063 q 2120 987 2119 1030 q 2082 931 2120 981 q 1984 800 2044 881 q 1850 610 1924 719 q 1702 380 1776 502 q 1647 289 1676 337 q 1595 195 1619 241 q 1556 114 1572 150 q 1541 61 1541 78 q 1565 35 1541 35 q 1622 55 1585 35 q 1694 98 1659 74 q 1780 163 1735 126 q 1791 170 1783 167 q 1801 177 1794 174 q 1811 180 1807 180 q 1817 172 1817 180 q 1812 156 1817 169 q 1783 124 1807 144 q 1748 95 1774 117 q 1688 52 1722 74 q 1618 12 1654 30 q 1554 -6 1581 -6 q 1494 25 1511 -6 q 1476 93 1476 56 q 1487 155 1476 117 q 1518 236 1498 193 q 1563 327 1537 280 q 1617 417 1589 374 q 1495 421 1556 420 q 1389 422 1435 422 q 1196 235 1296 326 q 992 74 1096 144 q 781 -39 887 4 q 569 -81 674 -81 m 1546 591 q 1486 527 1517 559 q 1424 459 1456 494 q 1527 458 1470 459 q 1637 454 1583 457 q 1723 592 1678 522 q 1813 725 1769 661 q 1897 846 1857 789 q 1970 948 1937 904 q 1814 843 1911 913 q 1613 663 1717 772 q 1595 644 1604 654 q 1580 628 1587 635 l 1581 628 q 1564 609 1572 619 q 1546 591 1556 600 m 2056 1148 q 2027 1145 2041 1152 q 2015 1148 2013 1139 q 2041 1179 2022 1169 q 2081 1189 2059 1189 q 2126 1181 2104 1189 q 2165 1156 2148 1172 q 2173 1144 2170 1150 q 2181 1131 2176 1137 q 2196 1115 2187 1124 q 2226 1093 2206 1106 q 2255 1078 2239 1080 q 2265 1070 2270 1076 q 2234 1062 2252 1059 q 2200 1069 2217 1065 q 2176 1073 2198 1069 q 2130 1104 2154 1078 q 2107 1130 2119 1113 q 2056 1148 2096 1146 z "},"":{"ha":1780,"x_min":37,"x_max":2261,"o":"m 569 -81 q 354 -45 452 -81 q 185 59 256 -9 q 76 226 115 128 q 37 448 37 324 q 106 739 37 615 q 276 945 174 863 q 494 1069 378 1028 q 707 1111 611 1111 q 880 1089 789 1111 q 1047 1017 970 1067 q 1174 885 1124 967 q 1224 685 1224 804 q 1219 621 1224 665 q 1204 533 1215 578 q 1173 456 1193 489 q 1124 422 1154 422 q 1101 433 1109 422 q 1093 459 1093 444 q 1122 517 1093 489 q 1144 537 1135 526 q 1162 558 1154 546 q 1176 585 1170 570 q 1187 685 1187 635 q 1161 827 1187 767 q 1094 931 1135 887 q 1000 1002 1052 974 q 894 1045 948 1030 q 791 1068 841 1061 q 706 1074 741 1074 q 499 1031 609 1074 q 295 909 389 989 q 140 715 202 830 q 78 456 78 600 q 106 262 78 343 q 180 126 135 181 q 280 37 224 70 q 390 -14 335 4 q 492 -37 444 -31 q 569 -43 539 -43 q 764 -5 665 -43 q 960 97 863 33 q 1152 245 1057 161 q 1335 420 1246 330 q 1287 421 1293 420 q 1280 437 1281 422 q 1280 448 1280 444 q 1288 454 1280 452 q 1316 456 1296 456 q 1372 459 1335 457 q 1448 539 1411 500 q 1519 615 1485 578 q 1723 823 1630 737 q 1887 962 1817 909 q 2003 1039 1957 1015 q 2065 1063 2048 1063 q 2098 1046 2078 1063 q 2120 987 2119 1030 q 2082 931 2120 981 q 1984 800 2044 881 q 1850 610 1924 719 q 1702 380 1776 502 q 1647 289 1676 337 q 1595 195 1619 241 q 1556 114 1572 150 q 1541 61 1541 78 q 1565 35 1541 35 q 1622 55 1585 35 q 1694 98 1659 74 q 1780 163 1735 126 q 1791 170 1783 167 q 1801 177 1794 174 q 1811 180 1807 180 q 1817 172 1817 180 q 1812 156 1817 169 q 1783 124 1807 144 q 1748 95 1774 117 q 1688 52 1722 74 q 1618 12 1654 30 q 1554 -6 1581 -6 q 1494 25 1511 -6 q 1476 93 1476 56 q 1487 155 1476 117 q 1518 236 1498 193 q 1563 327 1537 280 q 1617 417 1589 374 q 1495 421 1556 420 q 1389 422 1435 422 q 1196 235 1296 326 q 992 74 1096 144 q 781 -39 887 4 q 569 -81 674 -81 m 1546 591 q 1486 527 1517 559 q 1424 459 1456 494 q 1527 458 1470 459 q 1637 454 1583 457 q 1723 592 1678 522 q 1813 725 1769 661 q 1897 846 1857 789 q 1970 948 1937 904 q 1814 843 1911 913 q 1613 663 1717 772 q 1595 644 1604 654 q 1580 628 1587 635 l 1581 628 q 1564 609 1572 619 q 1546 591 1556 600 m 2048 1165 q 2066 1204 2054 1189 q 2093 1223 2078 1219 q 2119 1223 2107 1228 q 2137 1202 2131 1219 q 2136 1174 2141 1187 q 2124 1150 2131 1161 q 2104 1124 2117 1137 q 2061 1112 2081 1109 q 2048 1165 2041 1115 m 2169 1120 q 2186 1159 2174 1144 q 2213 1179 2198 1174 q 2240 1179 2228 1183 q 2257 1157 2252 1174 q 2256 1130 2261 1143 q 2244 1106 2252 1117 q 2224 1080 2237 1093 q 2181 1068 2202 1065 q 2169 1120 2161 1070 z "},"":{"ha":1780,"x_min":37,"x_max":2235,"o":"m 569 -81 q 354 -45 452 -81 q 185 59 256 -9 q 76 226 115 128 q 37 448 37 324 q 106 739 37 615 q 276 945 174 863 q 494 1069 378 1028 q 707 1111 611 1111 q 880 1089 789 1111 q 1047 1017 970 1067 q 1174 885 1124 967 q 1224 685 1224 804 q 1219 621 1224 665 q 1204 533 1215 578 q 1173 456 1193 489 q 1124 422 1154 422 q 1101 433 1109 422 q 1093 459 1093 444 q 1122 517 1093 489 q 1144 537 1135 526 q 1162 558 1154 546 q 1176 585 1170 570 q 1187 685 1187 635 q 1161 827 1187 767 q 1094 931 1135 887 q 1000 1002 1052 974 q 894 1045 948 1030 q 791 1068 841 1061 q 706 1074 741 1074 q 499 1031 609 1074 q 295 909 389 989 q 140 715 202 830 q 78 456 78 600 q 106 262 78 343 q 180 126 135 181 q 280 37 224 70 q 390 -14 335 4 q 492 -37 444 -31 q 569 -43 539 -43 q 764 -5 665 -43 q 960 97 863 33 q 1152 245 1057 161 q 1335 420 1246 330 q 1287 421 1293 420 q 1280 437 1281 422 q 1280 448 1280 444 q 1288 454 1280 452 q 1316 456 1296 456 q 1372 459 1335 457 q 1448 539 1411 500 q 1519 615 1485 578 q 1723 823 1630 737 q 1887 962 1817 909 q 2003 1039 1957 1015 q 2065 1063 2048 1063 q 2098 1046 2078 1063 q 2120 987 2119 1030 q 2082 931 2120 981 q 1984 800 2044 881 q 1850 610 1924 719 q 1702 380 1776 502 q 1647 289 1676 337 q 1595 195 1619 241 q 1556 114 1572 150 q 1541 61 1541 78 q 1565 35 1541 35 q 1622 55 1585 35 q 1694 98 1659 74 q 1780 163 1735 126 q 1791 170 1783 167 q 1801 177 1794 174 q 1811 180 1807 180 q 1817 172 1817 180 q 1812 156 1817 169 q 1783 124 1807 144 q 1748 95 1774 117 q 1688 52 1722 74 q 1618 12 1654 30 q 1554 -6 1581 -6 q 1494 25 1511 -6 q 1476 93 1476 56 q 1487 155 1476 117 q 1518 236 1498 193 q 1563 327 1537 280 q 1617 417 1589 374 q 1495 421 1556 420 q 1389 422 1435 422 q 1196 235 1296 326 q 992 74 1096 144 q 781 -39 887 4 q 569 -81 674 -81 m 1546 591 q 1486 527 1517 559 q 1424 459 1456 494 q 1527 458 1470 459 q 1637 454 1583 457 q 1723 592 1678 522 q 1813 725 1769 661 q 1897 846 1857 789 q 1970 948 1937 904 q 1814 843 1911 913 q 1613 663 1717 772 q 1595 644 1604 654 q 1580 628 1587 635 l 1581 628 q 1564 609 1572 619 q 1546 591 1556 600 m 2150 1161 q 2156 1131 2146 1133 q 2180 1139 2167 1130 q 2191 1154 2185 1146 q 2198 1181 2202 1167 q 2174 1194 2193 1200 q 2150 1161 2156 1189 m 2113 1156 q 2136 1208 2119 1189 q 2172 1234 2154 1228 q 2208 1234 2191 1241 q 2231 1206 2226 1228 q 2230 1169 2235 1187 q 2215 1135 2224 1150 q 2187 1100 2204 1117 q 2157 1085 2172 1091 q 2131 1084 2143 1080 q 2113 1106 2119 1089 q 2113 1156 2107 1122 z "},"":{"ha":2278,"x_min":37,"x_max":2546,"o":"m 569 -81 q 354 -45 452 -81 q 185 59 256 -9 q 76 226 115 128 q 37 448 37 324 q 106 739 37 615 q 276 945 174 863 q 494 1069 378 1028 q 707 1111 611 1111 q 880 1089 789 1111 q 1047 1017 970 1067 q 1174 885 1124 967 q 1224 685 1224 804 q 1219 621 1224 665 q 1204 533 1215 578 q 1173 456 1193 489 q 1124 422 1154 422 q 1101 433 1109 422 q 1093 459 1093 444 q 1122 517 1093 489 q 1144 537 1135 526 q 1162 558 1154 546 q 1176 585 1170 570 q 1187 685 1187 635 q 1161 827 1187 767 q 1094 931 1135 887 q 1000 1002 1052 974 q 894 1045 948 1030 q 791 1068 841 1061 q 706 1074 741 1074 q 499 1031 609 1074 q 295 909 389 989 q 140 715 202 830 q 78 456 78 600 q 106 262 78 343 q 180 126 135 181 q 280 37 224 70 q 390 -14 335 4 q 492 -37 444 -31 q 569 -43 539 -43 q 764 -5 665 -43 q 960 97 863 33 q 1152 245 1057 161 q 1335 420 1246 330 q 1287 421 1293 420 q 1280 437 1281 422 q 1280 448 1280 444 q 1288 454 1280 452 q 1316 456 1296 456 q 1372 459 1335 457 q 1448 539 1411 500 q 1519 615 1485 578 q 1723 823 1630 737 q 1887 962 1817 909 q 2003 1039 1957 1015 q 2065 1063 2048 1063 q 2098 1046 2078 1063 q 2120 987 2119 1030 q 2106 963 2120 983 q 2136 980 2120 972 q 2167 994 2152 987 q 2279 1039 2231 1026 q 2330 1052 2326 1052 q 2359 1059 2335 1054 q 2413 1066 2383 1065 q 2473 1062 2443 1067 q 2524 1041 2504 1057 q 2540 1019 2533 1033 q 2543 983 2546 1006 q 2513 928 2539 957 q 2457 878 2487 898 q 2268 762 2380 817 q 2031 670 2156 707 q 1993 657 2011 663 q 1954 648 1974 652 q 1957 631 1957 637 q 2030 650 1991 641 q 2140 660 2089 663 q 2222 643 2191 657 q 2250 619 2244 633 q 2257 596 2256 606 q 2237 546 2257 570 q 2203 528 2222 533 q 2164 519 2183 522 q 2131 517 2144 517 q 2113 517 2117 517 q 2089 519 2107 517 q 2044 529 2070 522 q 1989 546 2019 535 q 1935 576 1959 557 q 1825 493 1893 548 q 1683 341 1757 437 q 1594 178 1619 252 q 1581 112 1583 144 q 1587 50 1578 80 q 1621 -3 1596 20 q 1694 -39 1646 -26 q 1807 -56 1748 -54 q 2170 56 2006 -67 q 2241 118 2213 87 q 2281 167 2269 148 q 2289 176 2283 172 q 2307 178 2298 181 q 2311 153 2317 170 q 2293 120 2306 135 l 2293 122 q 2251 78 2276 102 q 2193 28 2226 54 q 2116 -23 2156 -2 q 2033 -59 2076 -44 q 1804 -93 1920 -98 q 1795 -92 1800 -93 q 1785 -91 1791 -91 q 1533 13 1602 -76 q 1498 178 1483 80 q 1530 269 1509 226 q 1576 348 1550 311 q 1595 381 1585 365 q 1617 417 1606 398 q 1495 421 1556 420 q 1389 422 1435 422 q 1196 235 1296 326 q 992 74 1096 144 q 781 -39 887 4 q 569 -81 674 -81 m 1987 791 q 1977 773 1983 787 q 1965 743 1970 759 q 1956 710 1959 726 q 1961 689 1954 694 q 2241 790 2119 730 q 2435 906 2363 850 q 2489 957 2472 937 q 2506 987 2506 978 q 2506 1005 2509 998 q 2498 1015 2502 1011 q 2452 1028 2481 1028 q 2393 1027 2424 1031 q 2337 1017 2361 1022 q 2326 1013 2333 1015 q 2313 1010 2320 1011 q 2296 1006 2306 1009 q 2255 990 2287 1002 q 2177 953 2222 978 q 2081 888 2131 928 q 1987 791 2031 848 m 1424 459 q 1527 458 1470 459 q 1637 454 1583 457 q 1723 592 1678 522 q 1813 725 1769 661 q 1897 846 1857 789 q 1970 948 1937 904 q 1814 843 1911 913 q 1613 663 1717 772 l 1580 628 l 1581 628 l 1546 591 l 1424 459 m 1976 598 q 1993 587 1983 593 q 2015 578 2002 581 q 2017 576 2017 578 q 2019 574 2017 574 l 2037 570 q 2081 559 2059 563 q 2119 554 2104 556 q 2164 556 2133 554 q 2211 576 2194 559 q 2220 594 2217 580 q 2204 611 2220 604 q 2119 623 2178 624 q 1983 602 2061 622 l 1976 598 m 1880 652 l 1828 576 l 1898 609 q 1892 619 1894 615 q 1887 630 1889 624 q 1887 631 1885 630 l 1880 652 z "},"":{"ha":1193,"x_min":52,"x_max":1491,"o":"m 181 639 q 57 800 52 691 q 200 967 63 907 q 265 990 233 981 q 315 1002 296 998 q 330 1006 326 1006 l 337 1006 q 370 1006 354 1007 q 396 999 383 1004 q 417 983 409 994 q 409 935 433 956 q 333 937 385 915 q 304 944 320 941 q 272 947 289 948 q 235 941 256 946 q 143 889 187 922 q 94 798 98 856 q 125 718 93 748 q 198 672 157 687 q 273 653 239 657 q 307 648 307 648 l 309 648 q 557 639 437 631 q 791 667 678 646 q 824 785 785 722 q 945 914 872 863 q 1083 994 1019 965 q 1195 1039 1148 1026 q 1246 1052 1243 1052 q 1276 1059 1252 1054 q 1330 1066 1300 1065 q 1390 1062 1359 1067 q 1441 1041 1420 1057 q 1456 1019 1450 1033 q 1459 983 1463 1006 q 1430 928 1456 957 q 1374 878 1404 898 q 1184 762 1296 817 q 948 670 1072 707 q 909 657 928 663 q 870 648 891 652 q 874 631 874 637 q 946 650 907 641 q 1056 660 1006 663 q 1139 643 1107 657 q 1167 619 1161 633 q 1174 596 1172 606 q 1154 546 1174 570 q 1119 528 1139 533 q 1081 519 1100 522 q 1047 517 1061 517 q 1030 517 1033 517 q 1006 519 1024 517 q 961 529 987 522 q 906 546 935 535 q 852 576 876 557 q 742 493 809 548 q 600 341 674 437 q 511 178 535 252 q 497 112 500 144 q 504 50 494 80 q 538 -3 513 20 q 611 -39 563 -26 q 724 -56 665 -54 q 1087 56 922 -67 q 1157 118 1130 87 q 1198 167 1185 148 q 1206 176 1200 172 q 1224 178 1215 181 q 1228 153 1233 170 q 1209 120 1222 135 l 1209 122 q 1168 78 1193 102 q 1109 28 1143 54 q 1032 -23 1072 -2 q 950 -59 993 -44 q 720 -93 837 -98 q 712 -92 717 -93 q 702 -91 707 -91 q 450 13 519 -76 q 415 178 400 80 q 477 324 433 257 q 559 433 520 391 q 640 507 607 481 q 674 535 672 533 q 815 609 741 578 q 808 619 811 615 q 804 630 806 624 q 804 631 802 630 q 549 601 676 606 q 304 611 422 596 q 261 619 298 613 q 181 639 224 624 m 900 602 q 893 598 893 598 q 909 587 900 593 q 931 578 919 581 q 933 576 933 578 q 935 574 933 574 q 945 572 941 572 q 954 570 950 572 q 998 559 976 563 q 1035 554 1020 556 q 1081 556 1050 554 q 1128 576 1111 559 q 1137 594 1133 580 q 1120 611 1137 604 q 1036 623 1094 624 q 900 602 978 622 m 939 791 q 915 759 926 776 q 894 727 906 744 q 878 689 883 709 q 1157 790 1035 730 q 1352 906 1280 850 q 1406 957 1389 937 q 1422 987 1422 978 q 1422 1005 1426 998 q 1415 1015 1419 1011 q 1369 1028 1398 1028 q 1309 1027 1341 1031 q 1254 1017 1278 1022 q 1243 1013 1250 1015 q 1230 1010 1237 1011 q 1213 1006 1222 1009 q 1177 990 1204 1002 q 1111 953 1150 978 q 1028 888 1072 928 q 939 791 983 848 m 1444 1137 q 1459 1127 1450 1131 q 1476 1119 1469 1122 q 1487 1113 1483 1115 q 1487 1109 1491 1111 q 1446 1111 1467 1104 q 1406 1124 1426 1119 q 1387 1131 1404 1124 q 1350 1151 1370 1139 q 1313 1179 1330 1163 q 1296 1213 1296 1194 q 1331 1237 1296 1237 q 1356 1231 1348 1237 q 1374 1213 1365 1226 q 1398 1181 1383 1200 q 1444 1137 1413 1163 z "},"":{"ha":1193,"x_min":52,"x_max":1519,"o":"m 181 639 q 57 800 52 691 q 200 967 63 907 q 265 990 233 981 q 315 1002 296 998 q 330 1006 326 1006 l 337 1006 q 370 1006 354 1007 q 396 999 383 1004 q 417 983 409 994 q 409 935 433 956 q 333 937 385 915 q 304 944 320 941 q 272 947 289 948 q 235 941 256 946 q 143 889 187 922 q 94 798 98 856 q 125 718 93 748 q 198 672 157 687 q 273 653 239 657 q 307 648 307 648 l 309 648 q 557 639 437 631 q 791 667 678 646 q 824 785 785 722 q 945 914 872 863 q 1083 994 1019 965 q 1195 1039 1148 1026 q 1246 1052 1243 1052 q 1276 1059 1252 1054 q 1330 1066 1300 1065 q 1390 1062 1359 1067 q 1441 1041 1420 1057 q 1456 1019 1450 1033 q 1459 983 1463 1006 q 1430 928 1456 957 q 1374 878 1404 898 q 1184 762 1296 817 q 948 670 1072 707 q 909 657 928 663 q 870 648 891 652 q 874 631 874 637 q 946 650 907 641 q 1056 660 1006 663 q 1139 643 1107 657 q 1167 619 1161 633 q 1174 596 1172 606 q 1154 546 1174 570 q 1119 528 1139 533 q 1081 519 1100 522 q 1047 517 1061 517 q 1030 517 1033 517 q 1006 519 1024 517 q 961 529 987 522 q 906 546 935 535 q 852 576 876 557 q 742 493 809 548 q 600 341 674 437 q 511 178 535 252 q 497 112 500 144 q 504 50 494 80 q 538 -3 513 20 q 611 -39 563 -26 q 724 -56 665 -54 q 1087 56 922 -67 q 1157 118 1130 87 q 1198 167 1185 148 q 1206 176 1200 172 q 1224 178 1215 181 q 1228 153 1233 170 q 1209 120 1222 135 l 1209 122 q 1168 78 1193 102 q 1109 28 1143 54 q 1032 -23 1072 -2 q 950 -59 993 -44 q 720 -93 837 -98 q 712 -92 717 -93 q 702 -91 707 -91 q 450 13 519 -76 q 415 178 400 80 q 477 324 433 257 q 559 433 520 391 q 640 507 607 481 q 674 535 672 533 q 815 609 741 578 q 808 619 811 615 q 804 630 806 624 q 804 631 802 630 q 549 601 676 606 q 304 611 422 596 q 261 619 298 613 q 181 639 224 624 m 900 602 q 893 598 893 598 q 909 587 900 593 q 931 578 919 581 q 933 576 933 578 q 935 574 933 574 q 945 572 941 572 q 954 570 950 572 q 998 559 976 563 q 1035 554 1020 556 q 1081 556 1050 554 q 1128 576 1111 559 q 1137 594 1133 580 q 1120 611 1137 604 q 1036 623 1094 624 q 900 602 978 622 m 939 791 q 915 759 926 776 q 894 727 906 744 q 878 689 883 709 q 1157 790 1035 730 q 1352 906 1280 850 q 1406 957 1389 937 q 1422 987 1422 978 q 1422 1005 1426 998 q 1415 1015 1419 1011 q 1369 1028 1398 1028 q 1309 1027 1341 1031 q 1254 1017 1278 1022 q 1243 1013 1250 1015 q 1230 1010 1237 1011 q 1213 1006 1222 1009 q 1177 990 1204 1002 q 1111 953 1150 978 q 1028 888 1072 928 q 939 791 983 848 m 1369 1202 q 1430 1183 1406 1187 q 1469 1178 1454 1180 q 1493 1172 1483 1176 q 1511 1154 1502 1169 q 1518 1129 1519 1141 q 1507 1111 1517 1117 q 1469 1108 1491 1102 q 1428 1127 1448 1115 q 1393 1150 1407 1139 q 1376 1163 1378 1161 q 1344 1192 1361 1178 q 1322 1226 1328 1206 q 1326 1228 1322 1230 q 1336 1220 1330 1226 q 1351 1209 1343 1215 q 1369 1202 1359 1204 z "},"":{"ha":1193,"x_min":52,"x_max":1541,"o":"m 181 639 q 57 800 52 691 q 200 967 63 907 q 265 990 233 981 q 315 1002 296 998 q 330 1006 326 1006 l 337 1006 q 370 1006 354 1007 q 396 999 383 1004 q 417 983 409 994 q 409 935 433 956 q 333 937 385 915 q 304 944 320 941 q 272 947 289 948 q 235 941 256 946 q 143 889 187 922 q 94 798 98 856 q 125 718 93 748 q 198 672 157 687 q 273 653 239 657 q 307 648 307 648 l 309 648 q 557 639 437 631 q 791 667 678 646 q 824 785 785 722 q 945 914 872 863 q 1083 994 1019 965 q 1195 1039 1148 1026 q 1246 1052 1243 1052 q 1276 1059 1252 1054 q 1330 1066 1300 1065 q 1390 1062 1359 1067 q 1441 1041 1420 1057 q 1456 1019 1450 1033 q 1459 983 1463 1006 q 1430 928 1456 957 q 1374 878 1404 898 q 1184 762 1296 817 q 948 670 1072 707 q 909 657 928 663 q 870 648 891 652 q 874 631 874 637 q 946 650 907 641 q 1056 660 1006 663 q 1139 643 1107 657 q 1167 619 1161 633 q 1174 596 1172 606 q 1154 546 1174 570 q 1119 528 1139 533 q 1081 519 1100 522 q 1047 517 1061 517 q 1030 517 1033 517 q 1006 519 1024 517 q 961 529 987 522 q 906 546 935 535 q 852 576 876 557 q 742 493 809 548 q 600 341 674 437 q 511 178 535 252 q 497 112 500 144 q 504 50 494 80 q 538 -3 513 20 q 611 -39 563 -26 q 724 -56 665 -54 q 1087 56 922 -67 q 1157 118 1130 87 q 1198 167 1185 148 q 1206 176 1200 172 q 1224 178 1215 181 q 1228 153 1233 170 q 1209 120 1222 135 l 1209 122 q 1168 78 1193 102 q 1109 28 1143 54 q 1032 -23 1072 -2 q 950 -59 993 -44 q 720 -93 837 -98 q 712 -92 717 -93 q 702 -91 707 -91 q 450 13 519 -76 q 415 178 400 80 q 477 324 433 257 q 559 433 520 391 q 640 507 607 481 q 674 535 672 533 q 815 609 741 578 q 808 619 811 615 q 804 630 806 624 q 804 631 802 630 q 549 601 676 606 q 304 611 422 596 q 261 619 298 613 q 181 639 224 624 m 900 602 q 893 598 893 598 q 909 587 900 593 q 931 578 919 581 q 933 576 933 578 q 935 574 933 574 q 945 572 941 572 q 954 570 950 572 q 998 559 976 563 q 1035 554 1020 556 q 1081 556 1050 554 q 1128 576 1111 559 q 1137 594 1133 580 q 1120 611 1137 604 q 1036 623 1094 624 q 900 602 978 622 m 939 791 q 915 759 926 776 q 894 727 906 744 q 878 689 883 709 q 1157 790 1035 730 q 1352 906 1280 850 q 1406 957 1389 937 q 1422 987 1422 978 q 1422 1005 1426 998 q 1415 1015 1419 1011 q 1369 1028 1398 1028 q 1309 1027 1341 1031 q 1254 1017 1278 1022 q 1243 1013 1250 1015 q 1230 1010 1237 1011 q 1213 1006 1222 1009 q 1177 990 1204 1002 q 1111 953 1150 978 q 1028 888 1072 928 q 939 791 983 848 m 1337 1137 q 1390 1169 1372 1156 q 1419 1193 1407 1183 q 1435 1200 1426 1200 q 1452 1198 1439 1202 l 1457 1194 q 1463 1191 1461 1191 q 1467 1185 1467 1187 q 1469 1183 1467 1183 q 1474 1169 1474 1174 q 1483 1137 1478 1157 q 1507 1081 1489 1117 q 1526 1054 1511 1067 q 1533 1041 1541 1041 q 1502 1056 1517 1043 q 1472 1081 1487 1070 q 1457 1094 1470 1081 q 1431 1124 1444 1107 q 1388 1113 1409 1115 q 1363 1111 1367 1111 q 1330 1112 1348 1113 q 1296 1124 1311 1111 q 1307 1128 1291 1128 q 1337 1137 1324 1128 z "},"":{"ha":1193,"x_min":52,"x_max":1572,"o":"m 181 639 q 57 800 52 691 q 200 967 63 907 q 265 990 233 981 q 315 1002 296 998 q 330 1006 326 1006 l 337 1006 q 370 1006 354 1007 q 396 999 383 1004 q 417 983 409 994 q 409 935 433 956 q 333 937 385 915 q 304 944 320 941 q 272 947 289 948 q 235 941 256 946 q 143 889 187 922 q 94 798 98 856 q 125 718 93 748 q 198 672 157 687 q 273 653 239 657 q 307 648 307 648 l 309 648 q 557 639 437 631 q 791 667 678 646 q 824 785 785 722 q 945 914 872 863 q 1083 994 1019 965 q 1195 1039 1148 1026 q 1246 1052 1243 1052 q 1276 1059 1252 1054 q 1330 1066 1300 1065 q 1390 1062 1359 1067 q 1441 1041 1420 1057 q 1456 1019 1450 1033 q 1459 983 1463 1006 q 1430 928 1456 957 q 1374 878 1404 898 q 1184 762 1296 817 q 948 670 1072 707 q 909 657 928 663 q 870 648 891 652 q 874 631 874 637 q 946 650 907 641 q 1056 660 1006 663 q 1139 643 1107 657 q 1167 619 1161 633 q 1174 596 1172 606 q 1154 546 1174 570 q 1119 528 1139 533 q 1081 519 1100 522 q 1047 517 1061 517 q 1030 517 1033 517 q 1006 519 1024 517 q 961 529 987 522 q 906 546 935 535 q 852 576 876 557 q 742 493 809 548 q 600 341 674 437 q 511 178 535 252 q 497 112 500 144 q 504 50 494 80 q 538 -3 513 20 q 611 -39 563 -26 q 724 -56 665 -54 q 1087 56 922 -67 q 1157 118 1130 87 q 1198 167 1185 148 q 1206 176 1200 172 q 1224 178 1215 181 q 1228 153 1233 170 q 1209 120 1222 135 l 1209 122 q 1168 78 1193 102 q 1109 28 1143 54 q 1032 -23 1072 -2 q 950 -59 993 -44 q 720 -93 837 -98 q 712 -92 717 -93 q 702 -91 707 -91 q 450 13 519 -76 q 415 178 400 80 q 477 324 433 257 q 559 433 520 391 q 640 507 607 481 q 674 535 672 533 q 815 609 741 578 q 808 619 811 615 q 804 630 806 624 q 804 631 802 630 q 549 601 676 606 q 304 611 422 596 q 261 619 298 613 q 181 639 224 624 m 900 602 q 893 598 893 598 q 909 587 900 593 q 931 578 919 581 q 933 576 933 578 q 935 574 933 574 q 945 572 941 572 q 954 570 950 572 q 998 559 976 563 q 1035 554 1020 556 q 1081 556 1050 554 q 1128 576 1111 559 q 1137 594 1133 580 q 1120 611 1137 604 q 1036 623 1094 624 q 900 602 978 622 m 939 791 q 915 759 926 776 q 894 727 906 744 q 878 689 883 709 q 1157 790 1035 730 q 1352 906 1280 850 q 1406 957 1389 937 q 1422 987 1422 978 q 1422 1005 1426 998 q 1415 1015 1419 1011 q 1369 1028 1398 1028 q 1309 1027 1341 1031 q 1254 1017 1278 1022 q 1243 1013 1250 1015 q 1230 1010 1237 1011 q 1213 1006 1222 1009 q 1177 990 1204 1002 q 1111 953 1150 978 q 1028 888 1072 928 q 939 791 983 848 m 1359 1167 q 1377 1206 1365 1191 q 1404 1225 1389 1220 q 1431 1225 1419 1230 q 1448 1204 1443 1220 q 1447 1176 1452 1189 q 1435 1152 1443 1163 q 1415 1126 1428 1139 q 1372 1114 1393 1111 q 1359 1167 1352 1117 m 1480 1122 q 1497 1161 1485 1146 q 1524 1181 1509 1176 q 1551 1181 1539 1185 q 1569 1159 1563 1176 q 1568 1131 1572 1144 q 1556 1107 1563 1119 q 1535 1081 1548 1094 q 1493 1069 1513 1067 q 1480 1122 1472 1072 z "},"":{"ha":870,"x_min":54,"x_max":1065,"o":"m 1017 943 q 1030 825 1039 885 q 1007 728 1020 765 q 1002 719 1006 724 q 996 707 998 715 q 991 693 994 700 q 989 687 989 689 q 987 681 989 685 q 888 503 946 606 q 762 295 830 400 q 623 98 694 191 q 485 -46 552 6 q 400 -81 446 -76 q 365 -80 380 -83 q 339 -70 350 -76 q 326 -65 333 -69 l 322 -63 q 317 -59 320 -63 l 315 -57 q 304 -48 311 -56 q 276 0 283 -28 q 274 57 269 28 q 303 134 281 106 q 326 165 324 163 l 328 165 q 356 186 339 174 q 394 193 374 198 q 419 178 411 189 q 424 153 426 167 q 409 125 422 139 q 370 104 396 111 q 343 91 356 98 q 322 72 331 83 q 311 46 313 61 q 330 -22 302 2 q 343 -33 333 -26 q 415 -6 372 -41 q 506 87 457 28 q 608 224 556 146 q 710 381 661 302 q 801 531 759 459 q 870 654 843 604 q 915 737 898 704 q 941 791 931 770 q 956 828 950 813 q 958 922 972 883 q 919 985 944 961 q 881 1009 902 1000 q 843 1026 861 1019 q 741 1015 796 1028 q 544 917 654 991 q 377 781 459 859 q 226 615 294 702 q 172 542 196 578 q 133 474 148 506 q 130 446 130 459 q 131 422 130 433 q 135 398 133 409 q 132 356 139 374 q 115 330 126 339 q 91 321 104 320 q 67 337 78 322 q 56 363 57 348 q 57 393 54 378 q 67 426 59 409 l 74 437 q 196 639 106 522 q 349 808 265 728 q 522 948 433 889 q 612 1003 563 976 q 714 1046 661 1030 q 819 1064 767 1063 q 919 1043 870 1065 q 1017 943 993 1007 m 1019 1119 q 1033 1108 1024 1113 q 1050 1100 1043 1104 q 1061 1094 1057 1096 q 1061 1091 1065 1093 q 1020 1093 1041 1085 q 980 1106 1000 1100 q 961 1113 978 1106 q 924 1132 944 1120 q 887 1160 904 1144 q 870 1194 870 1176 q 906 1219 870 1219 q 931 1213 922 1219 q 948 1194 939 1207 q 972 1163 957 1181 q 1019 1119 987 1144 z "},"":{"ha":870,"x_min":54,"x_max":1094,"o":"m 1017 943 q 1030 825 1039 885 q 1007 728 1020 765 q 1002 719 1006 724 q 996 707 998 715 q 991 693 994 700 q 989 687 989 689 q 987 681 989 685 q 888 503 946 606 q 762 295 830 400 q 623 98 694 191 q 485 -46 552 6 q 400 -81 446 -76 q 365 -80 380 -83 q 339 -70 350 -76 q 326 -65 333 -69 l 322 -63 q 317 -59 320 -63 l 315 -57 q 304 -48 311 -56 q 276 0 283 -28 q 274 57 269 28 q 303 134 281 106 q 326 165 324 163 l 328 165 q 356 186 339 174 q 394 193 374 198 q 419 178 411 189 q 424 153 426 167 q 409 125 422 139 q 370 104 396 111 q 343 91 356 98 q 322 72 331 83 q 311 46 313 61 q 330 -22 302 2 q 343 -33 333 -26 q 415 -6 372 -41 q 506 87 457 28 q 608 224 556 146 q 710 381 661 302 q 801 531 759 459 q 870 654 843 604 q 915 737 898 704 q 941 791 931 770 q 956 828 950 813 q 958 922 972 883 q 919 985 944 961 q 881 1009 902 1000 q 843 1026 861 1019 q 741 1015 796 1028 q 544 917 654 991 q 377 781 459 859 q 226 615 294 702 q 172 542 196 578 q 133 474 148 506 q 130 446 130 459 q 131 422 130 433 q 135 398 133 409 q 132 356 139 374 q 115 330 126 339 q 91 321 104 320 q 67 337 78 322 q 56 363 57 348 q 57 393 54 378 q 67 426 59 409 l 74 437 q 196 639 106 522 q 349 808 265 728 q 522 948 433 889 q 612 1003 563 976 q 714 1046 661 1030 q 819 1064 767 1063 q 919 1043 870 1065 q 1017 943 993 1007 m 944 1170 q 1006 1152 981 1156 q 1044 1146 1030 1148 q 1069 1141 1059 1144 q 1087 1122 1078 1137 q 1094 1097 1094 1109 q 1083 1080 1093 1085 q 1045 1077 1067 1070 q 1004 1095 1024 1083 q 969 1119 983 1107 q 952 1131 954 1130 q 920 1160 937 1146 q 898 1194 904 1174 q 902 1196 898 1198 q 912 1189 906 1194 q 927 1178 919 1183 q 944 1170 935 1172 z "},"":{"ha":870,"x_min":54,"x_max":1091,"o":"m 1017 943 q 1030 825 1039 885 q 1007 728 1020 765 q 1002 719 1006 724 q 996 707 998 715 q 991 693 994 700 q 989 687 989 689 q 987 681 989 685 q 888 503 946 606 q 762 295 830 400 q 623 98 694 191 q 485 -46 552 6 q 400 -81 446 -76 q 365 -80 380 -83 q 339 -70 350 -76 q 326 -65 333 -69 l 322 -63 q 317 -59 320 -63 l 315 -57 q 304 -48 311 -56 q 276 0 283 -28 q 274 57 269 28 q 303 134 281 106 q 326 165 324 163 l 328 165 q 356 186 339 174 q 394 193 374 198 q 419 178 411 189 q 424 153 426 167 q 409 125 422 139 q 370 104 396 111 q 343 91 356 98 q 322 72 331 83 q 311 46 313 61 q 330 -22 302 2 q 343 -33 333 -26 q 415 -6 372 -41 q 506 87 457 28 q 608 224 556 146 q 710 381 661 302 q 801 531 759 459 q 870 654 843 604 q 915 737 898 704 q 941 791 931 770 q 956 828 950 813 q 958 922 972 883 q 919 985 944 961 q 881 1009 902 1000 q 843 1026 861 1019 q 741 1015 796 1028 q 544 917 654 991 q 377 781 459 859 q 226 615 294 702 q 172 542 196 578 q 133 474 148 506 q 130 446 130 459 q 131 422 130 433 q 135 398 133 409 q 132 356 139 374 q 115 330 126 339 q 91 321 104 320 q 67 337 78 322 q 56 363 57 348 q 57 393 54 378 q 67 426 59 409 l 74 437 q 196 639 106 522 q 349 808 265 728 q 522 948 433 889 q 612 1003 563 976 q 714 1046 661 1030 q 819 1064 767 1063 q 919 1043 870 1065 q 1017 943 993 1007 m 887 1139 q 940 1171 922 1157 q 969 1194 957 1185 q 985 1202 976 1202 q 1002 1200 989 1204 l 1007 1196 q 1013 1193 1011 1193 q 1017 1187 1017 1189 q 1019 1185 1017 1185 q 1024 1170 1024 1176 q 1033 1139 1028 1159 q 1057 1083 1039 1119 q 1076 1056 1061 1069 q 1083 1043 1091 1043 q 1052 1058 1067 1044 q 1022 1083 1037 1072 q 1007 1096 1020 1083 q 981 1126 994 1109 q 938 1115 959 1117 q 913 1113 917 1113 q 880 1114 898 1115 q 846 1126 861 1113 q 857 1130 841 1130 q 887 1139 874 1130 z "},"":{"ha":870,"x_min":54,"x_max":1093,"o":"m 1017 943 q 1030 825 1039 885 q 1007 728 1020 765 q 1002 719 1006 724 q 996 707 998 715 q 991 693 994 700 q 989 687 989 689 q 987 681 989 685 q 888 503 946 606 q 762 295 830 400 q 623 98 694 191 q 485 -46 552 6 q 400 -81 446 -76 q 365 -80 380 -83 q 339 -70 350 -76 q 326 -65 333 -69 l 322 -63 q 317 -59 320 -63 l 315 -57 q 304 -48 311 -56 q 276 0 283 -28 q 274 57 269 28 q 303 134 281 106 q 326 165 324 163 l 328 165 q 356 186 339 174 q 394 193 374 198 q 419 178 411 189 q 424 153 426 167 q 409 125 422 139 q 370 104 396 111 q 343 91 356 98 q 322 72 331 83 q 311 46 313 61 q 330 -22 302 2 q 343 -33 333 -26 q 415 -6 372 -41 q 506 87 457 28 q 608 224 556 146 q 710 381 661 302 q 801 531 759 459 q 870 654 843 604 q 915 737 898 704 q 941 791 931 770 q 956 828 950 813 q 958 922 972 883 q 919 985 944 961 q 881 1009 902 1000 q 843 1026 861 1019 q 741 1015 796 1028 q 544 917 654 991 q 377 781 459 859 q 226 615 294 702 q 172 542 196 578 q 133 474 148 506 q 130 446 130 459 q 131 422 130 433 q 135 398 133 409 q 132 356 139 374 q 115 330 126 339 q 91 321 104 320 q 67 337 78 322 q 56 363 57 348 q 57 393 54 378 q 67 426 59 409 l 74 437 q 196 639 106 522 q 349 808 265 728 q 522 948 433 889 q 612 1003 563 976 q 714 1046 661 1030 q 819 1064 767 1063 q 919 1043 870 1065 q 1017 943 993 1007 m 880 1161 q 897 1200 885 1185 q 924 1219 909 1215 q 951 1219 939 1224 q 969 1198 963 1215 q 968 1170 972 1183 q 956 1146 963 1157 q 935 1120 948 1133 q 893 1108 913 1106 q 880 1161 872 1111 m 1000 1117 q 1018 1156 1006 1141 q 1044 1175 1030 1170 q 1071 1175 1059 1180 q 1089 1154 1083 1170 q 1088 1126 1093 1139 q 1076 1102 1083 1113 q 1056 1076 1069 1089 q 1013 1064 1033 1061 q 1000 1117 993 1067 z "},"":{"ha":1644,"x_min":35,"x_max":1731,"o":"m 746 -143 q 401 -75 548 -141 q 161 113 254 -9 q 55 374 74 228 q 85 689 35 520 q 103 736 85 691 q 159 843 120 781 q 207 908 181 878 q 263 965 233 939 q 340 1019 300 996 q 424 1054 380 1041 q 452 1061 428 1056 q 510 1068 476 1067 q 583 1058 544 1069 q 654 1019 622 1048 q 701 955 681 991 q 711 876 720 919 q 682 822 706 848 q 643 778 659 796 l 641 776 q 618 757 631 767 q 589 750 604 748 q 556 785 557 754 q 606 843 556 817 q 631 863 620 852 q 650 884 641 872 q 659 911 659 896 q 655 952 661 931 q 628 991 648 972 q 569 1024 602 1017 q 506 1031 535 1031 q 456 1024 476 1030 q 435 1019 435 1019 q 284 933 344 991 q 191 822 224 876 q 158 768 170 793 q 137 722 146 743 q 120 678 128 700 q 91 381 72 519 q 191 135 109 243 q 374 -22 267 35 q 603 -98 481 -80 q 853 -96 724 -117 q 1099 -20 981 -76 q 1317 122 1217 35 q 1481 328 1417 209 q 1557 505 1531 424 q 1591 649 1583 585 q 1591 763 1598 713 q 1569 850 1583 813 q 1454 981 1533 937 l 1452 985 q 1423 1000 1437 994 q 1400 1009 1409 1006 q 1380 1017 1389 1015 q 1000 944 1189 1076 q 962 917 980 930 q 930 889 944 904 q 911 862 919 876 q 900 835 904 848 q 893 806 894 820 q 875 768 887 781 q 849 748 863 754 q 823 748 835 743 q 806 769 811 754 q 806 795 802 781 q 817 820 809 809 q 837 846 824 833 q 843 854 839 850 l 856 867 q 907 919 876 891 q 980 974 939 946 q 1159 1059 1063 1035 q 1391 1052 1278 1087 q 1421 1041 1394 1050 q 1485 1007 1448 1031 q 1565 946 1522 987 q 1639 841 1607 906 q 1606 357 1731 648 q 1459 130 1548 224 q 1259 -26 1370 35 q 1018 -115 1148 -87 q 746 -143 887 -143 m 644 344 q 819 631 707 472 q 1113 974 931 791 q 1133 978 1122 983 q 1149 966 1141 974 q 1162 944 1157 957 q 1161 913 1167 931 q 1135 870 1156 894 q 996 704 1067 793 q 867 534 937 628 q 735 343 796 441 l 846 341 l 848 341 q 860 338 854 341 q 869 328 867 335 q 871 306 870 319 q 865 283 872 294 q 842 264 857 272 q 794 256 826 256 q 777 256 785 256 q 757 256 769 256 q 730 256 746 256 q 685 256 713 256 q 623 129 648 191 q 589 15 598 67 q 577 0 585 0 q 565 4 569 0 l 563 4 q 548 18 556 7 q 537 43 541 28 q 537 61 533 56 q 560 144 544 94 q 604 257 576 193 l 509 261 l 507 261 q 495 264 502 261 q 487 274 489 267 q 484 295 485 283 q 491 319 483 307 q 514 338 498 330 q 561 346 530 346 l 644 344 z "},"":{"ha":1461,"x_min":26,"x_max":1804,"o":"m 76 715 q 57 907 26 798 q 256 1080 100 1054 q 306 1084 281 1083 q 350 1085 330 1085 q 364 1083 356 1083 q 381 1081 372 1083 q 412 1074 396 1080 q 437 1054 428 1069 q 441 1027 444 1039 q 424 1008 437 1015 q 392 1003 411 1002 q 352 1015 372 1004 q 324 1031 339 1024 q 294 1042 311 1037 q 263 1044 278 1046 l 261 1044 q 94 898 128 1022 q 107 733 67 806 q 147 684 124 704 q 193 652 170 665 q 246 630 219 637 q 528 683 376 594 q 663 781 596 724 q 789 891 730 837 q 875 968 833 931 q 955 1031 917 1004 q 1029 1070 993 1057 q 1098 1078 1065 1083 q 1183 1015 1163 1067 q 1130 791 1213 937 q 1074 700 1100 737 q 1046 661 1048 663 q 1044 659 1046 659 q 944 523 996 596 q 848 380 891 450 q 812 319 831 352 q 773 254 793 287 q 737 189 754 220 q 709 133 720 157 l 704 122 q 688 75 693 96 q 691 44 683 54 q 714 69 700 52 q 750 117 728 85 q 811 208 778 156 q 883 322 844 261 q 1039 568 954 437 q 1217 813 1124 698 q 1598 1106 1433 1081 q 1757 1065 1683 1119 q 1765 1061 1761 1065 l 1776 1050 l 1778 1050 l 1781 1046 q 1804 987 1802 1024 q 1796 967 1804 980 q 1738 890 1781 946 q 1637 754 1694 833 q 1513 578 1580 674 q 1385 380 1446 481 q 1349 319 1369 352 q 1311 254 1330 287 q 1276 189 1293 220 q 1248 133 1259 157 l 1243 122 q 1224 65 1228 89 q 1241 37 1220 41 q 1295 50 1259 31 q 1369 94 1331 69 q 1461 163 1411 124 q 1481 176 1472 170 q 1495 179 1489 180 q 1498 169 1502 178 q 1491 154 1496 161 q 1465 124 1481 139 q 1429 94 1456 117 q 1367 49 1402 72 q 1295 9 1331 26 q 1231 -6 1259 -7 q 1190 11 1206 -4 q 1167 47 1174 26 q 1160 94 1159 69 q 1167 143 1161 119 q 1214 262 1178 193 q 1287 396 1250 331 q 1410 596 1344 494 q 1538 787 1476 698 q 1650 944 1600 876 q 1724 1044 1700 1011 q 1604 1069 1667 1080 q 1428 980 1522 1057 q 1246 789 1346 915 q 1070 546 1156 676 q 915 304 985 417 q 840 184 874 239 q 776 89 806 130 q 758 64 767 74 q 741 44 750 54 q 746 46 744 44 l 735 35 q 678 -2 700 -2 l 674 -2 q 670 0 672 0 l 667 0 q 664 2 665 2 q 661 4 663 2 q 625 62 631 20 q 628 143 619 104 q 675 262 639 193 q 748 396 711 331 q 860 570 798 483 q 985 739 922 657 q 1065 850 1031 796 q 1109 943 1093 896 q 1106 1017 1126 989 q 1087 1031 1098 1026 q 1062 1037 1078 1035 q 1026 1030 1046 1039 q 926 963 980 1009 q 813 863 872 917 q 685 752 754 809 q 546 652 617 694 q 324 581 426 581 q 237 594 276 581 q 216 601 233 594 q 173 621 198 607 q 121 658 148 635 q 76 715 94 681 m 1293 1198 q 1264 1195 1278 1202 q 1252 1198 1250 1189 q 1278 1229 1259 1219 q 1319 1239 1296 1239 q 1363 1231 1341 1239 q 1402 1206 1385 1222 q 1410 1194 1407 1200 q 1419 1181 1413 1187 q 1433 1165 1424 1174 q 1463 1143 1443 1156 q 1492 1128 1476 1130 q 1502 1120 1507 1126 q 1471 1112 1489 1109 q 1437 1119 1454 1115 q 1413 1123 1435 1119 q 1367 1154 1391 1128 q 1344 1180 1356 1163 q 1293 1198 1333 1196 z "},"":{"ha":1504,"x_min":78,"x_max":1570,"o":"m 1474 372 q 1409 267 1439 307 q 1376 222 1380 226 q 1283 114 1343 172 q 1152 6 1224 56 q 998 -77 1080 -43 q 839 -113 917 -111 l 824 -113 q 717 -103 763 -115 q 637 -70 670 -91 q 581 -23 604 -50 q 544 30 557 4 q 511 224 502 115 q 560 444 520 333 q 661 651 600 554 q 783 811 722 748 q 769 811 776 811 q 754 813 761 811 q 719 812 750 813 q 643 806 689 811 q 538 790 596 800 q 419 763 480 780 q 301 719 357 746 q 200 656 244 693 q 178 613 185 637 q 172 591 174 602 q 158 544 169 563 q 135 516 148 524 q 109 510 122 507 q 89 526 96 513 q 89 567 78 546 q 91 574 89 572 l 91 576 q 96 588 94 581 q 102 598 98 594 q 107 609 106 604 q 111 615 109 611 q 115 620 113 619 q 120 626 117 622 q 128 635 126 631 q 131 641 130 639 l 131 639 q 135 643 135 643 q 252 733 180 691 q 353 779 296 759 q 474 815 409 798 q 580 833 530 826 q 669 844 630 841 q 731 849 707 848 q 757 850 756 850 l 759 850 q 790 848 774 848 q 824 848 806 848 q 1011 985 915 930 q 1285 1091 1146 1065 q 1308 1094 1289 1091 q 1352 1096 1328 1096 q 1400 1091 1376 1096 q 1441 1070 1424 1085 q 1455 1044 1450 1059 q 1454 1009 1459 1030 q 1387 924 1448 969 q 1319 891 1356 906 q 1235 861 1283 876 q 889 813 1085 819 q 802 710 844 772 q 722 576 759 648 q 656 426 685 504 q 612 276 628 348 q 595 142 596 204 q 615 39 594 80 q 685 -46 633 -17 q 841 -72 737 -76 q 994 -33 917 -70 q 1142 59 1070 4 q 1274 182 1213 115 q 1380 317 1335 250 q 1481 499 1450 422 q 1522 626 1513 576 q 1522 726 1531 685 q 1378 817 1498 813 l 1376 817 l 1365 817 q 1335 812 1357 817 q 1278 790 1313 807 q 1198 735 1243 772 q 1104 635 1154 698 q 1059 572 1081 607 q 1015 497 1039 541 q 969 398 991 454 q 946 318 948 348 q 953 270 944 287 q 974 247 961 254 q 996 239 987 241 q 1079 254 1041 233 q 1143 298 1117 274 q 1204 369 1176 330 q 1248 452 1231 409 q 1250 481 1252 467 q 1244 506 1248 494 q 1233 530 1239 519 q 1217 569 1219 550 q 1222 600 1215 587 q 1242 619 1230 613 q 1269 622 1254 626 q 1288 608 1281 619 q 1298 585 1294 598 q 1304 554 1302 570 l 1304 543 q 1304 532 1304 539 q 1302 520 1304 526 q 1296 489 1302 507 q 1285 444 1293 469 q 1234 352 1265 396 q 1167 272 1204 307 q 978 204 1076 187 q 889 269 911 215 q 879 347 874 304 q 895 430 883 391 q 919 495 907 469 q 933 526 931 522 q 1001 636 965 585 q 1080 726 1037 687 q 1226 822 1144 789 q 1334 852 1291 850 q 1385 854 1378 854 q 1528 796 1483 850 q 1569 680 1565 756 q 1547 538 1570 615 q 1474 372 1524 461 m 1115 993 q 930 850 1046 956 q 1089 867 1013 856 q 1230 898 1165 878 q 1363 951 1313 920 q 1417 1011 1413 981 q 1409 1043 1424 1031 q 1385 1056 1400 1052 q 1354 1059 1370 1059 q 1317 1058 1335 1061 q 1287 1054 1298 1056 q 1253 1046 1269 1050 q 1220 1039 1237 1043 q 1174 1021 1202 1031 q 1115 993 1146 1011 m 1456 1154 q 1470 1144 1461 1148 q 1487 1135 1480 1139 q 1498 1130 1494 1131 q 1498 1126 1502 1128 q 1457 1128 1478 1120 q 1417 1141 1437 1135 q 1398 1148 1415 1141 q 1361 1168 1381 1156 q 1324 1195 1341 1180 q 1307 1230 1307 1211 q 1343 1254 1307 1254 q 1368 1248 1359 1254 q 1385 1230 1376 1243 q 1409 1198 1394 1217 q 1456 1154 1424 1180 z "},"":{"ha":1504,"x_min":78,"x_max":1570,"o":"m 1474 372 q 1409 267 1439 307 q 1376 222 1380 226 q 1283 114 1343 172 q 1152 6 1224 56 q 998 -77 1080 -43 q 839 -113 917 -111 l 824 -113 q 717 -103 763 -115 q 637 -70 670 -91 q 581 -23 604 -50 q 544 30 557 4 q 511 224 502 115 q 560 444 520 333 q 661 651 600 554 q 783 811 722 748 q 769 811 776 811 q 754 813 761 811 q 719 812 750 813 q 643 806 689 811 q 538 790 596 800 q 419 763 480 780 q 301 719 357 746 q 200 656 244 693 q 178 613 185 637 q 172 591 174 602 q 158 544 169 563 q 135 516 148 524 q 109 510 122 507 q 89 526 96 513 q 89 567 78 546 q 91 574 89 572 l 91 576 q 96 588 94 581 q 102 598 98 594 q 107 609 106 604 q 111 615 109 611 q 115 620 113 619 q 120 626 117 622 q 128 635 126 631 q 131 641 130 639 l 131 639 q 135 643 135 643 q 252 733 180 691 q 353 779 296 759 q 474 815 409 798 q 580 833 530 826 q 669 844 630 841 q 731 849 707 848 q 757 850 756 850 l 759 850 q 790 848 774 848 q 824 848 806 848 q 1011 985 915 930 q 1285 1091 1146 1065 q 1308 1094 1289 1091 q 1352 1096 1328 1096 q 1400 1091 1376 1096 q 1441 1070 1424 1085 q 1455 1044 1450 1059 q 1454 1009 1459 1030 q 1387 924 1448 969 q 1319 891 1356 906 q 1235 861 1283 876 q 889 813 1085 819 q 802 710 844 772 q 722 576 759 648 q 656 426 685 504 q 612 276 628 348 q 595 142 596 204 q 615 39 594 80 q 685 -46 633 -17 q 841 -72 737 -76 q 994 -33 917 -70 q 1142 59 1070 4 q 1274 182 1213 115 q 1380 317 1335 250 q 1481 499 1450 422 q 1522 626 1513 576 q 1522 726 1531 685 q 1378 817 1498 813 l 1376 817 l 1365 817 q 1335 812 1357 817 q 1278 790 1313 807 q 1198 735 1243 772 q 1104 635 1154 698 q 1059 572 1081 607 q 1015 497 1039 541 q 969 398 991 454 q 946 318 948 348 q 953 270 944 287 q 974 247 961 254 q 996 239 987 241 q 1079 254 1041 233 q 1143 298 1117 274 q 1204 369 1176 330 q 1248 452 1231 409 q 1250 481 1252 467 q 1244 506 1248 494 q 1233 530 1239 519 q 1217 569 1219 550 q 1222 600 1215 587 q 1242 619 1230 613 q 1269 622 1254 626 q 1288 608 1281 619 q 1298 585 1294 598 q 1304 554 1302 570 l 1304 543 q 1304 532 1304 539 q 1302 520 1304 526 q 1296 489 1302 507 q 1285 444 1293 469 q 1234 352 1265 396 q 1167 272 1204 307 q 978 204 1076 187 q 889 269 911 215 q 879 347 874 304 q 895 430 883 391 q 919 495 907 469 q 933 526 931 522 q 1001 636 965 585 q 1080 726 1037 687 q 1226 822 1144 789 q 1334 852 1291 850 q 1385 854 1378 854 q 1528 796 1483 850 q 1569 680 1565 756 q 1547 538 1570 615 q 1474 372 1524 461 m 1115 993 q 930 850 1046 956 q 1089 867 1013 856 q 1230 898 1165 878 q 1363 951 1313 920 q 1417 1011 1413 981 q 1409 1043 1424 1031 q 1385 1056 1400 1052 q 1354 1059 1370 1059 q 1317 1058 1335 1061 q 1287 1054 1298 1056 q 1253 1046 1269 1050 q 1220 1039 1237 1043 q 1174 1021 1202 1031 q 1115 993 1146 1011 m 1369 1209 q 1430 1191 1406 1194 q 1469 1185 1454 1187 q 1493 1180 1483 1183 q 1511 1161 1502 1176 q 1518 1136 1519 1148 q 1507 1119 1517 1124 q 1469 1116 1491 1109 q 1428 1134 1448 1122 q 1393 1157 1407 1146 q 1376 1170 1378 1169 q 1344 1199 1361 1185 q 1322 1233 1328 1213 q 1326 1235 1322 1237 q 1336 1228 1330 1233 q 1351 1217 1343 1222 q 1369 1209 1359 1211 z "},"":{"ha":1504,"x_min":78,"x_max":1570,"o":"m 1474 372 q 1409 267 1439 307 q 1376 222 1380 226 q 1283 114 1343 172 q 1152 6 1224 56 q 998 -77 1080 -43 q 839 -113 917 -111 l 824 -113 q 717 -103 763 -115 q 637 -70 670 -91 q 581 -23 604 -50 q 544 30 557 4 q 511 224 502 115 q 560 444 520 333 q 661 651 600 554 q 783 811 722 748 q 769 811 776 811 q 754 813 761 811 q 719 812 750 813 q 643 806 689 811 q 538 790 596 800 q 419 763 480 780 q 301 719 357 746 q 200 656 244 693 q 178 613 185 637 q 172 591 174 602 q 158 544 169 563 q 135 516 148 524 q 109 510 122 507 q 89 526 96 513 q 89 567 78 546 q 91 574 89 572 l 91 576 q 96 588 94 581 q 102 598 98 594 q 107 609 106 604 q 111 615 109 611 q 115 620 113 619 q 120 626 117 622 q 128 635 126 631 q 131 641 130 639 l 131 639 q 135 643 135 643 q 252 733 180 691 q 353 779 296 759 q 474 815 409 798 q 580 833 530 826 q 669 844 630 841 q 731 849 707 848 q 757 850 756 850 l 759 850 q 790 848 774 848 q 824 848 806 848 q 1011 985 915 930 q 1285 1091 1146 1065 q 1308 1094 1289 1091 q 1352 1096 1328 1096 q 1400 1091 1376 1096 q 1441 1070 1424 1085 q 1455 1044 1450 1059 q 1454 1009 1459 1030 q 1387 924 1448 969 q 1319 891 1356 906 q 1235 861 1283 876 q 889 813 1085 819 q 802 710 844 772 q 722 576 759 648 q 656 426 685 504 q 612 276 628 348 q 595 142 596 204 q 615 39 594 80 q 685 -46 633 -17 q 841 -72 737 -76 q 994 -33 917 -70 q 1142 59 1070 4 q 1274 182 1213 115 q 1380 317 1335 250 q 1481 499 1450 422 q 1522 626 1513 576 q 1522 726 1531 685 q 1378 817 1498 813 l 1376 817 l 1365 817 q 1335 812 1357 817 q 1278 790 1313 807 q 1198 735 1243 772 q 1104 635 1154 698 q 1059 572 1081 607 q 1015 497 1039 541 q 969 398 991 454 q 946 318 948 348 q 953 270 944 287 q 974 247 961 254 q 996 239 987 241 q 1079 254 1041 233 q 1143 298 1117 274 q 1204 369 1176 330 q 1248 452 1231 409 q 1250 481 1252 467 q 1244 506 1248 494 q 1233 530 1239 519 q 1217 569 1219 550 q 1222 600 1215 587 q 1242 619 1230 613 q 1269 622 1254 626 q 1288 608 1281 619 q 1298 585 1294 598 q 1304 554 1302 570 l 1304 543 q 1304 532 1304 539 q 1302 520 1304 526 q 1296 489 1302 507 q 1285 444 1293 469 q 1234 352 1265 396 q 1167 272 1204 307 q 978 204 1076 187 q 889 269 911 215 q 879 347 874 304 q 895 430 883 391 q 919 495 907 469 q 933 526 931 522 q 1001 636 965 585 q 1080 726 1037 687 q 1226 822 1144 789 q 1334 852 1291 850 q 1385 854 1378 854 q 1528 796 1483 850 q 1569 680 1565 756 q 1547 538 1570 615 q 1474 372 1524 461 m 1115 993 q 930 850 1046 956 q 1089 867 1013 856 q 1230 898 1165 878 q 1363 951 1313 920 q 1417 1011 1413 981 q 1409 1043 1424 1031 q 1385 1056 1400 1052 q 1354 1059 1370 1059 q 1317 1058 1335 1061 q 1287 1054 1298 1056 q 1253 1046 1269 1050 q 1220 1039 1237 1043 q 1174 1021 1202 1031 q 1115 993 1146 1011 m 1330 1167 q 1382 1199 1365 1185 q 1411 1222 1400 1213 q 1428 1230 1419 1230 q 1444 1228 1431 1231 l 1450 1224 q 1456 1220 1454 1220 q 1459 1215 1459 1217 q 1461 1213 1459 1213 q 1467 1198 1467 1204 q 1476 1167 1470 1187 q 1500 1111 1481 1146 q 1519 1083 1504 1096 q 1526 1070 1533 1070 q 1494 1086 1509 1072 q 1465 1111 1480 1100 q 1450 1124 1463 1111 q 1424 1154 1437 1137 q 1381 1143 1402 1144 q 1356 1141 1359 1141 q 1322 1142 1341 1143 q 1289 1154 1304 1141 q 1300 1157 1283 1157 q 1330 1167 1317 1157 z "},"":{"ha":1504,"x_min":78,"x_max":1570,"o":"m 1474 372 q 1409 267 1439 307 q 1376 222 1380 226 q 1283 114 1343 172 q 1152 6 1224 56 q 998 -77 1080 -43 q 839 -113 917 -111 l 824 -113 q 717 -103 763 -115 q 637 -70 670 -91 q 581 -23 604 -50 q 544 30 557 4 q 511 224 502 115 q 560 444 520 333 q 661 651 600 554 q 783 811 722 748 q 769 811 776 811 q 754 813 761 811 q 719 812 750 813 q 643 806 689 811 q 538 790 596 800 q 419 763 480 780 q 301 719 357 746 q 200 656 244 693 q 178 613 185 637 q 172 591 174 602 q 158 544 169 563 q 135 516 148 524 q 109 510 122 507 q 89 526 96 513 q 89 567 78 546 q 91 574 89 572 l 91 576 q 96 588 94 581 q 102 598 98 594 q 107 609 106 604 q 111 615 109 611 q 115 620 113 619 q 120 626 117 622 q 128 635 126 631 q 131 641 130 639 l 131 639 q 135 643 135 643 q 252 733 180 691 q 353 779 296 759 q 474 815 409 798 q 580 833 530 826 q 669 844 630 841 q 731 849 707 848 q 757 850 756 850 l 759 850 q 790 848 774 848 q 824 848 806 848 q 1011 985 915 930 q 1285 1091 1146 1065 q 1308 1094 1289 1091 q 1352 1096 1328 1096 q 1400 1091 1376 1096 q 1441 1070 1424 1085 q 1455 1044 1450 1059 q 1454 1009 1459 1030 q 1387 924 1448 969 q 1319 891 1356 906 q 1235 861 1283 876 q 889 813 1085 819 q 802 710 844 772 q 722 576 759 648 q 656 426 685 504 q 612 276 628 348 q 595 142 596 204 q 615 39 594 80 q 685 -46 633 -17 q 841 -72 737 -76 q 994 -33 917 -70 q 1142 59 1070 4 q 1274 182 1213 115 q 1380 317 1335 250 q 1481 499 1450 422 q 1522 626 1513 576 q 1522 726 1531 685 q 1378 817 1498 813 l 1376 817 l 1365 817 q 1335 812 1357 817 q 1278 790 1313 807 q 1198 735 1243 772 q 1104 635 1154 698 q 1059 572 1081 607 q 1015 497 1039 541 q 969 398 991 454 q 946 318 948 348 q 953 270 944 287 q 974 247 961 254 q 996 239 987 241 q 1079 254 1041 233 q 1143 298 1117 274 q 1204 369 1176 330 q 1248 452 1231 409 q 1250 481 1252 467 q 1244 506 1248 494 q 1233 530 1239 519 q 1217 569 1219 550 q 1222 600 1215 587 q 1242 619 1230 613 q 1269 622 1254 626 q 1288 608 1281 619 q 1298 585 1294 598 q 1304 554 1302 570 l 1304 543 q 1304 532 1304 539 q 1302 520 1304 526 q 1296 489 1302 507 q 1285 444 1293 469 q 1234 352 1265 396 q 1167 272 1204 307 q 978 204 1076 187 q 889 269 911 215 q 879 347 874 304 q 895 430 883 391 q 919 495 907 469 q 933 526 931 522 q 1001 636 965 585 q 1080 726 1037 687 q 1226 822 1144 789 q 1334 852 1291 850 q 1385 854 1378 854 q 1528 796 1483 850 q 1569 680 1565 756 q 1547 538 1570 615 q 1474 372 1524 461 m 1115 993 q 930 850 1046 956 q 1089 867 1013 856 q 1230 898 1165 878 q 1363 951 1313 920 q 1417 1011 1413 981 q 1409 1043 1424 1031 q 1385 1056 1400 1052 q 1354 1059 1370 1059 q 1317 1058 1335 1061 q 1287 1054 1298 1056 q 1253 1046 1269 1050 q 1220 1039 1237 1043 q 1174 1021 1202 1031 q 1115 993 1146 1011 m 1333 1198 q 1305 1195 1319 1202 q 1293 1198 1291 1189 q 1319 1229 1300 1219 q 1359 1239 1337 1239 q 1404 1231 1381 1239 q 1443 1206 1426 1222 q 1451 1194 1448 1200 q 1459 1181 1454 1187 q 1474 1165 1465 1174 q 1504 1143 1483 1156 q 1532 1128 1517 1130 q 1543 1120 1548 1126 q 1512 1112 1530 1109 q 1478 1119 1494 1115 q 1454 1123 1476 1119 q 1407 1154 1431 1128 q 1385 1180 1396 1163 q 1333 1198 1374 1196 z "},"":{"ha":1504,"x_min":78,"x_max":1570,"o":"m 1474 372 q 1409 267 1439 307 q 1376 222 1380 226 q 1283 114 1343 172 q 1152 6 1224 56 q 998 -77 1080 -43 q 839 -113 917 -111 l 824 -113 q 717 -103 763 -115 q 637 -70 670 -91 q 581 -23 604 -50 q 544 30 557 4 q 511 224 502 115 q 560 444 520 333 q 661 651 600 554 q 783 811 722 748 q 769 811 776 811 q 754 813 761 811 q 719 812 750 813 q 643 806 689 811 q 538 790 596 800 q 419 763 480 780 q 301 719 357 746 q 200 656 244 693 q 178 613 185 637 q 172 591 174 602 q 158 544 169 563 q 135 516 148 524 q 109 510 122 507 q 89 526 96 513 q 89 567 78 546 q 91 574 89 572 l 91 576 q 96 588 94 581 q 102 598 98 594 q 107 609 106 604 q 111 615 109 611 q 115 620 113 619 q 120 626 117 622 q 128 635 126 631 q 131 641 130 639 l 131 639 q 135 643 135 643 q 252 733 180 691 q 353 779 296 759 q 474 815 409 798 q 580 833 530 826 q 669 844 630 841 q 731 849 707 848 q 757 850 756 850 l 759 850 q 790 848 774 848 q 824 848 806 848 q 1011 985 915 930 q 1285 1091 1146 1065 q 1308 1094 1289 1091 q 1352 1096 1328 1096 q 1400 1091 1376 1096 q 1441 1070 1424 1085 q 1455 1044 1450 1059 q 1454 1009 1459 1030 q 1387 924 1448 969 q 1319 891 1356 906 q 1235 861 1283 876 q 889 813 1085 819 q 802 710 844 772 q 722 576 759 648 q 656 426 685 504 q 612 276 628 348 q 595 142 596 204 q 615 39 594 80 q 685 -46 633 -17 q 841 -72 737 -76 q 994 -33 917 -70 q 1142 59 1070 4 q 1274 182 1213 115 q 1380 317 1335 250 q 1481 499 1450 422 q 1522 626 1513 576 q 1522 726 1531 685 q 1378 817 1498 813 l 1376 817 l 1365 817 q 1335 812 1357 817 q 1278 790 1313 807 q 1198 735 1243 772 q 1104 635 1154 698 q 1059 572 1081 607 q 1015 497 1039 541 q 969 398 991 454 q 946 318 948 348 q 953 270 944 287 q 974 247 961 254 q 996 239 987 241 q 1079 254 1041 233 q 1143 298 1117 274 q 1204 369 1176 330 q 1248 452 1231 409 q 1250 481 1252 467 q 1244 506 1248 494 q 1233 530 1239 519 q 1217 569 1219 550 q 1222 600 1215 587 q 1242 619 1230 613 q 1269 622 1254 626 q 1288 608 1281 619 q 1298 585 1294 598 q 1304 554 1302 570 l 1304 543 q 1304 532 1304 539 q 1302 520 1304 526 q 1296 489 1302 507 q 1285 444 1293 469 q 1234 352 1265 396 q 1167 272 1204 307 q 978 204 1076 187 q 889 269 911 215 q 879 347 874 304 q 895 430 883 391 q 919 495 907 469 q 933 526 931 522 q 1001 636 965 585 q 1080 726 1037 687 q 1226 822 1144 789 q 1334 852 1291 850 q 1385 854 1378 854 q 1528 796 1483 850 q 1569 680 1565 756 q 1547 538 1570 615 q 1474 372 1524 461 m 1115 993 q 930 850 1046 956 q 1089 867 1013 856 q 1230 898 1165 878 q 1363 951 1313 920 q 1417 1011 1413 981 q 1409 1043 1424 1031 q 1385 1056 1400 1052 q 1354 1059 1370 1059 q 1317 1058 1335 1061 q 1287 1054 1298 1056 q 1253 1046 1269 1050 q 1220 1039 1237 1043 q 1174 1021 1202 1031 q 1115 993 1146 1011 m 1330 1196 q 1347 1235 1335 1220 q 1374 1255 1359 1250 q 1401 1255 1389 1259 q 1419 1233 1413 1250 q 1418 1206 1422 1219 q 1406 1181 1413 1193 q 1385 1156 1398 1169 q 1343 1144 1363 1141 q 1330 1196 1322 1146 m 1450 1152 q 1468 1191 1456 1176 q 1494 1210 1480 1206 q 1521 1210 1509 1215 q 1539 1189 1533 1206 q 1538 1161 1543 1174 q 1526 1137 1533 1148 q 1506 1111 1519 1124 q 1463 1099 1483 1096 q 1450 1152 1443 1102 z "},"":{"ha":1504,"x_min":78,"x_max":1570,"o":"m 1367 1161 l 1367 1165 q 1379 1178 1372 1170 q 1389 1183 1385 1185 q 1404 1179 1396 1183 q 1414 1162 1411 1174 q 1411 1128 1417 1150 q 1387 1069 1406 1106 q 1338 983 1380 1057 q 1234 798 1296 909 q 1097 552 1172 687 q 948 284 1022 417 q 808 33 874 152 q 700 -161 743 -85 l 700 -163 q 690 -177 696 -169 q 680 -183 683 -185 q 665 -178 672 -181 q 656 -162 657 -174 q 659 -127 654 -150 q 685 -65 665 -104 l 1367 1161 m 1474 372 q 1409 267 1439 307 q 1376 222 1380 226 q 1283 114 1343 172 q 1152 6 1224 56 q 998 -77 1080 -43 q 839 -113 917 -111 l 824 -113 q 717 -103 763 -115 q 637 -70 670 -91 q 581 -23 604 -50 q 544 30 557 4 q 511 224 502 115 q 560 444 520 333 q 661 651 600 554 q 783 811 722 748 q 769 811 776 811 q 754 813 761 811 q 719 812 750 813 q 643 806 689 811 q 538 790 596 800 q 419 763 480 780 q 301 719 357 746 q 200 656 244 693 q 178 613 185 637 q 172 591 174 602 q 158 544 169 563 q 135 516 148 524 q 109 510 122 507 q 89 526 96 513 q 89 567 78 546 q 91 574 89 572 l 91 576 q 96 588 94 581 q 102 598 98 594 q 107 609 106 604 q 111 615 109 611 q 115 620 113 619 q 120 626 117 622 q 128 635 126 631 q 131 641 130 639 l 131 639 q 135 643 135 643 q 252 733 180 691 q 353 779 296 759 q 474 815 409 798 q 580 833 530 826 q 669 844 630 841 q 731 849 707 848 q 757 850 756 850 l 759 850 q 790 848 774 848 q 824 848 806 848 q 1011 985 915 930 q 1285 1091 1146 1065 q 1308 1094 1289 1091 q 1352 1096 1328 1096 q 1400 1091 1376 1096 q 1441 1070 1424 1085 q 1455 1044 1450 1059 q 1454 1009 1459 1030 q 1387 924 1448 969 q 1319 891 1356 906 q 1235 861 1283 876 q 889 813 1085 819 q 802 710 844 772 q 722 576 759 648 q 656 426 685 504 q 612 276 628 348 q 595 142 596 204 q 615 39 594 80 q 685 -46 633 -17 q 841 -72 737 -76 q 994 -33 917 -70 q 1142 59 1070 4 q 1274 182 1213 115 q 1380 317 1335 250 q 1481 499 1450 422 q 1522 626 1513 576 q 1522 726 1531 685 q 1378 817 1498 813 l 1376 817 l 1365 817 q 1335 812 1357 817 q 1278 790 1313 807 q 1198 735 1243 772 q 1104 635 1154 698 q 1059 572 1081 607 q 1015 497 1039 541 q 969 398 991 454 q 946 318 948 348 q 953 270 944 287 q 974 247 961 254 q 996 239 987 241 q 1079 254 1041 233 q 1143 298 1117 274 q 1204 369 1176 330 q 1248 452 1231 409 q 1250 481 1252 467 q 1244 506 1248 494 q 1233 530 1239 519 q 1217 569 1219 550 q 1222 600 1215 587 q 1242 619 1230 613 q 1269 622 1254 626 q 1288 608 1281 619 q 1298 585 1294 598 q 1304 554 1302 570 l 1304 543 q 1304 532 1304 539 q 1302 520 1304 526 q 1296 489 1302 507 q 1285 444 1293 469 q 1234 352 1265 396 q 1167 272 1204 307 q 978 204 1076 187 q 889 269 911 215 q 879 347 874 304 q 895 430 883 391 q 919 495 907 469 q 933 526 931 522 q 1001 636 965 585 q 1080 726 1037 687 q 1226 822 1144 789 q 1334 852 1291 850 q 1385 854 1378 854 q 1528 796 1483 850 q 1569 680 1565 756 q 1547 538 1570 615 q 1474 372 1524 461 m 1115 993 q 930 850 1046 956 q 1089 867 1013 856 q 1230 898 1165 878 q 1363 951 1313 920 q 1417 1011 1413 981 q 1409 1043 1424 1031 q 1385 1056 1400 1052 q 1354 1059 1370 1059 q 1317 1058 1335 1061 q 1287 1054 1298 1056 q 1253 1046 1269 1050 q 1220 1039 1237 1043 q 1174 1021 1202 1031 q 1115 993 1146 1011 z "},"":{"ha":1537,"x_min":57,"x_max":1876,"o":"m 1876 987 q 1875 979 1876 983 q 1869 967 1874 974 q 1810 890 1854 946 q 1709 754 1767 833 q 1585 578 1652 674 q 1457 380 1519 481 q 1421 319 1441 352 q 1383 254 1402 287 q 1348 189 1365 220 q 1320 133 1331 157 l 1315 122 q 1297 65 1300 89 q 1313 37 1294 41 q 1369 50 1331 31 q 1443 94 1406 69 q 1535 163 1487 124 q 1556 176 1548 170 q 1569 179 1563 180 q 1572 169 1574 178 q 1565 154 1570 161 q 1539 124 1556 139 q 1502 94 1530 117 q 1440 49 1474 72 q 1369 9 1406 26 q 1304 -6 1331 -7 q 1262 11 1278 -4 q 1239 47 1246 26 q 1232 94 1231 69 q 1239 143 1233 119 q 1284 258 1250 191 q 1356 391 1319 326 q 1339 370 1344 376 q 1194 219 1263 285 q 1059 109 1124 154 q 817 11 922 11 q 797 12 807 11 q 778 15 787 13 q 691 81 711 26 q 719 250 672 143 q 738 291 728 270 q 763 333 748 311 q 826 436 783 369 q 917 582 869 504 q 1012 740 965 661 q 1089 878 1059 819 q 1120 959 1115 930 q 1122 1005 1126 989 q 1108 1025 1119 1020 q 1091 1030 1098 1030 q 969 978 1039 1028 q 822 865 900 928 q 689 759 759 813 q 544 667 619 706 q 335 609 435 609 q 233 626 283 609 q 196 643 230 628 q 128 694 163 657 q 95 735 111 711 q 69 791 80 759 q 58 861 59 822 q 70 948 57 900 q 169 1081 96 1039 q 283 1113 222 1111 q 383 1109 344 1115 q 393 1107 387 1107 q 402 1106 398 1107 q 433 1095 417 1102 q 457 1074 450 1089 q 442 1030 472 1044 q 370 1041 411 1015 q 343 1059 357 1052 q 313 1071 330 1067 q 281 1074 296 1076 l 285 1076 q 234 1069 259 1074 q 187 1048 209 1063 q 106 939 128 1017 q 154 720 72 802 q 184 693 169 704 q 215 674 200 681 q 244 661 230 667 q 528 700 369 619 q 668 790 598 737 q 798 893 737 843 q 889 966 844 931 q 973 1024 933 1000 q 1049 1059 1013 1048 q 1119 1063 1085 1070 q 1200 996 1181 1048 q 1165 826 1220 931 q 1101 706 1154 802 q 931 443 1048 611 q 819 269 863 344 q 762 141 776 193 q 768 65 748 89 q 844 50 787 41 q 1311 394 1028 76 q 1454 568 1389 483 q 1559 709 1519 652 q 1585 748 1572 730 q 1611 785 1598 767 l 1611 787 q 1732 957 1680 885 q 1806 1056 1785 1030 q 1815 1063 1809 1059 q 1828 1063 1820 1067 q 1857 1042 1841 1059 q 1876 987 1874 1024 m 1569 1111 q 1583 1101 1574 1106 q 1600 1093 1593 1096 q 1611 1087 1607 1089 q 1611 1083 1615 1085 q 1570 1085 1591 1078 q 1530 1098 1550 1093 q 1511 1106 1528 1098 q 1474 1125 1494 1113 q 1437 1153 1454 1137 q 1420 1187 1420 1169 q 1456 1211 1420 1211 q 1481 1206 1472 1211 q 1498 1187 1489 1200 q 1522 1156 1507 1174 q 1569 1111 1537 1137 z "},"":{"ha":1537,"x_min":57,"x_max":1876,"o":"m 1876 987 q 1875 979 1876 983 q 1869 967 1874 974 q 1810 890 1854 946 q 1709 754 1767 833 q 1585 578 1652 674 q 1457 380 1519 481 q 1421 319 1441 352 q 1383 254 1402 287 q 1348 189 1365 220 q 1320 133 1331 157 l 1315 122 q 1297 65 1300 89 q 1313 37 1294 41 q 1369 50 1331 31 q 1443 94 1406 69 q 1535 163 1487 124 q 1556 176 1548 170 q 1569 179 1563 180 q 1572 169 1574 178 q 1565 154 1570 161 q 1539 124 1556 139 q 1502 94 1530 117 q 1440 49 1474 72 q 1369 9 1406 26 q 1304 -6 1331 -7 q 1262 11 1278 -4 q 1239 47 1246 26 q 1232 94 1231 69 q 1239 143 1233 119 q 1284 258 1250 191 q 1356 391 1319 326 q 1339 370 1344 376 q 1194 219 1263 285 q 1059 109 1124 154 q 817 11 922 11 q 797 12 807 11 q 778 15 787 13 q 691 81 711 26 q 719 250 672 143 q 738 291 728 270 q 763 333 748 311 q 826 436 783 369 q 917 582 869 504 q 1012 740 965 661 q 1089 878 1059 819 q 1120 959 1115 930 q 1122 1005 1126 989 q 1108 1025 1119 1020 q 1091 1030 1098 1030 q 969 978 1039 1028 q 822 865 900 928 q 689 759 759 813 q 544 667 619 706 q 335 609 435 609 q 233 626 283 609 q 196 643 230 628 q 128 694 163 657 q 95 735 111 711 q 69 791 80 759 q 58 861 59 822 q 70 948 57 900 q 169 1081 96 1039 q 283 1113 222 1111 q 383 1109 344 1115 q 393 1107 387 1107 q 402 1106 398 1107 q 433 1095 417 1102 q 457 1074 450 1089 q 442 1030 472 1044 q 370 1041 411 1015 q 343 1059 357 1052 q 313 1071 330 1067 q 281 1074 296 1076 l 285 1076 q 234 1069 259 1074 q 187 1048 209 1063 q 106 939 128 1017 q 154 720 72 802 q 184 693 169 704 q 215 674 200 681 q 244 661 230 667 q 528 700 369 619 q 668 790 598 737 q 798 893 737 843 q 889 966 844 931 q 973 1024 933 1000 q 1049 1059 1013 1048 q 1119 1063 1085 1070 q 1200 996 1181 1048 q 1165 826 1220 931 q 1101 706 1154 802 q 931 443 1048 611 q 819 269 863 344 q 762 141 776 193 q 768 65 748 89 q 844 50 787 41 q 1311 394 1028 76 q 1454 568 1389 483 q 1559 709 1519 652 q 1585 748 1572 730 q 1611 785 1598 767 l 1611 787 q 1732 957 1680 885 q 1806 1056 1785 1030 q 1815 1063 1809 1059 q 1828 1063 1820 1067 q 1857 1042 1841 1059 q 1876 987 1874 1024 m 1448 1178 q 1509 1159 1485 1163 q 1548 1154 1533 1156 q 1572 1148 1563 1152 q 1591 1130 1581 1144 q 1597 1105 1598 1117 q 1587 1087 1596 1093 q 1549 1084 1570 1078 q 1507 1103 1528 1091 q 1472 1126 1487 1115 q 1456 1139 1457 1137 q 1424 1168 1441 1154 q 1402 1202 1407 1181 q 1406 1204 1402 1206 q 1416 1196 1409 1202 q 1431 1185 1422 1191 q 1448 1178 1439 1180 z "},"":{"ha":1537,"x_min":57,"x_max":1876,"o":"m 1876 987 q 1875 979 1876 983 q 1869 967 1874 974 q 1810 890 1854 946 q 1709 754 1767 833 q 1585 578 1652 674 q 1457 380 1519 481 q 1421 319 1441 352 q 1383 254 1402 287 q 1348 189 1365 220 q 1320 133 1331 157 l 1315 122 q 1297 65 1300 89 q 1313 37 1294 41 q 1369 50 1331 31 q 1443 94 1406 69 q 1535 163 1487 124 q 1556 176 1548 170 q 1569 179 1563 180 q 1572 169 1574 178 q 1565 154 1570 161 q 1539 124 1556 139 q 1502 94 1530 117 q 1440 49 1474 72 q 1369 9 1406 26 q 1304 -6 1331 -7 q 1262 11 1278 -4 q 1239 47 1246 26 q 1232 94 1231 69 q 1239 143 1233 119 q 1284 258 1250 191 q 1356 391 1319 326 q 1339 370 1344 376 q 1194 219 1263 285 q 1059 109 1124 154 q 817 11 922 11 q 797 12 807 11 q 778 15 787 13 q 691 81 711 26 q 719 250 672 143 q 738 291 728 270 q 763 333 748 311 q 826 436 783 369 q 917 582 869 504 q 1012 740 965 661 q 1089 878 1059 819 q 1120 959 1115 930 q 1122 1005 1126 989 q 1108 1025 1119 1020 q 1091 1030 1098 1030 q 969 978 1039 1028 q 822 865 900 928 q 689 759 759 813 q 544 667 619 706 q 335 609 435 609 q 233 626 283 609 q 196 643 230 628 q 128 694 163 657 q 95 735 111 711 q 69 791 80 759 q 58 861 59 822 q 70 948 57 900 q 169 1081 96 1039 q 283 1113 222 1111 q 383 1109 344 1115 q 393 1107 387 1107 q 402 1106 398 1107 q 433 1095 417 1102 q 457 1074 450 1089 q 442 1030 472 1044 q 370 1041 411 1015 q 343 1059 357 1052 q 313 1071 330 1067 q 281 1074 296 1076 l 285 1076 q 234 1069 259 1074 q 187 1048 209 1063 q 106 939 128 1017 q 154 720 72 802 q 184 693 169 704 q 215 674 200 681 q 244 661 230 667 q 528 700 369 619 q 668 790 598 737 q 798 893 737 843 q 889 966 844 931 q 973 1024 933 1000 q 1049 1059 1013 1048 q 1119 1063 1085 1070 q 1200 996 1181 1048 q 1165 826 1220 931 q 1101 706 1154 802 q 931 443 1048 611 q 819 269 863 344 q 762 141 776 193 q 768 65 748 89 q 844 50 787 41 q 1311 394 1028 76 q 1454 568 1389 483 q 1559 709 1519 652 q 1585 748 1572 730 q 1611 785 1598 767 l 1611 787 q 1732 957 1680 885 q 1806 1056 1785 1030 q 1815 1063 1809 1059 q 1828 1063 1820 1067 q 1857 1042 1841 1059 q 1876 987 1874 1024 m 1431 1143 q 1484 1175 1467 1161 q 1513 1198 1502 1189 q 1530 1206 1520 1206 q 1546 1204 1533 1207 l 1552 1200 q 1557 1196 1556 1196 q 1561 1191 1561 1193 q 1563 1189 1561 1189 q 1569 1174 1569 1180 q 1578 1143 1572 1163 q 1602 1087 1583 1122 q 1620 1059 1606 1072 q 1628 1046 1635 1046 q 1596 1062 1611 1048 q 1567 1087 1581 1076 q 1552 1100 1565 1087 q 1526 1130 1539 1113 q 1482 1119 1504 1120 q 1457 1117 1461 1117 q 1424 1118 1443 1119 q 1391 1130 1406 1117 q 1402 1133 1385 1133 q 1431 1143 1419 1133 z "},"":{"ha":1537,"x_min":57,"x_max":1876,"o":"m 1876 987 q 1875 979 1876 983 q 1869 967 1874 974 q 1810 890 1854 946 q 1709 754 1767 833 q 1585 578 1652 674 q 1457 380 1519 481 q 1421 319 1441 352 q 1383 254 1402 287 q 1348 189 1365 220 q 1320 133 1331 157 l 1315 122 q 1297 65 1300 89 q 1313 37 1294 41 q 1369 50 1331 31 q 1443 94 1406 69 q 1535 163 1487 124 q 1556 176 1548 170 q 1569 179 1563 180 q 1572 169 1574 178 q 1565 154 1570 161 q 1539 124 1556 139 q 1502 94 1530 117 q 1440 49 1474 72 q 1369 9 1406 26 q 1304 -6 1331 -7 q 1262 11 1278 -4 q 1239 47 1246 26 q 1232 94 1231 69 q 1239 143 1233 119 q 1284 258 1250 191 q 1356 391 1319 326 q 1339 370 1344 376 q 1194 219 1263 285 q 1059 109 1124 154 q 817 11 922 11 q 797 12 807 11 q 778 15 787 13 q 691 81 711 26 q 719 250 672 143 q 738 291 728 270 q 763 333 748 311 q 826 436 783 369 q 917 582 869 504 q 1012 740 965 661 q 1089 878 1059 819 q 1120 959 1115 930 q 1122 1005 1126 989 q 1108 1025 1119 1020 q 1091 1030 1098 1030 q 969 978 1039 1028 q 822 865 900 928 q 689 759 759 813 q 544 667 619 706 q 335 609 435 609 q 233 626 283 609 q 196 643 230 628 q 128 694 163 657 q 95 735 111 711 q 69 791 80 759 q 58 861 59 822 q 70 948 57 900 q 169 1081 96 1039 q 283 1113 222 1111 q 383 1109 344 1115 q 393 1107 387 1107 q 402 1106 398 1107 q 433 1095 417 1102 q 457 1074 450 1089 q 442 1030 472 1044 q 370 1041 411 1015 q 343 1059 357 1052 q 313 1071 330 1067 q 281 1074 296 1076 l 285 1076 q 234 1069 259 1074 q 187 1048 209 1063 q 106 939 128 1017 q 154 720 72 802 q 184 693 169 704 q 215 674 200 681 q 244 661 230 667 q 528 700 369 619 q 668 790 598 737 q 798 893 737 843 q 889 966 844 931 q 973 1024 933 1000 q 1049 1059 1013 1048 q 1119 1063 1085 1070 q 1200 996 1181 1048 q 1165 826 1220 931 q 1101 706 1154 802 q 931 443 1048 611 q 819 269 863 344 q 762 141 776 193 q 768 65 748 89 q 844 50 787 41 q 1311 394 1028 76 q 1454 568 1389 483 q 1559 709 1519 652 q 1585 748 1572 730 q 1611 785 1598 767 l 1611 787 q 1732 957 1680 885 q 1806 1056 1785 1030 q 1815 1063 1809 1059 q 1828 1063 1820 1067 q 1857 1042 1841 1059 q 1876 987 1874 1024 m 1387 1167 q 1405 1206 1393 1191 q 1431 1225 1417 1220 q 1458 1225 1446 1230 q 1476 1204 1470 1220 q 1475 1176 1480 1189 q 1463 1152 1470 1163 q 1443 1126 1456 1139 q 1400 1114 1420 1111 q 1387 1167 1380 1117 m 1507 1122 q 1525 1161 1513 1146 q 1552 1181 1537 1176 q 1579 1181 1567 1185 q 1596 1159 1591 1176 q 1595 1131 1600 1144 q 1583 1107 1591 1119 q 1563 1081 1576 1094 q 1520 1069 1541 1067 q 1507 1122 1500 1072 z "},"":{"ha":1598,"x_min":48,"x_max":1939,"o":"m 1228 826 q 1164 706 1217 802 q 994 443 1111 611 q 907 310 944 370 q 848 202 870 250 q 1017 87 933 154 q 1374 394 1170 165 q 1517 568 1452 483 q 1622 709 1581 652 q 1648 748 1635 730 q 1674 785 1661 767 l 1674 787 q 1795 957 1743 885 q 1869 1056 1848 1030 q 1878 1063 1872 1059 q 1891 1063 1883 1067 q 1920 1042 1904 1059 q 1939 987 1937 1024 q 1938 979 1939 983 q 1931 967 1937 974 q 1873 890 1917 946 q 1772 754 1830 833 q 1649 578 1715 674 q 1522 380 1583 481 q 1486 319 1506 352 q 1447 254 1467 287 q 1411 189 1428 220 q 1383 133 1394 157 l 1378 122 q 1360 65 1363 89 q 1376 37 1357 41 q 1431 50 1394 31 q 1506 94 1469 69 q 1598 163 1550 124 q 1619 176 1611 170 q 1631 179 1626 180 q 1635 169 1637 178 q 1628 154 1633 161 q 1602 124 1619 139 q 1565 94 1593 117 q 1503 49 1537 72 q 1431 9 1469 26 q 1367 -6 1394 -7 q 1331 7 1344 -4 q 1307 35 1317 19 q 1280 -6 1294 15 q 1250 -48 1265 -28 q 1232 -73 1241 -61 q 1215 -96 1224 -85 q 1465 -407 1339 -230 q 1467 -410 1467 -409 q 1469 -413 1467 -411 l 1480 -431 q 1491 -463 1487 -448 q 1494 -490 1494 -476 q 1485 -515 1493 -504 q 1463 -531 1476 -528 q 1439 -526 1450 -533 q 1419 -500 1428 -519 q 1413 -454 1411 -481 q 1411 -426 1413 -441 q 1393 -369 1407 -396 q 1383 -357 1385 -361 l 1378 -352 l 1380 -354 q 1191 -126 1285 -226 q 956 -361 1074 -270 q 570 -509 763 -506 q 565 -510 569 -509 q 556 -511 561 -511 q 476 -506 530 -511 q 357 -480 422 -500 q 189 -391 257 -448 q 67 -206 100 -317 q 56 -81 48 -146 q 94 50 63 -15 q 179 169 126 117 q 298 256 231 222 q 517 302 402 304 q 778 237 639 300 q 783 250 780 243 q 803 291 793 270 q 826 333 813 311 q 889 436 846 369 q 980 582 931 504 q 1075 740 1028 661 q 1152 878 1122 819 q 1183 959 1178 930 q 1185 1005 1189 989 q 1171 1025 1181 1020 q 1154 1030 1161 1030 q 1032 978 1102 1028 q 885 865 963 928 q 752 759 822 813 q 607 667 681 706 q 398 609 498 609 q 296 626 346 609 q 270 636 293 628 q 219 662 248 644 q 158 707 189 680 q 107 774 128 735 q 98 956 65 856 q 324 1115 146 1100 q 391 1116 359 1119 q 444 1109 422 1113 q 447 1108 446 1109 q 452 1107 448 1107 q 463 1106 457 1107 l 465 1106 q 474 1104 469 1104 q 483 1100 480 1104 l 487 1100 q 491 1098 487 1100 q 524 1070 517 1089 q 526 1044 531 1056 q 506 1028 520 1033 q 473 1024 493 1022 q 435 1041 454 1026 q 411 1059 424 1052 q 386 1072 400 1067 q 357 1080 372 1078 q 342 1078 348 1078 q 326 1078 335 1078 q 133 944 172 1063 q 139 791 106 857 q 185 731 157 756 q 240 692 213 707 q 287 669 267 676 q 307 661 307 661 q 591 700 433 617 q 731 790 661 737 q 861 893 800 843 q 952 966 907 931 q 1036 1024 996 1000 q 1112 1059 1076 1048 q 1181 1063 1148 1070 q 1263 996 1244 1048 q 1228 826 1285 933 m 1124 109 q 1085 83 1104 94 q 1048 61 1067 72 q 1101 17 1074 41 q 1154 -33 1128 -7 q 1231 82 1194 24 q 1300 194 1269 141 q 1356 291 1331 246 q 1396 365 1381 335 q 1254 218 1322 281 q 1124 109 1185 154 m 1131 -65 q 1011 44 1072 -6 q 880 11 941 11 q 861 12 870 11 q 843 15 852 13 q 754 81 774 26 q 763 204 737 128 q 624 251 689 237 q 506 265 559 265 q 398 252 446 265 q 313 222 350 239 q 206 143 254 191 q 128 33 157 94 q 94 -83 100 -24 q 102 -194 87 -143 q 369 -444 161 -381 q 465 -467 420 -461 q 537 -472 509 -472 q 677 -450 611 -472 q 803 -391 743 -428 q 918 -304 863 -354 q 1024 -198 972 -254 q 1079 -134 1052 -167 q 1131 -65 1106 -102 m 980 70 q 906 122 943 98 q 833 167 870 146 q 826 71 809 102 q 907 50 843 41 q 942 57 924 54 q 980 70 959 61 m 1496 1183 q 1557 1165 1533 1169 q 1596 1159 1581 1161 q 1620 1154 1611 1157 q 1639 1135 1630 1150 q 1645 1110 1646 1122 q 1635 1093 1644 1098 q 1597 1090 1619 1083 q 1556 1108 1576 1096 q 1520 1131 1535 1120 q 1504 1144 1506 1143 q 1472 1173 1489 1159 q 1450 1207 1456 1187 q 1454 1209 1450 1211 q 1464 1202 1457 1207 q 1479 1191 1470 1196 q 1496 1183 1487 1185 z "},"":{"ha":594,"x_min":-15,"x_max":633,"o":"m 304 157 q 249 104 280 131 q 185 51 219 76 q 119 10 152 26 q 57 -6 87 -6 q 30 0 43 -6 q 7 17 17 6 q -8 43 -2 26 q -15 85 -15 59 q 8 185 -15 124 q 96 341 31 246 q 262 514 176 454 q 409 574 348 574 q 473 549 452 574 q 494 481 494 524 q 469 357 494 431 l 474 357 q 487 354 480 356 q 495 347 491 350 q 500 335 500 344 q 478 296 500 328 q 429 223 456 265 q 380 137 402 181 q 357 61 357 93 q 381 35 357 35 q 438 55 402 35 q 509 98 474 74 q 594 163 550 126 q 607 170 600 167 q 618 177 613 174 q 626 180 622 180 q 631 174 631 180 q 633 170 631 174 q 627 154 633 165 q 600 124 620 143 q 564 95 591 117 q 504 52 537 74 q 434 12 470 30 q 370 -6 398 -6 q 310 25 328 -6 q 293 94 293 56 q 304 157 293 126 m 180 300 q 133 231 156 267 q 94 164 111 196 q 68 105 78 131 q 57 63 57 78 q 69 50 57 50 q 116 69 83 50 q 187 116 148 87 q 268 180 226 144 q 343 248 309 215 q 360 279 352 263 q 380 311 369 294 q 393 328 385 320 q 411 343 400 335 q 441 354 422 350 q 448 398 444 374 q 452 443 452 422 q 444 483 452 467 q 413 500 435 500 q 358 481 389 500 q 296 433 328 463 q 234 369 265 404 q 180 300 204 333 m 498 633 q 513 623 504 628 q 530 615 522 619 q 541 609 537 611 q 541 606 544 607 q 500 607 520 600 q 459 620 480 615 q 441 628 457 620 q 404 647 424 635 q 367 675 383 659 q 350 709 350 691 q 385 733 350 733 q 410 728 402 733 q 428 709 419 722 q 452 678 437 696 q 498 633 467 659 z "},"":{"ha":594,"x_min":-15,"x_max":633,"o":"m 304 157 q 249 104 280 131 q 185 51 219 76 q 119 10 152 26 q 57 -6 87 -6 q 30 0 43 -6 q 7 17 17 6 q -8 43 -2 26 q -15 85 -15 59 q 8 185 -15 124 q 96 341 31 246 q 262 514 176 454 q 409 574 348 574 q 473 549 452 574 q 494 481 494 524 q 469 357 494 431 l 474 357 q 487 354 480 356 q 495 347 491 350 q 500 335 500 344 q 478 296 500 328 q 429 223 456 265 q 380 137 402 181 q 357 61 357 93 q 381 35 357 35 q 438 55 402 35 q 509 98 474 74 q 594 163 550 126 q 607 170 600 167 q 618 177 613 174 q 626 180 622 180 q 631 174 631 180 q 633 170 631 174 q 627 154 633 165 q 600 124 620 143 q 564 95 591 117 q 504 52 537 74 q 434 12 470 30 q 370 -6 398 -6 q 310 25 328 -6 q 293 94 293 56 q 304 157 293 126 m 180 300 q 133 231 156 267 q 94 164 111 196 q 68 105 78 131 q 57 63 57 78 q 69 50 57 50 q 116 69 83 50 q 187 116 148 87 q 268 180 226 144 q 343 248 309 215 q 360 279 352 263 q 380 311 369 294 q 393 328 385 320 q 411 343 400 335 q 441 354 422 350 q 448 398 444 374 q 452 443 452 422 q 444 483 452 467 q 413 500 435 500 q 358 481 389 500 q 296 433 328 463 q 234 369 265 404 q 180 300 204 333 m 400 689 q 461 670 437 674 q 500 665 485 667 q 524 659 515 663 q 543 641 533 656 q 549 616 550 628 q 539 598 548 604 q 501 595 522 589 q 459 614 480 602 q 424 637 439 626 q 407 650 409 648 q 376 679 393 665 q 354 713 359 693 q 357 715 354 717 q 368 707 361 713 q 382 696 374 702 q 400 689 391 691 z "},"":{"ha":594,"x_min":-15,"x_max":633,"o":"m 304 157 q 249 104 280 131 q 185 51 219 76 q 119 10 152 26 q 57 -6 87 -6 q 30 0 43 -6 q 7 17 17 6 q -8 43 -2 26 q -15 85 -15 59 q 8 185 -15 124 q 96 341 31 246 q 262 514 176 454 q 409 574 348 574 q 473 549 452 574 q 494 481 494 524 q 469 357 494 431 l 474 357 q 487 354 480 356 q 495 347 491 350 q 500 335 500 344 q 478 296 500 328 q 429 223 456 265 q 380 137 402 181 q 357 61 357 93 q 381 35 357 35 q 438 55 402 35 q 509 98 474 74 q 594 163 550 126 q 607 170 600 167 q 618 177 613 174 q 626 180 622 180 q 631 174 631 180 q 633 170 631 174 q 627 154 633 165 q 600 124 620 143 q 564 95 591 117 q 504 52 537 74 q 434 12 470 30 q 370 -6 398 -6 q 310 25 328 -6 q 293 94 293 56 q 304 157 293 126 m 180 300 q 133 231 156 267 q 94 164 111 196 q 68 105 78 131 q 57 63 57 78 q 69 50 57 50 q 116 69 83 50 q 187 116 148 87 q 268 180 226 144 q 343 248 309 215 q 360 279 352 263 q 380 311 369 294 q 393 328 385 320 q 411 343 400 335 q 441 354 422 350 q 448 398 444 374 q 452 443 452 422 q 444 483 452 467 q 413 500 435 500 q 358 481 389 500 q 296 433 328 463 q 234 369 265 404 q 180 300 204 333 m 370 669 q 423 701 406 687 q 452 724 441 715 q 469 731 459 731 q 485 730 472 733 l 491 726 q 496 722 494 722 q 500 717 500 719 q 502 715 500 715 q 507 700 507 706 q 517 669 511 689 q 541 613 522 648 q 559 585 544 598 q 567 572 574 572 q 535 588 550 574 q 506 613 520 602 q 491 626 504 613 q 465 656 478 639 q 421 644 443 646 q 396 643 400 643 q 363 644 381 644 q 330 656 344 643 q 341 659 324 659 q 370 669 357 659 z "},"":{"ha":594,"x_min":-15,"x_max":633,"o":"m 304 157 q 249 104 280 131 q 185 51 219 76 q 119 10 152 26 q 57 -6 87 -6 q 30 0 43 -6 q 7 17 17 6 q -8 43 -2 26 q -15 85 -15 59 q 8 185 -15 124 q 96 341 31 246 q 262 514 176 454 q 409 574 348 574 q 473 549 452 574 q 494 481 494 524 q 469 357 494 431 l 474 357 q 487 354 480 356 q 495 347 491 350 q 500 335 500 344 q 478 296 500 328 q 429 223 456 265 q 380 137 402 181 q 357 61 357 93 q 381 35 357 35 q 438 55 402 35 q 509 98 474 74 q 594 163 550 126 q 607 170 600 167 q 618 177 613 174 q 626 180 622 180 q 631 174 631 180 q 633 170 631 174 q 627 154 633 165 q 600 124 620 143 q 564 95 591 117 q 504 52 537 74 q 434 12 470 30 q 370 -6 398 -6 q 310 25 328 -6 q 293 94 293 56 q 304 157 293 126 m 180 300 q 133 231 156 267 q 94 164 111 196 q 68 105 78 131 q 57 63 57 78 q 69 50 57 50 q 116 69 83 50 q 187 116 148 87 q 268 180 226 144 q 343 248 309 215 q 360 279 352 263 q 380 311 369 294 q 393 328 385 320 q 411 343 400 335 q 441 354 422 350 q 448 398 444 374 q 452 443 452 422 q 444 483 452 467 q 413 500 435 500 q 358 481 389 500 q 296 433 328 463 q 234 369 265 404 q 180 300 204 333 m 383 674 q 355 671 369 678 q 343 674 341 665 q 369 705 350 694 q 409 715 387 715 q 454 706 431 715 q 493 681 476 698 q 501 669 498 676 q 509 656 504 663 q 524 641 515 650 q 554 619 533 631 q 582 604 567 606 q 593 596 598 602 q 562 588 580 585 q 528 594 544 591 q 504 599 526 594 q 457 630 481 604 q 435 656 446 639 q 383 674 424 672 z "},"":{"ha":594,"x_min":-15,"x_max":633,"o":"m 304 157 q 249 104 280 131 q 185 51 219 76 q 119 10 152 26 q 57 -6 87 -6 q 30 0 43 -6 q 7 17 17 6 q -8 43 -2 26 q -15 85 -15 59 q 8 185 -15 124 q 96 341 31 246 q 262 514 176 454 q 409 574 348 574 q 473 549 452 574 q 494 481 494 524 q 469 357 494 431 l 474 357 q 487 354 480 356 q 495 347 491 350 q 500 335 500 344 q 478 296 500 328 q 429 223 456 265 q 380 137 402 181 q 357 61 357 93 q 381 35 357 35 q 438 55 402 35 q 509 98 474 74 q 594 163 550 126 q 607 170 600 167 q 618 177 613 174 q 626 180 622 180 q 631 174 631 180 q 633 170 631 174 q 627 154 633 165 q 600 124 620 143 q 564 95 591 117 q 504 52 537 74 q 434 12 470 30 q 370 -6 398 -6 q 310 25 328 -6 q 293 94 293 56 q 304 157 293 126 m 180 300 q 133 231 156 267 q 94 164 111 196 q 68 105 78 131 q 57 63 57 78 q 69 50 57 50 q 116 69 83 50 q 187 116 148 87 q 268 180 226 144 q 343 248 309 215 q 360 279 352 263 q 380 311 369 294 q 393 328 385 320 q 411 343 400 335 q 441 354 422 350 q 448 398 444 374 q 452 443 452 422 q 444 483 452 467 q 413 500 435 500 q 358 481 389 500 q 296 433 328 463 q 234 369 265 404 q 180 300 204 333 m 363 698 q 381 737 369 722 q 407 756 393 752 q 434 756 422 761 q 452 735 446 752 q 451 707 456 720 q 439 683 446 694 q 419 657 431 670 q 376 645 396 643 q 363 698 356 648 m 483 654 q 501 693 489 678 q 528 712 513 707 q 555 712 543 717 q 572 691 567 707 q 571 663 576 676 q 559 639 567 650 q 539 613 552 626 q 496 601 517 598 q 483 654 476 604 z "},"":{"ha":594,"x_min":-15,"x_max":633,"o":"m 304 157 q 249 104 280 131 q 185 51 219 76 q 119 10 152 26 q 57 -6 87 -6 q 30 0 43 -6 q 7 17 17 6 q -8 43 -2 26 q -15 85 -15 59 q 8 185 -15 124 q 96 341 31 246 q 262 514 176 454 q 409 574 348 574 q 473 549 452 574 q 494 481 494 524 q 469 357 494 431 l 474 357 q 487 354 480 356 q 495 347 491 350 q 500 335 500 344 q 478 296 500 328 q 429 223 456 265 q 380 137 402 181 q 357 61 357 93 q 381 35 357 35 q 438 55 402 35 q 509 98 474 74 q 594 163 550 126 q 607 170 600 167 q 618 177 613 174 q 626 180 622 180 q 631 174 631 180 q 633 170 631 174 q 627 154 633 165 q 600 124 620 143 q 564 95 591 117 q 504 52 537 74 q 434 12 470 30 q 370 -6 398 -6 q 310 25 328 -6 q 293 94 293 56 q 304 157 293 126 m 180 300 q 133 231 156 267 q 94 164 111 196 q 68 105 78 131 q 57 63 57 78 q 69 50 57 50 q 116 69 83 50 q 187 116 148 87 q 268 180 226 144 q 343 248 309 215 q 360 279 352 263 q 380 311 369 294 q 393 328 385 320 q 411 343 400 335 q 441 354 422 350 q 448 398 444 374 q 452 443 452 422 q 444 483 452 467 q 413 500 435 500 q 358 481 389 500 q 296 433 328 463 q 234 369 265 404 q 180 300 204 333 m 472 672 q 479 643 469 644 q 502 650 489 641 q 513 665 507 657 q 520 693 524 678 q 496 706 515 711 q 472 672 478 700 m 435 667 q 458 719 441 700 q 494 745 476 739 q 531 745 513 752 q 554 717 548 739 q 552 680 557 698 q 537 646 546 661 q 509 611 526 628 q 480 596 494 602 q 453 595 465 591 q 435 617 441 600 q 435 667 430 633 z "},"":{"ha":691,"x_min":-15,"x_max":902,"o":"m 304 157 q 249 104 280 131 q 185 51 219 76 q 119 10 152 26 q 57 -6 87 -6 q 30 0 43 -6 q 7 17 17 6 q -8 43 -2 26 q -15 85 -15 59 q 8 185 -15 124 q 96 341 31 246 q 262 514 176 454 q 409 574 348 574 q 473 549 452 574 q 494 481 494 524 q 494 465 494 472 q 493 448 494 457 q 550 506 519 478 q 615 554 581 535 q 681 578 648 572 q 748 567 715 583 q 778 535 769 556 q 785 488 787 517 q 763 415 783 459 q 704 341 743 372 q 614 294 670 315 q 472 281 557 274 q 470 278 472 281 q 411 181 431 226 q 385 109 391 144 q 406 59 380 74 q 473 55 430 46 q 569 89 517 63 q 679 156 622 115 q 787 254 735 198 q 817 289 802 272 q 843 320 831 306 q 867 352 856 337 q 883 369 876 361 q 896 375 891 374 q 902 365 902 376 q 898 350 900 357 q 892 333 894 343 q 881 315 889 324 q 852 277 872 306 q 804 217 831 248 q 700 124 754 167 q 596 53 654 87 q 483 6 539 19 q 430 -6 463 -2 q 370 -6 396 -9 q 310 28 328 0 q 293 94 293 56 q 304 157 293 126 m 180 300 q 133 231 156 267 q 94 164 111 196 q 68 105 78 131 q 57 63 57 78 q 69 50 57 50 q 118 69 83 50 q 194 119 152 89 q 281 184 237 148 q 359 254 326 220 q 368 270 363 263 q 378 287 372 278 q 416 349 398 320 q 446 394 433 378 q 452 443 452 419 q 444 483 452 467 q 413 500 435 500 q 358 481 389 500 q 296 433 328 463 q 234 369 265 404 q 180 300 204 333 m 733 493 q 676 476 709 494 q 602 423 646 461 q 498 313 557 385 q 569 322 530 315 q 642 349 607 330 q 702 403 676 369 q 733 493 728 437 z "},"":{"ha":409,"x_min":-9,"x_max":572,"o":"m 46 9 q 0 72 11 30 q 1 169 -9 107 q 70 326 11 230 q 185 474 124 413 q 238 523 209 500 q 297 560 267 546 q 358 577 328 574 q 419 567 389 580 q 448 535 439 556 q 456 488 457 517 q 433 415 454 459 q 374 341 413 372 q 284 294 341 315 q 143 281 228 274 q 141 278 143 281 q 81 181 102 226 q 56 109 61 144 q 76 59 50 74 q 144 55 100 46 q 240 89 187 63 q 349 156 293 115 q 457 254 406 198 q 487 289 472 272 q 513 320 502 306 q 537 352 526 337 q 554 369 546 361 q 567 375 561 374 q 572 365 572 376 q 569 350 570 357 q 562 333 565 343 q 552 315 559 324 q 522 277 543 306 q 474 217 502 248 q 320 87 396 139 q 252 44 287 65 q 181 12 217 24 q 111 -2 146 0 q 46 9 76 -4 m 404 493 q 346 476 380 494 q 272 423 317 461 q 169 313 228 385 q 239 322 200 315 q 312 349 278 330 q 372 403 346 369 q 404 493 398 437 m 459 633 q 474 623 465 628 q 491 615 483 619 q 502 609 498 611 q 502 606 506 607 q 461 607 481 600 q 420 620 441 615 q 402 628 419 620 q 365 647 385 635 q 328 675 344 659 q 311 709 311 691 q 346 733 311 733 q 371 728 363 733 q 389 709 380 722 q 413 678 398 696 q 459 633 428 659 z "}}}
